<svg width="596" height="603" viewBox="0 0 596 603" fill="none" xmlns="http://www.w3.org/2000/svg">
<path d="M228.366 308.051C277.028 292.228 133.801 276.048 133.801 276.048C133.801 276.048 90.4275 218.911 117.563 131.351C136.406 70.5845 199.815 36.7495 246.461 35.7926C369.64 33.2671 424.913 197.883 413.023 329.188C413.023 329.188 412.05 456.809 350.955 531.798C296.024 599.223 247.393 433.414 218.732 442.922C132.92 471.389 129.63 509.295 97.7868 411.364C65.9432 313.433 104.126 378.577 111.71 319.057L228.366 308.051Z" fill="#A673FF"/>
<path d="M228.366 308.051C277.028 292.228 133.801 276.048 133.801 276.048C133.801 276.048 90.4275 218.911 117.563 131.351C136.406 70.5845 199.815 36.7495 246.461 35.7926C369.64 33.2671 424.913 197.883 413.023 329.188C413.023 329.188 412.05 456.809 350.955 531.798C296.024 599.223 247.393 433.414 218.732 442.922C132.92 471.389 129.63 509.295 97.7868 411.364C65.9432 313.433 104.126 378.577 111.71 319.057L228.366 308.051Z" fill="url(#paint0_linear_204_7195)" fill-opacity="0.2"/>
<path d="M252.872 233.884C304.042 233.884 314.312 252.584 314.312 252.584C314.312 252.584 290.732 184.835 343.614 109.958C380.324 57.9959 451.088 45.427 495.743 58.9411C613.666 94.6297 615.327 268.27 563.416 389.463C563.416 389.463 523.027 510.528 441.738 562.949C368.649 610.083 296.889 601.346 266.693 601.525C176.284 602.061 76.4221 523.097 76.4221 420.118C76.4221 317.14 149.894 233.91 252.898 233.91L252.872 233.884Z" fill="#A673FF"/>
<path d="M252.872 233.884C304.042 233.884 314.312 252.584 314.312 252.584C314.312 252.584 290.732 184.835 343.614 109.958C380.324 57.9959 451.088 45.427 495.743 58.9411C613.666 94.6297 615.327 268.27 563.416 389.463C563.416 389.463 523.027 510.528 441.738 562.949C368.649 610.083 296.889 601.346 266.693 601.525C176.284 602.061 76.4221 523.097 76.4221 420.118C76.4221 317.14 149.894 233.91 252.898 233.91L252.872 233.884Z" fill="url(#paint1_linear_204_7195)" fill-opacity="0.2"/>
<path d="M217.041 417.247C213.388 453.855 243.891 484.408 280.499 480.781C307.578 478.098 329.471 456.205 332.179 429.126C335.833 392.518 305.33 362.015 268.747 365.617C241.668 368.274 219.749 390.167 217.067 417.247L217.041 417.247Z" fill="white"/>
<defs>
<linearGradient id="paint0_linear_204_7195" x1="6.67348" y1="84.9304" x2="241.135" y2="247.429" gradientUnits="userSpaceOnUse">
<stop stop-color="white" stop-opacity="0"/>
<stop offset="1" stop-color="#2B00AC"/>
</linearGradient>
<linearGradient id="paint1_linear_204_7195" x1="219.358" y1="-184.179" x2="386.98" y2="478.035" gradientUnits="userSpaceOnUse">
<stop stop-color="white" stop-opacity="0"/>
<stop offset="1" stop-color="#0400FF"/>
</linearGradient>
</defs>
</svg>
