<svg width="112" height="48" viewBox="0 0 112 48" fill="none" xmlns="http://www.w3.org/2000/svg">
<path d="M41.2014 30.6785C41.1849 30.6785 41.1702 30.684 41.1555 30.6858C41.1922 30.6821 41.2289 30.6785 41.2675 30.6748C41.2454 30.6748 41.2234 30.6766 41.2032 30.6785H41.2014Z" fill="#FF4FF8"/>
<path d="M41.2014 30.6785C41.1849 30.6785 41.1702 30.684 41.1555 30.6858C41.1922 30.6821 41.2289 30.6785 41.2675 30.6748C41.2454 30.6748 41.2234 30.6766 41.2032 30.6785H41.2014Z" fill="url(#paint0_linear_196_6838)" fill-opacity="0.2"/>
<path d="M41.2014 30.6785C41.1849 30.6785 41.1702 30.684 41.1555 30.6858C41.1922 30.6821 41.2289 30.6785 41.2675 30.6748C41.2454 30.6748 41.2234 30.6766 41.2032 30.6785H41.2014Z" fill="url(#paint1_linear_196_6838)" fill-opacity="0.19"/>
<path d="M42.7949 38.8035C42.764 38.8126 42.7332 38.8216 42.7004 38.8289C42.7313 38.8198 42.764 38.8126 42.7949 38.8035Z" fill="#FF4FF8"/>
<path d="M42.7949 38.8035C42.764 38.8126 42.7332 38.8216 42.7004 38.8289C42.7313 38.8198 42.764 38.8126 42.7949 38.8035Z" fill="url(#paint2_linear_196_6838)" fill-opacity="0.2"/>
<path d="M42.7949 38.8035C42.764 38.8126 42.7332 38.8216 42.7004 38.8289C42.7313 38.8198 42.764 38.8126 42.7949 38.8035Z" fill="url(#paint3_linear_196_6838)" fill-opacity="0.19"/>
<path d="M42.4612 38.886C42.4339 38.8914 42.4067 38.8987 42.3794 38.9023C42.4067 38.8969 42.4339 38.8914 42.4612 38.886Z" fill="#FF4FF8"/>
<path d="M42.4612 38.886C42.4339 38.8914 42.4067 38.8987 42.3794 38.9023C42.4067 38.8969 42.4339 38.8914 42.4612 38.886Z" fill="url(#paint4_linear_196_6838)" fill-opacity="0.2"/>
<path d="M42.4612 38.886C42.4339 38.8914 42.4067 38.8987 42.3794 38.9023C42.4067 38.8969 42.4339 38.8914 42.4612 38.886Z" fill="url(#paint5_linear_196_6838)" fill-opacity="0.19"/>
<path d="M41.1554 38.9449C41.0582 38.9339 40.9627 38.9211 40.8691 38.9027C40.9646 38.9192 41.06 38.9339 41.1554 38.9449Z" fill="#FF4FF8"/>
<path d="M41.1554 38.9449C41.0582 38.9339 40.9627 38.9211 40.8691 38.9027C40.9646 38.9192 41.06 38.9339 41.1554 38.9449Z" fill="url(#paint6_linear_196_6838)" fill-opacity="0.2"/>
<path d="M41.1554 38.9449C41.0582 38.9339 40.9627 38.9211 40.8691 38.9027C40.9646 38.9192 41.06 38.9339 41.1554 38.9449Z" fill="url(#paint7_linear_196_6838)" fill-opacity="0.19"/>
<path d="M41.8662 30.6659C41.9048 30.6677 41.9433 30.6714 41.9818 30.6732C41.9433 30.6696 41.9048 30.6677 41.8662 30.6659Z" fill="#FF4FF8"/>
<path d="M41.8662 30.6659C41.9048 30.6677 41.9433 30.6714 41.9818 30.6732C41.9433 30.6696 41.9048 30.6677 41.8662 30.6659Z" fill="url(#paint8_linear_196_6838)" fill-opacity="0.2"/>
<path d="M41.8662 30.6659C41.9048 30.6677 41.9433 30.6714 41.9818 30.6732C41.9433 30.6696 41.9048 30.6677 41.8662 30.6659Z" fill="url(#paint9_linear_196_6838)" fill-opacity="0.19"/>
<path d="M41.3811 30.666C41.4215 30.6642 41.4619 30.6624 41.5022 30.6605C41.4619 30.6605 41.4215 30.6642 41.3811 30.666Z" fill="#FF4FF8"/>
<path d="M41.3811 30.666C41.4215 30.6642 41.4619 30.6624 41.5022 30.6605C41.4619 30.6605 41.4215 30.6642 41.3811 30.666Z" fill="url(#paint10_linear_196_6838)" fill-opacity="0.2"/>
<path d="M41.3811 30.666C41.4215 30.6642 41.4619 30.6624 41.5022 30.6605C41.4619 30.6605 41.4215 30.6642 41.3811 30.666Z" fill="url(#paint11_linear_196_6838)" fill-opacity="0.19"/>
<path d="M43.1255 38.6915C43.1106 38.6971 43.0957 38.7046 43.0808 38.7102C43.0957 38.7046 43.1106 38.699 43.1255 38.6915Z" fill="#FF4FF8"/>
<path d="M43.1255 38.6915C43.1106 38.6971 43.0957 38.7046 43.0808 38.7102C43.0957 38.7046 43.1106 38.699 43.1255 38.6915Z" fill="url(#paint12_linear_196_6838)" fill-opacity="0.2"/>
<path d="M43.1255 38.6915C43.1106 38.6971 43.0957 38.7046 43.0808 38.7102C43.0957 38.7046 43.1106 38.699 43.1255 38.6915Z" fill="url(#paint13_linear_196_6838)" fill-opacity="0.19"/>
<path d="M37.5381 35.5822C37.5197 35.485 37.5069 35.3859 37.4958 35.2849C37.5069 35.3859 37.5215 35.485 37.5381 35.5822Z" fill="#FF4FF8"/>
<path d="M37.5381 35.5822C37.5197 35.485 37.5069 35.3859 37.4958 35.2849C37.5069 35.3859 37.5215 35.485 37.5381 35.5822Z" fill="url(#paint14_linear_196_6838)" fill-opacity="0.2"/>
<path d="M37.5381 35.5822C37.5197 35.485 37.5069 35.3859 37.4958 35.2849C37.5069 35.3859 37.5215 35.485 37.5381 35.5822Z" fill="url(#paint15_linear_196_6838)" fill-opacity="0.19"/>
<path d="M43.427 38.5605C43.427 38.5605 43.4126 38.5678 43.4036 38.5714C43.4108 38.5678 43.418 38.5641 43.427 38.5605Z" fill="#FF4FF8"/>
<path d="M43.427 38.5605C43.427 38.5605 43.4126 38.5678 43.4036 38.5714C43.4108 38.5678 43.418 38.5641 43.427 38.5605Z" fill="url(#paint16_linear_196_6838)" fill-opacity="0.2"/>
<path d="M43.427 38.5605C43.427 38.5605 43.4126 38.5678 43.4036 38.5714C43.4108 38.5678 43.418 38.5641 43.427 38.5605Z" fill="url(#paint17_linear_196_6838)" fill-opacity="0.19"/>
<path d="M37.4887 34.3874C37.4868 34.4113 37.485 34.4333 37.4832 34.4572C37.4868 34.4186 37.4905 34.3801 37.4942 34.3434C37.4942 34.3581 37.4887 34.3727 37.4887 34.3874Z" fill="#FF4FF8"/>
<path d="M37.4887 34.3874C37.4868 34.4113 37.485 34.4333 37.4832 34.4572C37.4868 34.4186 37.4905 34.3801 37.4942 34.3434C37.4942 34.3581 37.4887 34.3727 37.4887 34.3874Z" fill="url(#paint18_linear_196_6838)" fill-opacity="0.2"/>
<path d="M37.4887 34.3874C37.4868 34.4113 37.485 34.4333 37.4832 34.4572C37.4868 34.4186 37.4905 34.3801 37.4942 34.3434C37.4942 34.3581 37.4887 34.3727 37.4887 34.3874Z" fill="url(#paint19_linear_196_6838)" fill-opacity="0.19"/>
<path d="M37.4832 35.1714C37.4795 35.1329 37.4777 35.0943 37.4758 35.0576C37.4777 35.0962 37.4813 35.1347 37.4832 35.1714Z" fill="#FF4FF8"/>
<path d="M37.4832 35.1714C37.4795 35.1329 37.4777 35.0943 37.4758 35.0576C37.4777 35.0962 37.4813 35.1347 37.4832 35.1714Z" fill="url(#paint20_linear_196_6838)" fill-opacity="0.2"/>
<path d="M37.4832 35.1714C37.4795 35.1329 37.4777 35.0943 37.4758 35.0576C37.4777 35.0962 37.4813 35.1347 37.4832 35.1714Z" fill="url(#paint21_linear_196_6838)" fill-opacity="0.19"/>
<path d="M41.3812 38.9647C41.3427 38.9629 41.3042 38.9592 41.2656 38.9574C41.3042 38.9611 41.3427 38.9629 41.3812 38.9647Z" fill="#FF4FF8"/>
<path d="M41.3812 38.9647C41.3427 38.9629 41.3042 38.9592 41.2656 38.9574C41.3042 38.9611 41.3427 38.9629 41.3812 38.9647Z" fill="url(#paint22_linear_196_6838)" fill-opacity="0.2"/>
<path d="M41.3812 38.9647C41.3427 38.9629 41.3042 38.9592 41.2656 38.9574C41.3042 38.9611 41.3427 38.9629 41.3812 38.9647Z" fill="url(#paint23_linear_196_6838)" fill-opacity="0.19"/>
<path d="M37.5383 34.0458C37.5438 34.0204 37.5492 33.9931 37.5547 33.9677C37.5492 33.9931 37.542 34.0204 37.5383 34.0458Z" fill="#FF4FF8"/>
<path d="M37.5383 34.0458C37.5438 34.0204 37.5492 33.9931 37.5547 33.9677C37.5492 33.9931 37.542 34.0204 37.5383 34.0458Z" fill="url(#paint24_linear_196_6838)" fill-opacity="0.2"/>
<path d="M37.5383 34.0458C37.5438 34.0204 37.5492 33.9931 37.5547 33.9677C37.5492 33.9931 37.542 34.0204 37.5383 34.0458Z" fill="url(#paint25_linear_196_6838)" fill-opacity="0.19"/>
<path d="M37.4702 34.6923C37.4702 34.6519 37.4739 34.6115 37.4757 34.5712C37.4739 34.6115 37.4721 34.6519 37.4702 34.6923Z" fill="#FF4FF8"/>
<path d="M37.4702 34.6923C37.4702 34.6519 37.4739 34.6115 37.4757 34.5712C37.4739 34.6115 37.4721 34.6519 37.4702 34.6923Z" fill="url(#paint26_linear_196_6838)" fill-opacity="0.2"/>
<path d="M37.4702 34.6923C37.4702 34.6519 37.4739 34.6115 37.4757 34.5712C37.4739 34.6115 37.4721 34.6519 37.4702 34.6923Z" fill="url(#paint27_linear_196_6838)" fill-opacity="0.19"/>
<path d="M37.8718 33.0245C37.8718 33.0245 37.8756 33.0151 37.8794 33.0094C37.8775 33.0151 37.8756 33.0188 37.8718 33.0245Z" fill="#FF4FF8"/>
<path d="M37.8718 33.0245C37.8718 33.0245 37.8756 33.0151 37.8794 33.0094C37.8775 33.0151 37.8756 33.0188 37.8718 33.0245Z" fill="url(#paint28_linear_196_6838)" fill-opacity="0.2"/>
<path d="M37.8718 33.0245C37.8718 33.0245 37.8756 33.0151 37.8794 33.0094C37.8775 33.0151 37.8756 33.0188 37.8718 33.0245Z" fill="url(#paint29_linear_196_6838)" fill-opacity="0.19"/>
<path d="M39.821 31.0679C39.821 31.0679 39.8319 31.0625 39.8391 31.0607C39.8337 31.0643 39.8283 31.0661 39.821 31.0679Z" fill="#FF4FF8"/>
<path d="M39.821 31.0679C39.821 31.0679 39.8319 31.0625 39.8391 31.0607C39.8337 31.0643 39.8283 31.0661 39.821 31.0679Z" fill="url(#paint30_linear_196_6838)" fill-opacity="0.2"/>
<path d="M39.821 31.0679C39.821 31.0679 39.8319 31.0625 39.8391 31.0607C39.8337 31.0643 39.8283 31.0661 39.821 31.0679Z" fill="url(#paint31_linear_196_6838)" fill-opacity="0.19"/>
<path d="M42.0456 38.9519C42.0602 38.9519 42.0768 38.9464 42.0914 38.9446C42.0547 38.9483 42.018 38.9519 41.9795 38.9556C42.0015 38.9556 42.0235 38.9538 42.0456 38.9501V38.9519Z" fill="#FF4FF8"/>
<path d="M42.0456 38.9519C42.0602 38.9519 42.0768 38.9464 42.0914 38.9446C42.0547 38.9483 42.018 38.9519 41.9795 38.9556C42.0015 38.9556 42.0235 38.9538 42.0456 38.9501V38.9519Z" fill="url(#paint32_linear_196_6838)" fill-opacity="0.2"/>
<path d="M42.0456 38.9519C42.0602 38.9519 42.0768 38.9464 42.0914 38.9446C42.0547 38.9483 42.018 38.9519 41.9795 38.9556C42.0015 38.9556 42.0235 38.9538 42.0456 38.9501V38.9519Z" fill="url(#paint33_linear_196_6838)" fill-opacity="0.19"/>
<path d="M41.8655 38.9648C41.8251 38.9667 41.7848 38.9685 41.7444 38.9703C41.7848 38.9703 41.8251 38.9667 41.8655 38.9648Z" fill="#FF4FF8"/>
<path d="M41.8655 38.9648C41.8251 38.9667 41.7848 38.9685 41.7444 38.9703C41.7848 38.9703 41.8251 38.9667 41.8655 38.9648Z" fill="url(#paint34_linear_196_6838)" fill-opacity="0.2"/>
<path d="M41.8655 38.9648C41.8251 38.9667 41.7848 38.9685 41.7444 38.9703C41.7848 38.9703 41.8251 38.9667 41.8655 38.9648Z" fill="url(#paint35_linear_196_6838)" fill-opacity="0.19"/>
<path d="M42.7939 30.8256C42.8912 30.8549 42.9866 30.8861 43.0802 30.921C42.9866 30.8861 42.8894 30.8549 42.7939 30.8256Z" fill="#FF4FF8"/>
<path d="M42.7939 30.8256C42.8912 30.8549 42.9866 30.8861 43.0802 30.921C42.9866 30.8861 42.8894 30.8549 42.7939 30.8256Z" fill="url(#paint36_linear_196_6838)" fill-opacity="0.2"/>
<path d="M42.7939 30.8256C42.8912 30.8549 42.9866 30.8861 43.0802 30.921C42.9866 30.8861 42.8894 30.8549 42.7939 30.8256Z" fill="url(#paint37_linear_196_6838)" fill-opacity="0.19"/>
<path d="M45.3691 33.0093C44.9598 32.1633 44.2734 31.4751 43.4255 31.0676C44.2698 31.4769 44.9598 32.1651 45.3691 33.0093Z" fill="#FF4FF8"/>
<path d="M45.3691 33.0093C44.9598 32.1633 44.2734 31.4751 43.4255 31.0676C44.2698 31.4769 44.9598 32.1651 45.3691 33.0093Z" fill="url(#paint38_linear_196_6838)" fill-opacity="0.2"/>
<path d="M45.3691 33.0093C44.9598 32.1633 44.2734 31.4751 43.4255 31.0676C44.2698 31.4769 44.9598 32.1651 45.3691 33.0093Z" fill="url(#paint39_linear_196_6838)" fill-opacity="0.19"/>
<path d="M45.7579 35.2411C45.7598 35.2173 45.7616 35.1952 45.7635 35.1714C45.7598 35.2099 45.7561 35.2485 45.7524 35.2852C45.7524 35.2705 45.7579 35.2558 45.7579 35.2411Z" fill="#FF4FF8"/>
<path d="M45.7579 35.2411C45.7598 35.2173 45.7616 35.1952 45.7635 35.1714C45.7598 35.2099 45.7561 35.2485 45.7524 35.2852C45.7524 35.2705 45.7579 35.2558 45.7579 35.2411Z" fill="url(#paint40_linear_196_6838)" fill-opacity="0.2"/>
<path d="M45.7579 35.2411C45.7598 35.2173 45.7616 35.1952 45.7635 35.1714C45.7598 35.2099 45.7561 35.2485 45.7524 35.2852C45.7524 35.2705 45.7579 35.2558 45.7579 35.2411Z" fill="url(#paint41_linear_196_6838)" fill-opacity="0.19"/>
<path d="M45.7634 34.4575C45.7671 34.4961 45.7689 34.5346 45.7708 34.5713C45.7689 34.5328 45.7653 34.4942 45.7634 34.4575Z" fill="#FF4FF8"/>
<path d="M45.7634 34.4575C45.7671 34.4961 45.7689 34.5346 45.7708 34.5713C45.7689 34.5328 45.7653 34.4942 45.7634 34.4575Z" fill="url(#paint42_linear_196_6838)" fill-opacity="0.2"/>
<path d="M45.7634 34.4575C45.7671 34.4961 45.7689 34.5346 45.7708 34.5713C45.7689 34.5328 45.7653 34.4942 45.7634 34.4575Z" fill="url(#paint43_linear_196_6838)" fill-opacity="0.19"/>
<path d="M45.7107 34.0461C45.729 34.1434 45.7419 34.2425 45.7529 34.3435C45.7419 34.2444 45.7272 34.1434 45.7107 34.0461Z" fill="#FF4FF8"/>
<path d="M45.7107 34.0461C45.729 34.1434 45.7419 34.2425 45.7529 34.3435C45.7419 34.2444 45.7272 34.1434 45.7107 34.0461Z" fill="url(#paint44_linear_196_6838)" fill-opacity="0.2"/>
<path d="M45.7107 34.0461C45.729 34.1434 45.7419 34.2425 45.7529 34.3435C45.7419 34.2444 45.7272 34.1434 45.7107 34.0461Z" fill="url(#paint45_linear_196_6838)" fill-opacity="0.19"/>
<path d="M40.785 38.8856C40.7042 38.8691 40.6253 38.8508 40.5464 38.8287C40.6253 38.8489 40.7042 38.8691 40.785 38.8856Z" fill="#FF4FF8"/>
<path d="M40.785 38.8856C40.7042 38.8691 40.6253 38.8508 40.5464 38.8287C40.6253 38.8489 40.7042 38.8691 40.785 38.8856Z" fill="url(#paint46_linear_196_6838)" fill-opacity="0.2"/>
<path d="M40.785 38.8856C40.7042 38.8691 40.6253 38.8508 40.5464 38.8287C40.6253 38.8489 40.7042 38.8691 40.785 38.8856Z" fill="url(#paint47_linear_196_6838)" fill-opacity="0.19"/>
<path d="M45.7085 35.5825C45.703 35.6098 45.6976 35.6352 45.6921 35.6607C45.6976 35.6334 45.7049 35.608 45.7085 35.5825Z" fill="#FF4FF8"/>
<path d="M45.7085 35.5825C45.703 35.6098 45.6976 35.6352 45.6921 35.6607C45.6976 35.6334 45.7049 35.608 45.7085 35.5825Z" fill="url(#paint48_linear_196_6838)" fill-opacity="0.2"/>
<path d="M45.7085 35.5825C45.703 35.6098 45.6976 35.6352 45.6921 35.6607C45.6976 35.6334 45.7049 35.608 45.7085 35.5825Z" fill="url(#paint49_linear_196_6838)" fill-opacity="0.19"/>
<path d="M42.0918 30.6843C42.1872 30.6953 42.2827 30.7082 42.3781 30.7247C42.2845 30.7082 42.1891 30.6935 42.0918 30.6843Z" fill="#FF4FF8"/>
<path d="M42.0918 30.6843C42.1872 30.6953 42.2827 30.7082 42.3781 30.7247C42.2845 30.7082 42.1891 30.6935 42.0918 30.6843Z" fill="url(#paint50_linear_196_6838)" fill-opacity="0.2"/>
<path d="M42.0918 30.6843C42.1872 30.6953 42.2827 30.7082 42.3781 30.7247C42.2845 30.7082 42.1891 30.6935 42.0918 30.6843Z" fill="url(#paint51_linear_196_6838)" fill-opacity="0.19"/>
<path d="M40.1222 38.6913C40.0268 38.6546 39.9332 38.6142 39.8433 38.5702C39.935 38.6142 40.0286 38.6546 40.1222 38.6913Z" fill="#FF4FF8"/>
<path d="M40.1222 38.6913C40.0268 38.6546 39.9332 38.6142 39.8433 38.5702C39.935 38.6142 40.0286 38.6546 40.1222 38.6913Z" fill="url(#paint52_linear_196_6838)" fill-opacity="0.2"/>
<path d="M40.1222 38.6913C40.0268 38.6546 39.9332 38.6142 39.8433 38.5702C39.935 38.6142 40.0286 38.6546 40.1222 38.6913Z" fill="url(#paint53_linear_196_6838)" fill-opacity="0.19"/>
<path d="M45.7763 34.9344C45.7763 34.9748 45.7726 35.0152 45.7708 35.0556C45.7726 35.0152 45.7744 34.9748 45.7763 34.9344Z" fill="#FF4FF8"/>
<path d="M45.7763 34.9344C45.7763 34.9748 45.7726 35.0152 45.7708 35.0556C45.7726 35.0152 45.7744 34.9748 45.7763 34.9344Z" fill="url(#paint54_linear_196_6838)" fill-opacity="0.2"/>
<path d="M45.7763 34.9344C45.7763 34.9748 45.7726 35.0152 45.7708 35.0556C45.7726 35.0152 45.7744 34.9748 45.7763 34.9344Z" fill="url(#paint55_linear_196_6838)" fill-opacity="0.19"/>
<path d="M37.8794 36.6213C38.2887 37.4674 38.9732 38.1519 39.8193 38.5612C38.9769 38.1519 38.2887 37.4637 37.8794 36.6213Z" fill="#FF4FF8"/>
<path d="M37.8794 36.6213C38.2887 37.4674 38.9732 38.1519 39.8193 38.5612C38.9769 38.1519 38.2887 37.4637 37.8794 36.6213Z" fill="url(#paint56_linear_196_6838)" fill-opacity="0.2"/>
<path d="M37.8794 36.6213C38.2887 37.4674 38.9732 38.1519 39.8193 38.5612C38.9769 38.1519 38.2887 37.4637 37.8794 36.6213Z" fill="url(#paint57_linear_196_6838)" fill-opacity="0.19"/>
<path d="M37.7311 36.2725C37.6962 36.1789 37.665 36.0853 37.6375 35.988C37.665 36.0835 37.6962 36.1789 37.7311 36.2725Z" fill="#FF4FF8"/>
<path d="M37.7311 36.2725C37.6962 36.1789 37.665 36.0853 37.6375 35.988C37.665 36.0835 37.6962 36.1789 37.7311 36.2725Z" fill="url(#paint58_linear_196_6838)" fill-opacity="0.2"/>
<path d="M37.7311 36.2725C37.6962 36.1789 37.665 36.0853 37.6375 35.988C37.665 36.0835 37.6962 36.1789 37.7311 36.2725Z" fill="url(#paint59_linear_196_6838)" fill-opacity="0.19"/>
<path d="M43.1208 30.9353C43.2181 30.9738 43.3136 31.0142 43.4071 31.0583C43.3136 31.0142 43.2181 30.972 43.1208 30.9353Z" fill="#FF4FF8"/>
<path d="M43.1208 30.9353C43.2181 30.9738 43.3136 31.0142 43.4071 31.0583C43.3136 31.0142 43.2181 30.972 43.1208 30.9353Z" fill="url(#paint60_linear_196_6838)" fill-opacity="0.2"/>
<path d="M43.1208 30.9353C43.2181 30.9738 43.3136 31.0142 43.4071 31.0583C43.3136 31.0142 43.2181 30.972 43.1208 30.9353Z" fill="url(#paint61_linear_196_6838)" fill-opacity="0.19"/>
<path d="M45.5179 36.2726C45.5106 36.2891 45.5051 36.3055 45.4978 36.3239C45.5051 36.3074 45.5125 36.2909 45.5179 36.2726Z" fill="#FF4FF8"/>
<path d="M45.5179 36.2726C45.5106 36.2891 45.5051 36.3055 45.4978 36.3239C45.5051 36.3074 45.5125 36.2909 45.5179 36.2726Z" fill="url(#paint62_linear_196_6838)" fill-opacity="0.2"/>
<path d="M45.5179 36.2726C45.5106 36.2891 45.5051 36.3055 45.4978 36.3239C45.5051 36.3074 45.5125 36.2909 45.5179 36.2726Z" fill="url(#paint63_linear_196_6838)" fill-opacity="0.19"/>
<path d="M45.376 36.6011C45.376 36.6011 45.3707 36.6134 45.3672 36.6204C45.3707 36.6134 45.3725 36.6081 45.376 36.6011Z" fill="#FF4FF8"/>
<path d="M45.376 36.6011C45.376 36.6011 45.3707 36.6134 45.3672 36.6204C45.3707 36.6134 45.3725 36.6081 45.376 36.6011Z" fill="url(#paint64_linear_196_6838)" fill-opacity="0.2"/>
<path d="M45.376 36.6011C45.376 36.6011 45.3707 36.6134 45.3672 36.6204C45.3707 36.6134 45.3725 36.6081 45.376 36.6011Z" fill="url(#paint65_linear_196_6838)" fill-opacity="0.19"/>
<path d="M37.8705 36.5993C37.8265 36.5093 37.7879 36.4157 37.7512 36.3221C37.7879 36.4157 37.8283 36.5093 37.8705 36.5993Z" fill="#FF4FF8"/>
<path d="M37.8705 36.5993C37.8265 36.5093 37.7879 36.4157 37.7512 36.3221C37.7879 36.4157 37.8283 36.5093 37.8705 36.5993Z" fill="url(#paint66_linear_196_6838)" fill-opacity="0.2"/>
<path d="M37.8705 36.5993C37.8265 36.5093 37.7879 36.4157 37.7512 36.3221C37.7879 36.4157 37.8283 36.5093 37.8705 36.5993Z" fill="url(#paint67_linear_196_6838)" fill-opacity="0.19"/>
<path d="M45.6365 35.8925C45.6274 35.9234 45.6202 35.9561 45.6111 35.987C45.6202 35.9561 45.6293 35.9252 45.6365 35.8925Z" fill="#FF4FF8"/>
<path d="M45.6365 35.8925C45.6274 35.9234 45.6202 35.9561 45.6111 35.987C45.6202 35.9561 45.6293 35.9252 45.6365 35.8925Z" fill="url(#paint68_linear_196_6838)" fill-opacity="0.2"/>
<path d="M45.6365 35.8925C45.6274 35.9234 45.6202 35.9561 45.6111 35.987C45.6202 35.9561 45.6293 35.9252 45.6365 35.8925Z" fill="url(#paint69_linear_196_6838)" fill-opacity="0.19"/>
<path d="M40.4507 38.8033C40.3535 38.774 40.2599 38.7446 40.1663 38.7079C40.2599 38.7428 40.3553 38.774 40.4507 38.8033Z" fill="#FF4FF8"/>
<path d="M40.4507 38.8033C40.3535 38.774 40.2599 38.7446 40.1663 38.7079C40.2599 38.7428 40.3553 38.774 40.4507 38.8033Z" fill="url(#paint70_linear_196_6838)" fill-opacity="0.2"/>
<path d="M40.4507 38.8033C40.3535 38.774 40.2599 38.7446 40.1663 38.7079C40.2599 38.7428 40.3553 38.774 40.4507 38.8033Z" fill="url(#paint71_linear_196_6838)" fill-opacity="0.19"/>
<path d="M45.3748 33.0242C45.4188 33.1159 45.4592 33.2114 45.4977 33.3068C45.461 33.2114 45.4188 33.1159 45.3748 33.0242Z" fill="#FF4FF8"/>
<path d="M45.3748 33.0242C45.4188 33.1159 45.4592 33.2114 45.4977 33.3068C45.461 33.2114 45.4188 33.1159 45.3748 33.0242Z" fill="url(#paint72_linear_196_6838)" fill-opacity="0.2"/>
<path d="M45.3748 33.0242C45.4188 33.1159 45.4592 33.2114 45.4977 33.3068C45.461 33.2114 45.4188 33.1159 45.3748 33.0242Z" fill="url(#paint73_linear_196_6838)" fill-opacity="0.19"/>
<path d="M45.5159 33.3544C45.5507 33.448 45.5819 33.5434 45.6113 33.6407C45.5838 33.5434 45.5507 33.448 45.5159 33.3544Z" fill="#FF4FF8"/>
<path d="M45.5159 33.3544C45.5507 33.448 45.5819 33.5434 45.6113 33.6407C45.5838 33.5434 45.5507 33.448 45.5159 33.3544Z" fill="url(#paint74_linear_196_6838)" fill-opacity="0.2"/>
<path d="M45.5159 33.3544C45.5507 33.448 45.5819 33.5434 45.6113 33.6407C45.5838 33.5434 45.5507 33.448 45.5159 33.3544Z" fill="url(#paint75_linear_196_6838)" fill-opacity="0.19"/>
<path d="M41.6235 21.629C34.1907 21.629 28.1949 27.779 28.4463 35.2668C28.6849 42.3949 34.6513 47.9979 41.7831 47.9979H54.8061V21.629H41.6216H41.6235ZM45.7766 34.9346C45.7766 34.975 45.773 35.0153 45.7711 35.0557C45.7693 35.0943 45.7656 35.1328 45.7638 35.1695C45.762 35.1934 45.762 35.2154 45.7583 35.2392C45.7583 35.2539 45.7528 35.2686 45.7528 35.2833C45.7418 35.3824 45.7271 35.4833 45.7106 35.5806C45.7051 35.6081 45.6996 35.6338 45.694 35.6595C45.6775 35.7384 45.6592 35.8155 45.639 35.8908C45.6298 35.922 45.6225 35.955 45.6133 35.9862C45.5858 36.0816 45.5546 36.1771 45.5197 36.2707C45.5124 36.2872 45.5069 36.3037 45.4995 36.322C45.4628 36.4156 45.4224 36.5092 45.3802 36.5992C45.3765 36.6065 45.3747 36.6138 45.371 36.6194C44.9618 37.4654 44.2772 38.1499 43.4312 38.5592C43.4238 38.5629 43.4165 38.5666 43.4073 38.5702C43.3156 38.6143 43.2238 38.6546 43.1284 38.6913C43.1137 38.6969 43.099 38.7042 43.0843 38.7097C42.9907 38.7446 42.8953 38.7758 42.7999 38.8051C42.7687 38.8143 42.7375 38.8235 42.7044 38.8308C42.6255 38.851 42.5466 38.8712 42.4658 38.8877C42.4383 38.8932 42.4108 38.9006 42.3833 38.9042C42.2878 38.9208 42.1924 38.9354 42.097 38.9464C42.0823 38.9464 42.0658 38.952 42.0511 38.9538C42.029 38.9556 42.007 38.9575 41.985 38.9593C41.9465 38.963 41.9079 38.9648 41.8694 38.9666C41.829 38.9685 41.7886 38.9703 41.7483 38.9721C41.7079 38.9721 41.6675 38.9721 41.6271 38.9721C41.5868 38.9721 41.5464 38.9721 41.506 38.9721C41.4656 38.9721 41.4253 38.9685 41.3849 38.9666C41.3463 38.9648 41.3078 38.9611 41.2693 38.9593C41.2472 38.9593 41.2252 38.9575 41.2032 38.9538C41.1885 38.9538 41.172 38.9483 41.1573 38.9464C41.06 38.9354 40.9646 38.9226 40.871 38.9042C40.8435 38.8987 40.8159 38.8932 40.7884 38.8877C40.7077 38.8712 40.6288 38.8528 40.5498 38.8308C40.5186 38.8217 40.4856 38.8143 40.4544 38.8051C40.3571 38.7776 40.2635 38.7464 40.1699 38.7097C40.1553 38.7042 40.1406 38.6987 40.1259 38.6913C40.0305 38.6546 39.9387 38.6143 39.8469 38.5702C39.8396 38.5666 39.8323 38.5629 39.8249 38.5592C38.9789 38.1518 38.2925 37.4654 37.8851 36.6194C37.8814 36.612 37.8795 36.6047 37.8759 36.5992C37.8318 36.5092 37.7933 36.4156 37.7566 36.322C37.7492 36.3055 37.7419 36.289 37.7364 36.2707C37.7015 36.1771 37.6703 36.0835 37.6428 35.9862C37.6336 35.955 37.6244 35.922 37.6171 35.8908C37.5969 35.8137 37.5786 35.7366 37.562 35.6595C37.5565 35.632 37.5492 35.6063 37.5455 35.5788C37.5272 35.4815 37.5143 35.3824 37.5033 35.2815C37.5033 35.2668 37.4978 35.2521 37.4978 35.2374C37.496 35.2135 37.4941 35.1915 37.4923 35.1677C37.4886 35.1291 37.4868 35.0906 37.485 35.0539C37.4831 35.0135 37.4813 34.9731 37.4795 34.9328C37.4795 34.8924 37.4795 34.852 37.4795 34.8116C37.4795 34.7713 37.4795 34.7309 37.4795 34.6905C37.4795 34.6501 37.4831 34.6098 37.485 34.5694C37.4868 34.5308 37.4905 34.4923 37.4923 34.4556C37.4941 34.4317 37.4941 34.4097 37.4978 34.3859C37.4978 34.3712 37.5033 34.3565 37.5033 34.3418C37.5143 34.2409 37.529 34.1418 37.5455 34.0445C37.551 34.0188 37.5565 33.9913 37.562 33.9656C37.5786 33.8867 37.5969 33.8096 37.6171 33.7325C37.6263 33.7013 37.6336 33.6701 37.6428 33.6389C37.6703 33.5416 37.7034 33.4462 37.7382 33.3526C37.7437 33.3361 37.7511 33.3214 37.7566 33.3049C37.7933 33.2095 37.8355 33.114 37.8795 33.0223C37.8814 33.0168 37.8832 33.0131 37.8869 33.0076C38.2961 32.1615 38.9825 31.4733 39.8304 31.0659C39.8359 31.0622 39.8414 31.0604 39.8488 31.0585C39.9424 31.0145 40.0378 30.9723 40.1351 30.9356C40.1479 30.9301 40.1608 30.9246 40.1736 30.9191C40.2672 30.8842 40.3645 30.853 40.4599 30.8236C40.4911 30.8145 40.5223 30.8071 40.5535 30.7979C40.6324 30.7759 40.7132 30.7576 40.7939 30.741C40.8215 30.7355 40.849 30.73 40.8765 30.7245C40.9701 30.708 41.0655 30.6933 41.1628 30.6842C41.1775 30.6842 41.194 30.6786 41.2087 30.6768C41.2307 30.675 41.2527 30.675 41.2729 30.6731C41.3115 30.6695 41.35 30.6676 41.3885 30.6658C41.4289 30.664 41.4693 30.6621 41.5097 30.6603C41.55 30.6603 41.5904 30.6603 41.6308 30.6603C41.6712 30.6603 41.7116 30.6603 41.7519 30.6603C41.7923 30.6603 41.8327 30.664 41.8731 30.6658C41.9116 30.6676 41.9501 30.6713 41.9887 30.6731C42.0107 30.6731 42.0327 30.675 42.0529 30.6768C42.0694 30.6768 42.0841 30.6823 42.0988 30.6842C42.1942 30.6952 42.2897 30.708 42.3851 30.7245C42.4126 30.73 42.4401 30.7355 42.4677 30.741C42.5484 30.7576 42.6292 30.7759 42.7081 30.7979C42.7393 30.8071 42.7705 30.8145 42.8017 30.8236C42.899 30.853 42.9944 30.8842 43.088 30.9191C43.1008 30.9246 43.1137 30.9301 43.1265 30.9356C43.2238 30.9723 43.3192 31.0145 43.4128 31.0585C43.4183 31.0622 43.4238 31.064 43.4312 31.0659C44.2791 31.4733 44.9655 32.1615 45.3747 33.0076C45.3765 33.0131 45.3784 33.0168 45.3821 33.0223C45.4261 33.114 45.4665 33.2095 45.505 33.3049C45.5105 33.3214 45.5179 33.3361 45.5234 33.3526C45.5582 33.4462 45.5894 33.5416 45.6188 33.6389C45.628 33.6701 45.6353 33.7013 45.6445 33.7325C45.6647 33.8096 45.683 33.8867 45.6996 33.9656C45.7051 33.9913 45.7124 34.0188 45.7161 34.0445C45.7344 34.1418 45.7473 34.2409 45.7583 34.3418C45.7583 34.3565 45.7638 34.3712 45.7638 34.3859C45.7656 34.4097 45.7675 34.4317 45.7693 34.4556C45.773 34.4941 45.7748 34.5327 45.7766 34.5694C45.7785 34.6098 45.7803 34.6501 45.7821 34.6905C45.7821 34.7309 45.7821 34.7713 45.7821 34.8116C45.7821 34.852 45.7821 34.8924 45.7821 34.9328L45.7766 34.9346Z" fill="#FF4FF8"/>
<path d="M41.6235 21.629C34.1907 21.629 28.1949 27.779 28.4463 35.2668C28.6849 42.3949 34.6513 47.9979 41.7831 47.9979H54.8061V21.629H41.6216H41.6235ZM45.7766 34.9346C45.7766 34.975 45.773 35.0153 45.7711 35.0557C45.7693 35.0943 45.7656 35.1328 45.7638 35.1695C45.762 35.1934 45.762 35.2154 45.7583 35.2392C45.7583 35.2539 45.7528 35.2686 45.7528 35.2833C45.7418 35.3824 45.7271 35.4833 45.7106 35.5806C45.7051 35.6081 45.6996 35.6338 45.694 35.6595C45.6775 35.7384 45.6592 35.8155 45.639 35.8908C45.6298 35.922 45.6225 35.955 45.6133 35.9862C45.5858 36.0816 45.5546 36.1771 45.5197 36.2707C45.5124 36.2872 45.5069 36.3037 45.4995 36.322C45.4628 36.4156 45.4224 36.5092 45.3802 36.5992C45.3765 36.6065 45.3747 36.6138 45.371 36.6194C44.9618 37.4654 44.2772 38.1499 43.4312 38.5592C43.4238 38.5629 43.4165 38.5666 43.4073 38.5702C43.3156 38.6143 43.2238 38.6546 43.1284 38.6913C43.1137 38.6969 43.099 38.7042 43.0843 38.7097C42.9907 38.7446 42.8953 38.7758 42.7999 38.8051C42.7687 38.8143 42.7375 38.8235 42.7044 38.8308C42.6255 38.851 42.5466 38.8712 42.4658 38.8877C42.4383 38.8932 42.4108 38.9006 42.3833 38.9042C42.2878 38.9208 42.1924 38.9354 42.097 38.9464C42.0823 38.9464 42.0658 38.952 42.0511 38.9538C42.029 38.9556 42.007 38.9575 41.985 38.9593C41.9465 38.963 41.9079 38.9648 41.8694 38.9666C41.829 38.9685 41.7886 38.9703 41.7483 38.9721C41.7079 38.9721 41.6675 38.9721 41.6271 38.9721C41.5868 38.9721 41.5464 38.9721 41.506 38.9721C41.4656 38.9721 41.4253 38.9685 41.3849 38.9666C41.3463 38.9648 41.3078 38.9611 41.2693 38.9593C41.2472 38.9593 41.2252 38.9575 41.2032 38.9538C41.1885 38.9538 41.172 38.9483 41.1573 38.9464C41.06 38.9354 40.9646 38.9226 40.871 38.9042C40.8435 38.8987 40.8159 38.8932 40.7884 38.8877C40.7077 38.8712 40.6288 38.8528 40.5498 38.8308C40.5186 38.8217 40.4856 38.8143 40.4544 38.8051C40.3571 38.7776 40.2635 38.7464 40.1699 38.7097C40.1553 38.7042 40.1406 38.6987 40.1259 38.6913C40.0305 38.6546 39.9387 38.6143 39.8469 38.5702C39.8396 38.5666 39.8323 38.5629 39.8249 38.5592C38.9789 38.1518 38.2925 37.4654 37.8851 36.6194C37.8814 36.612 37.8795 36.6047 37.8759 36.5992C37.8318 36.5092 37.7933 36.4156 37.7566 36.322C37.7492 36.3055 37.7419 36.289 37.7364 36.2707C37.7015 36.1771 37.6703 36.0835 37.6428 35.9862C37.6336 35.955 37.6244 35.922 37.6171 35.8908C37.5969 35.8137 37.5786 35.7366 37.562 35.6595C37.5565 35.632 37.5492 35.6063 37.5455 35.5788C37.5272 35.4815 37.5143 35.3824 37.5033 35.2815C37.5033 35.2668 37.4978 35.2521 37.4978 35.2374C37.496 35.2135 37.4941 35.1915 37.4923 35.1677C37.4886 35.1291 37.4868 35.0906 37.485 35.0539C37.4831 35.0135 37.4813 34.9731 37.4795 34.9328C37.4795 34.8924 37.4795 34.852 37.4795 34.8116C37.4795 34.7713 37.4795 34.7309 37.4795 34.6905C37.4795 34.6501 37.4831 34.6098 37.485 34.5694C37.4868 34.5308 37.4905 34.4923 37.4923 34.4556C37.4941 34.4317 37.4941 34.4097 37.4978 34.3859C37.4978 34.3712 37.5033 34.3565 37.5033 34.3418C37.5143 34.2409 37.529 34.1418 37.5455 34.0445C37.551 34.0188 37.5565 33.9913 37.562 33.9656C37.5786 33.8867 37.5969 33.8096 37.6171 33.7325C37.6263 33.7013 37.6336 33.6701 37.6428 33.6389C37.6703 33.5416 37.7034 33.4462 37.7382 33.3526C37.7437 33.3361 37.7511 33.3214 37.7566 33.3049C37.7933 33.2095 37.8355 33.114 37.8795 33.0223C37.8814 33.0168 37.8832 33.0131 37.8869 33.0076C38.2961 32.1615 38.9825 31.4733 39.8304 31.0659C39.8359 31.0622 39.8414 31.0604 39.8488 31.0585C39.9424 31.0145 40.0378 30.9723 40.1351 30.9356C40.1479 30.9301 40.1608 30.9246 40.1736 30.9191C40.2672 30.8842 40.3645 30.853 40.4599 30.8236C40.4911 30.8145 40.5223 30.8071 40.5535 30.7979C40.6324 30.7759 40.7132 30.7576 40.7939 30.741C40.8215 30.7355 40.849 30.73 40.8765 30.7245C40.9701 30.708 41.0655 30.6933 41.1628 30.6842C41.1775 30.6842 41.194 30.6786 41.2087 30.6768C41.2307 30.675 41.2527 30.675 41.2729 30.6731C41.3115 30.6695 41.35 30.6676 41.3885 30.6658C41.4289 30.664 41.4693 30.6621 41.5097 30.6603C41.55 30.6603 41.5904 30.6603 41.6308 30.6603C41.6712 30.6603 41.7116 30.6603 41.7519 30.6603C41.7923 30.6603 41.8327 30.664 41.8731 30.6658C41.9116 30.6676 41.9501 30.6713 41.9887 30.6731C42.0107 30.6731 42.0327 30.675 42.0529 30.6768C42.0694 30.6768 42.0841 30.6823 42.0988 30.6842C42.1942 30.6952 42.2897 30.708 42.3851 30.7245C42.4126 30.73 42.4401 30.7355 42.4677 30.741C42.5484 30.7576 42.6292 30.7759 42.7081 30.7979C42.7393 30.8071 42.7705 30.8145 42.8017 30.8236C42.899 30.853 42.9944 30.8842 43.088 30.9191C43.1008 30.9246 43.1137 30.9301 43.1265 30.9356C43.2238 30.9723 43.3192 31.0145 43.4128 31.0585C43.4183 31.0622 43.4238 31.064 43.4312 31.0659C44.2791 31.4733 44.9655 32.1615 45.3747 33.0076C45.3765 33.0131 45.3784 33.0168 45.3821 33.0223C45.4261 33.114 45.4665 33.2095 45.505 33.3049C45.5105 33.3214 45.5179 33.3361 45.5234 33.3526C45.5582 33.4462 45.5894 33.5416 45.6188 33.6389C45.628 33.6701 45.6353 33.7013 45.6445 33.7325C45.6647 33.8096 45.683 33.8867 45.6996 33.9656C45.7051 33.9913 45.7124 34.0188 45.7161 34.0445C45.7344 34.1418 45.7473 34.2409 45.7583 34.3418C45.7583 34.3565 45.7638 34.3712 45.7638 34.3859C45.7656 34.4097 45.7675 34.4317 45.7693 34.4556C45.773 34.4941 45.7748 34.5327 45.7766 34.5694C45.7785 34.6098 45.7803 34.6501 45.7821 34.6905C45.7821 34.7309 45.7821 34.7713 45.7821 34.8116C45.7821 34.852 45.7821 34.8924 45.7821 34.9328L45.7766 34.9346Z" fill="url(#paint76_linear_196_6838)" fill-opacity="0.2"/>
<path d="M41.6235 21.629C34.1907 21.629 28.1949 27.779 28.4463 35.2668C28.6849 42.3949 34.6513 47.9979 41.7831 47.9979H54.8061V21.629H41.6216H41.6235ZM45.7766 34.9346C45.7766 34.975 45.773 35.0153 45.7711 35.0557C45.7693 35.0943 45.7656 35.1328 45.7638 35.1695C45.762 35.1934 45.762 35.2154 45.7583 35.2392C45.7583 35.2539 45.7528 35.2686 45.7528 35.2833C45.7418 35.3824 45.7271 35.4833 45.7106 35.5806C45.7051 35.6081 45.6996 35.6338 45.694 35.6595C45.6775 35.7384 45.6592 35.8155 45.639 35.8908C45.6298 35.922 45.6225 35.955 45.6133 35.9862C45.5858 36.0816 45.5546 36.1771 45.5197 36.2707C45.5124 36.2872 45.5069 36.3037 45.4995 36.322C45.4628 36.4156 45.4224 36.5092 45.3802 36.5992C45.3765 36.6065 45.3747 36.6138 45.371 36.6194C44.9618 37.4654 44.2772 38.1499 43.4312 38.5592C43.4238 38.5629 43.4165 38.5666 43.4073 38.5702C43.3156 38.6143 43.2238 38.6546 43.1284 38.6913C43.1137 38.6969 43.099 38.7042 43.0843 38.7097C42.9907 38.7446 42.8953 38.7758 42.7999 38.8051C42.7687 38.8143 42.7375 38.8235 42.7044 38.8308C42.6255 38.851 42.5466 38.8712 42.4658 38.8877C42.4383 38.8932 42.4108 38.9006 42.3833 38.9042C42.2878 38.9208 42.1924 38.9354 42.097 38.9464C42.0823 38.9464 42.0658 38.952 42.0511 38.9538C42.029 38.9556 42.007 38.9575 41.985 38.9593C41.9465 38.963 41.9079 38.9648 41.8694 38.9666C41.829 38.9685 41.7886 38.9703 41.7483 38.9721C41.7079 38.9721 41.6675 38.9721 41.6271 38.9721C41.5868 38.9721 41.5464 38.9721 41.506 38.9721C41.4656 38.9721 41.4253 38.9685 41.3849 38.9666C41.3463 38.9648 41.3078 38.9611 41.2693 38.9593C41.2472 38.9593 41.2252 38.9575 41.2032 38.9538C41.1885 38.9538 41.172 38.9483 41.1573 38.9464C41.06 38.9354 40.9646 38.9226 40.871 38.9042C40.8435 38.8987 40.8159 38.8932 40.7884 38.8877C40.7077 38.8712 40.6288 38.8528 40.5498 38.8308C40.5186 38.8217 40.4856 38.8143 40.4544 38.8051C40.3571 38.7776 40.2635 38.7464 40.1699 38.7097C40.1553 38.7042 40.1406 38.6987 40.1259 38.6913C40.0305 38.6546 39.9387 38.6143 39.8469 38.5702C39.8396 38.5666 39.8323 38.5629 39.8249 38.5592C38.9789 38.1518 38.2925 37.4654 37.8851 36.6194C37.8814 36.612 37.8795 36.6047 37.8759 36.5992C37.8318 36.5092 37.7933 36.4156 37.7566 36.322C37.7492 36.3055 37.7419 36.289 37.7364 36.2707C37.7015 36.1771 37.6703 36.0835 37.6428 35.9862C37.6336 35.955 37.6244 35.922 37.6171 35.8908C37.5969 35.8137 37.5786 35.7366 37.562 35.6595C37.5565 35.632 37.5492 35.6063 37.5455 35.5788C37.5272 35.4815 37.5143 35.3824 37.5033 35.2815C37.5033 35.2668 37.4978 35.2521 37.4978 35.2374C37.496 35.2135 37.4941 35.1915 37.4923 35.1677C37.4886 35.1291 37.4868 35.0906 37.485 35.0539C37.4831 35.0135 37.4813 34.9731 37.4795 34.9328C37.4795 34.8924 37.4795 34.852 37.4795 34.8116C37.4795 34.7713 37.4795 34.7309 37.4795 34.6905C37.4795 34.6501 37.4831 34.6098 37.485 34.5694C37.4868 34.5308 37.4905 34.4923 37.4923 34.4556C37.4941 34.4317 37.4941 34.4097 37.4978 34.3859C37.4978 34.3712 37.5033 34.3565 37.5033 34.3418C37.5143 34.2409 37.529 34.1418 37.5455 34.0445C37.551 34.0188 37.5565 33.9913 37.562 33.9656C37.5786 33.8867 37.5969 33.8096 37.6171 33.7325C37.6263 33.7013 37.6336 33.6701 37.6428 33.6389C37.6703 33.5416 37.7034 33.4462 37.7382 33.3526C37.7437 33.3361 37.7511 33.3214 37.7566 33.3049C37.7933 33.2095 37.8355 33.114 37.8795 33.0223C37.8814 33.0168 37.8832 33.0131 37.8869 33.0076C38.2961 32.1615 38.9825 31.4733 39.8304 31.0659C39.8359 31.0622 39.8414 31.0604 39.8488 31.0585C39.9424 31.0145 40.0378 30.9723 40.1351 30.9356C40.1479 30.9301 40.1608 30.9246 40.1736 30.9191C40.2672 30.8842 40.3645 30.853 40.4599 30.8236C40.4911 30.8145 40.5223 30.8071 40.5535 30.7979C40.6324 30.7759 40.7132 30.7576 40.7939 30.741C40.8215 30.7355 40.849 30.73 40.8765 30.7245C40.9701 30.708 41.0655 30.6933 41.1628 30.6842C41.1775 30.6842 41.194 30.6786 41.2087 30.6768C41.2307 30.675 41.2527 30.675 41.2729 30.6731C41.3115 30.6695 41.35 30.6676 41.3885 30.6658C41.4289 30.664 41.4693 30.6621 41.5097 30.6603C41.55 30.6603 41.5904 30.6603 41.6308 30.6603C41.6712 30.6603 41.7116 30.6603 41.7519 30.6603C41.7923 30.6603 41.8327 30.664 41.8731 30.6658C41.9116 30.6676 41.9501 30.6713 41.9887 30.6731C42.0107 30.6731 42.0327 30.675 42.0529 30.6768C42.0694 30.6768 42.0841 30.6823 42.0988 30.6842C42.1942 30.6952 42.2897 30.708 42.3851 30.7245C42.4126 30.73 42.4401 30.7355 42.4677 30.741C42.5484 30.7576 42.6292 30.7759 42.7081 30.7979C42.7393 30.8071 42.7705 30.8145 42.8017 30.8236C42.899 30.853 42.9944 30.8842 43.088 30.9191C43.1008 30.9246 43.1137 30.9301 43.1265 30.9356C43.2238 30.9723 43.3192 31.0145 43.4128 31.0585C43.4183 31.0622 43.4238 31.064 43.4312 31.0659C44.2791 31.4733 44.9655 32.1615 45.3747 33.0076C45.3765 33.0131 45.3784 33.0168 45.3821 33.0223C45.4261 33.114 45.4665 33.2095 45.505 33.3049C45.5105 33.3214 45.5179 33.3361 45.5234 33.3526C45.5582 33.4462 45.5894 33.5416 45.6188 33.6389C45.628 33.6701 45.6353 33.7013 45.6445 33.7325C45.6647 33.8096 45.683 33.8867 45.6996 33.9656C45.7051 33.9913 45.7124 34.0188 45.7161 34.0445C45.7344 34.1418 45.7473 34.2409 45.7583 34.3418C45.7583 34.3565 45.7638 34.3712 45.7638 34.3859C45.7656 34.4097 45.7675 34.4317 45.7693 34.4556C45.773 34.4941 45.7748 34.5327 45.7766 34.5694C45.7785 34.6098 45.7803 34.6501 45.7821 34.6905C45.7821 34.7309 45.7821 34.7713 45.7821 34.8116C45.7821 34.852 45.7821 34.8924 45.7821 34.9328L45.7766 34.9346Z" fill="url(#paint77_linear_196_6838)" fill-opacity="0.19"/>
<path d="M40.5454 38.8306C40.5145 38.8215 40.4818 38.8143 40.4509 38.8052C40.4818 38.8143 40.5127 38.8234 40.5454 38.8306Z" fill="#FF4FF8"/>
<path d="M40.5454 38.8306C40.5145 38.8215 40.4818 38.8143 40.4509 38.8052C40.4818 38.8143 40.5127 38.8234 40.5454 38.8306Z" fill="url(#paint78_linear_196_6838)" fill-opacity="0.2"/>
<path d="M40.5454 38.8306C40.5145 38.8215 40.4818 38.8143 40.4509 38.8052C40.4818 38.8143 40.5127 38.8234 40.5454 38.8306Z" fill="url(#paint79_linear_196_6838)" fill-opacity="0.19"/>
<path d="M41.2014 38.952C41.2234 38.9539 41.2454 38.9557 41.2675 38.9575C41.2308 38.9539 41.1922 38.9502 41.1555 38.9465C41.1702 38.9465 41.1867 38.952 41.2014 38.9539V38.952Z" fill="#FF4FF8"/>
<path d="M41.2014 38.952C41.2234 38.9539 41.2454 38.9557 41.2675 38.9575C41.2308 38.9539 41.1922 38.9502 41.1555 38.9465C41.1702 38.9465 41.1867 38.952 41.2014 38.9539V38.952Z" fill="url(#paint80_linear_196_6838)" fill-opacity="0.2"/>
<path d="M41.2014 38.952C41.2234 38.9539 41.2454 38.9557 41.2675 38.9575C41.2308 38.9539 41.1922 38.9502 41.1555 38.9465C41.1702 38.9465 41.1867 38.952 41.2014 38.9539V38.952Z" fill="url(#paint81_linear_196_6838)" fill-opacity="0.19"/>
<path d="M40.8669 38.9044C40.8397 38.899 40.8124 38.8935 40.7852 38.8881C40.8124 38.8935 40.8397 38.9008 40.8669 38.9044Z" fill="#FF4FF8"/>
<path d="M40.8669 38.9044C40.8397 38.899 40.8124 38.8935 40.7852 38.8881C40.8124 38.8935 40.8397 38.9008 40.8669 38.9044Z" fill="url(#paint82_linear_196_6838)" fill-opacity="0.2"/>
<path d="M40.8669 38.9044C40.8397 38.899 40.8124 38.8935 40.7852 38.8881C40.8124 38.8935 40.8397 38.9008 40.8669 38.9044Z" fill="url(#paint83_linear_196_6838)" fill-opacity="0.19"/>
<path d="M45.4958 36.3239C45.4591 36.4175 45.4187 36.511 45.3765 36.601C45.4205 36.511 45.4591 36.4175 45.4958 36.3239Z" fill="#FF4FF8"/>
<path d="M45.4958 36.3239C45.4591 36.4175 45.4187 36.511 45.3765 36.601C45.4205 36.511 45.4591 36.4175 45.4958 36.3239Z" fill="url(#paint84_linear_196_6838)" fill-opacity="0.2"/>
<path d="M45.4958 36.3239C45.4591 36.4175 45.4187 36.511 45.3765 36.601C45.4205 36.511 45.4591 36.4175 45.4958 36.3239Z" fill="url(#paint85_linear_196_6838)" fill-opacity="0.19"/>
<path d="M45.6114 35.988C45.5839 36.0835 45.5527 36.1789 45.5178 36.2725C45.5527 36.1789 45.5839 36.0853 45.6114 35.988Z" fill="#FF4FF8"/>
<path d="M45.6114 35.988C45.5839 36.0835 45.5527 36.1789 45.5178 36.2725C45.5527 36.1789 45.5839 36.0853 45.6114 35.988Z" fill="url(#paint86_linear_196_6838)" fill-opacity="0.2"/>
<path d="M45.6114 35.988C45.5839 36.0835 45.5527 36.1789 45.5178 36.2725C45.5527 36.1789 45.5839 36.0853 45.6114 35.988Z" fill="url(#paint87_linear_196_6838)" fill-opacity="0.19"/>
<path d="M45.7529 35.2849C45.7419 35.384 45.7272 35.485 45.7107 35.5822C45.729 35.485 45.7419 35.3859 45.7529 35.2849Z" fill="#FF4FF8"/>
<path d="M45.7529 35.2849C45.7419 35.384 45.7272 35.485 45.7107 35.5822C45.729 35.485 45.7419 35.3859 45.7529 35.2849Z" fill="url(#paint88_linear_196_6838)" fill-opacity="0.2"/>
<path d="M45.7529 35.2849C45.7419 35.384 45.7272 35.485 45.7107 35.5822C45.729 35.485 45.7419 35.3859 45.7529 35.2849Z" fill="url(#paint89_linear_196_6838)" fill-opacity="0.19"/>
<path d="M45.6923 35.6611C45.6757 35.7382 45.6574 35.8171 45.6372 35.8924C45.6574 35.8153 45.6757 35.7382 45.6923 35.6611Z" fill="#FF4FF8"/>
<path d="M45.6923 35.6611C45.6757 35.7382 45.6574 35.8171 45.6372 35.8924C45.6574 35.8153 45.6757 35.7382 45.6923 35.6611Z" fill="url(#paint90_linear_196_6838)" fill-opacity="0.2"/>
<path d="M45.6923 35.6611C45.6757 35.7382 45.6574 35.8171 45.6372 35.8924C45.6574 35.8153 45.6757 35.7382 45.6923 35.6611Z" fill="url(#paint91_linear_196_6838)" fill-opacity="0.19"/>
<path d="M45.7727 35.0559C45.7709 35.0944 45.7672 35.133 45.7654 35.1697C45.7691 35.1312 45.7709 35.0926 45.7727 35.0559Z" fill="#FF4FF8"/>
<path d="M45.7727 35.0559C45.7709 35.0944 45.7672 35.133 45.7654 35.1697C45.7691 35.1312 45.7709 35.0926 45.7727 35.0559Z" fill="url(#paint92_linear_196_6838)" fill-opacity="0.2"/>
<path d="M45.7727 35.0559C45.7709 35.0944 45.7672 35.133 45.7654 35.1697C45.7691 35.1312 45.7709 35.0926 45.7727 35.0559Z" fill="url(#paint93_linear_196_6838)" fill-opacity="0.19"/>
<path d="M43.4035 38.572C43.3117 38.6161 43.2181 38.6546 43.1245 38.6931C43.2199 38.6564 43.3117 38.6161 43.4035 38.572Z" fill="#FF4FF8"/>
<path d="M43.4035 38.572C43.3117 38.6161 43.2181 38.6546 43.1245 38.6931C43.2199 38.6564 43.3117 38.6161 43.4035 38.572Z" fill="url(#paint94_linear_196_6838)" fill-opacity="0.2"/>
<path d="M43.4035 38.572C43.3117 38.6161 43.2181 38.6546 43.1245 38.6931C43.2199 38.6564 43.3117 38.6161 43.4035 38.572Z" fill="url(#paint95_linear_196_6838)" fill-opacity="0.19"/>
<path d="M41.9818 38.9558C41.9433 38.9595 41.9048 38.9613 41.8662 38.9632C41.9048 38.9613 41.9433 38.9576 41.9818 38.9558Z" fill="#FF4FF8"/>
<path d="M41.9818 38.9558C41.9433 38.9595 41.9048 38.9613 41.8662 38.9632C41.9048 38.9613 41.9433 38.9576 41.9818 38.9558Z" fill="url(#paint96_linear_196_6838)" fill-opacity="0.2"/>
<path d="M41.9818 38.9558C41.9433 38.9595 41.9048 38.9613 41.8662 38.9632C41.9048 38.9613 41.9433 38.9576 41.9818 38.9558Z" fill="url(#paint97_linear_196_6838)" fill-opacity="0.19"/>
<path d="M42.3793 38.9043C42.2839 38.9208 42.1885 38.9355 42.093 38.9465C42.1903 38.9355 42.2857 38.9226 42.3793 38.9043Z" fill="#FF4FF8"/>
<path d="M42.3793 38.9043C42.2839 38.9208 42.1885 38.9355 42.093 38.9465C42.1903 38.9355 42.2857 38.9226 42.3793 38.9043Z" fill="url(#paint98_linear_196_6838)" fill-opacity="0.2"/>
<path d="M42.3793 38.9043C42.2839 38.9208 42.1885 38.9355 42.093 38.9465C42.1903 38.9355 42.2857 38.9226 42.3793 38.9043Z" fill="url(#paint99_linear_196_6838)" fill-opacity="0.19"/>
<path d="M41.5022 38.9703C41.4619 38.9703 41.4215 38.9667 41.3811 38.9648C41.4215 38.9667 41.4619 38.9685 41.5022 38.9703Z" fill="#FF4FF8"/>
<path d="M41.5022 38.9703C41.4619 38.9703 41.4215 38.9667 41.3811 38.9648C41.4215 38.9667 41.4619 38.9685 41.5022 38.9703Z" fill="url(#paint100_linear_196_6838)" fill-opacity="0.2"/>
<path d="M41.5022 38.9703C41.4619 38.9703 41.4215 38.9667 41.3811 38.9648C41.4215 38.9667 41.4619 38.9685 41.5022 38.9703Z" fill="url(#paint101_linear_196_6838)" fill-opacity="0.19"/>
<path d="M43.0801 38.7098C42.9865 38.7447 42.8911 38.7759 42.7957 38.8053C42.8929 38.7777 42.9865 38.7465 43.0801 38.7098Z" fill="#FF4FF8"/>
<path d="M43.0801 38.7098C42.9865 38.7447 42.8911 38.7759 42.7957 38.8053C42.8929 38.7777 42.9865 38.7465 43.0801 38.7098Z" fill="url(#paint102_linear_196_6838)" fill-opacity="0.2"/>
<path d="M43.0801 38.7098C42.9865 38.7447 42.8911 38.7759 42.7957 38.8053C42.8929 38.7777 42.9865 38.7465 43.0801 38.7098Z" fill="url(#paint103_linear_196_6838)" fill-opacity="0.19"/>
<path d="M37.5547 35.6609C37.5492 35.6336 37.542 35.6082 37.5383 35.5809C37.5438 35.6082 37.5492 35.6336 37.5547 35.6609Z" fill="#FF4FF8"/>
<path d="M37.5547 35.6609C37.5492 35.6336 37.542 35.6082 37.5383 35.5809C37.5438 35.6082 37.5492 35.6336 37.5547 35.6609Z" fill="url(#paint104_linear_196_6838)" fill-opacity="0.2"/>
<path d="M37.5547 35.6609C37.5492 35.6336 37.542 35.6082 37.5383 35.5809C37.5438 35.6082 37.5492 35.6336 37.5547 35.6609Z" fill="url(#paint105_linear_196_6838)" fill-opacity="0.19"/>
<path d="M43.4072 31.0607C43.4072 31.0607 43.4181 31.0661 43.4253 31.0679C43.4199 31.0643 43.4145 31.0625 43.4072 31.0607Z" fill="#FF4FF8"/>
<path d="M43.4072 31.0607C43.4072 31.0607 43.4181 31.0661 43.4253 31.0679C43.4199 31.0643 43.4145 31.0625 43.4072 31.0607Z" fill="url(#paint106_linear_196_6838)" fill-opacity="0.2"/>
<path d="M43.4072 31.0607C43.4072 31.0607 43.4181 31.0661 43.4253 31.0679C43.4199 31.0643 43.4145 31.0625 43.4072 31.0607Z" fill="url(#paint107_linear_196_6838)" fill-opacity="0.19"/>
<path d="M45.3691 33.0094C45.3691 33.0094 45.3729 33.0188 45.3767 33.0245C45.3748 33.0188 45.3729 33.0151 45.3691 33.0094Z" fill="#FF4FF8"/>
<path d="M45.3691 33.0094C45.3691 33.0094 45.3729 33.0188 45.3767 33.0245C45.3748 33.0188 45.3729 33.0151 45.3691 33.0094Z" fill="url(#paint108_linear_196_6838)" fill-opacity="0.2"/>
<path d="M45.3691 33.0094C45.3691 33.0094 45.3729 33.0188 45.3767 33.0245C45.3748 33.0188 45.3729 33.0151 45.3691 33.0094Z" fill="url(#paint109_linear_196_6838)" fill-opacity="0.19"/>
<path d="M41.2676 30.6732C41.3061 30.6696 41.3447 30.6677 41.3832 30.6659C41.3447 30.6677 41.3061 30.6714 41.2676 30.6732Z" fill="#FF4FF8"/>
<path d="M41.2676 30.6732C41.3061 30.6696 41.3447 30.6677 41.3832 30.6659C41.3447 30.6677 41.3061 30.6714 41.2676 30.6732Z" fill="url(#paint110_linear_196_6838)" fill-opacity="0.2"/>
<path d="M41.2676 30.6732C41.3061 30.6696 41.3447 30.6677 41.3832 30.6659C41.3447 30.6677 41.3061 30.6714 41.2676 30.6732Z" fill="url(#paint111_linear_196_6838)" fill-opacity="0.19"/>
<path d="M41.7444 30.6605C41.7848 30.6605 41.8251 30.6642 41.8655 30.666C41.8251 30.6642 41.7848 30.6624 41.7444 30.6605Z" fill="#FF4FF8"/>
<path d="M41.7444 30.6605C41.7848 30.6605 41.8251 30.6642 41.8655 30.666C41.8251 30.6642 41.7848 30.6624 41.7444 30.6605Z" fill="url(#paint112_linear_196_6838)" fill-opacity="0.2"/>
<path d="M41.7444 30.6605C41.7848 30.6605 41.8251 30.6642 41.8655 30.666C41.8251 30.6642 41.7848 30.6624 41.7444 30.6605Z" fill="url(#paint113_linear_196_6838)" fill-opacity="0.19"/>
<path d="M42.0454 30.6785C42.0234 30.6766 42.0014 30.6766 41.9812 30.6748C42.0179 30.6785 42.0564 30.6821 42.0932 30.6858C42.0785 30.6858 42.062 30.6803 42.0473 30.6785H42.0454Z" fill="#FF4FF8"/>
<path d="M42.0454 30.6785C42.0234 30.6766 42.0014 30.6766 41.9812 30.6748C42.0179 30.6785 42.0564 30.6821 42.0932 30.6858C42.0785 30.6858 42.062 30.6803 42.0473 30.6785H42.0454Z" fill="url(#paint114_linear_196_6838)" fill-opacity="0.2"/>
<path d="M42.0454 30.6785C42.0234 30.6766 42.0014 30.6766 41.9812 30.6748C42.0179 30.6785 42.0564 30.6821 42.0932 30.6858C42.0785 30.6858 42.062 30.6803 42.0473 30.6785H42.0454Z" fill="url(#paint115_linear_196_6838)" fill-opacity="0.19"/>
<path d="M45.7729 34.5712C45.7748 34.6115 45.7766 34.6519 45.7785 34.6923C45.7785 34.6519 45.7748 34.6115 45.7729 34.5712Z" fill="#FF4FF8"/>
<path d="M45.7729 34.5712C45.7748 34.6115 45.7766 34.6519 45.7785 34.6923C45.7785 34.6519 45.7748 34.6115 45.7729 34.5712Z" fill="url(#paint116_linear_196_6838)" fill-opacity="0.2"/>
<path d="M45.7729 34.5712C45.7748 34.6115 45.7766 34.6519 45.7785 34.6923C45.7785 34.6519 45.7748 34.6115 45.7729 34.5712Z" fill="url(#paint117_linear_196_6838)" fill-opacity="0.19"/>
<path d="M39.821 31.0676C38.9731 31.4751 38.2867 32.1633 37.8774 33.0093C38.2867 32.1651 38.9768 31.4769 39.821 31.0676Z" fill="#FF4FF8"/>
<path d="M39.821 31.0676C38.9731 31.4751 38.2867 32.1633 37.8774 33.0093C38.2867 32.1651 38.9768 31.4769 39.821 31.0676Z" fill="url(#paint118_linear_196_6838)" fill-opacity="0.2"/>
<path d="M39.821 31.0676C38.9731 31.4751 38.2867 32.1633 37.8774 33.0093C38.2867 32.1651 38.9768 31.4769 39.821 31.0676Z" fill="url(#paint119_linear_196_6838)" fill-opacity="0.19"/>
<path d="M43.4275 38.5612C44.2735 38.1538 44.9599 37.4674 45.3674 36.6213C44.9581 37.4637 44.2699 38.1519 43.4275 38.5612Z" fill="#FF4FF8"/>
<path d="M43.4275 38.5612C44.2735 38.1538 44.9599 37.4674 45.3674 36.6213C44.9581 37.4637 44.2699 38.1519 43.4275 38.5612Z" fill="url(#paint120_linear_196_6838)" fill-opacity="0.2"/>
<path d="M43.4275 38.5612C44.2735 38.1538 44.9599 37.4674 45.3674 36.6213C44.9581 37.4637 44.2699 38.1519 43.4275 38.5612Z" fill="url(#paint121_linear_196_6838)" fill-opacity="0.19"/>
<path d="M45.7579 34.3874C45.7579 34.3727 45.7524 34.3581 45.7524 34.3434C45.7561 34.3819 45.7598 34.4186 45.7635 34.4572C45.7616 34.4333 45.7616 34.4113 45.7579 34.3874Z" fill="#FF4FF8"/>
<path d="M45.7579 34.3874C45.7579 34.3727 45.7524 34.3581 45.7524 34.3434C45.7561 34.3819 45.7598 34.4186 45.7635 34.4572C45.7616 34.4333 45.7616 34.4113 45.7579 34.3874Z" fill="url(#paint122_linear_196_6838)" fill-opacity="0.2"/>
<path d="M45.7579 34.3874C45.7579 34.3727 45.7524 34.3581 45.7524 34.3434C45.7561 34.3819 45.7598 34.4186 45.7635 34.4572C45.7616 34.4333 45.7616 34.4113 45.7579 34.3874Z" fill="url(#paint123_linear_196_6838)" fill-opacity="0.19"/>
<path d="M45.6921 33.9677C45.6976 33.9931 45.7049 34.0204 45.7085 34.0458C45.703 34.0185 45.6976 33.9931 45.6921 33.9677Z" fill="#FF4FF8"/>
<path d="M45.6921 33.9677C45.6976 33.9931 45.7049 34.0204 45.7085 34.0458C45.703 34.0185 45.6976 33.9931 45.6921 33.9677Z" fill="url(#paint124_linear_196_6838)" fill-opacity="0.2"/>
<path d="M45.6921 33.9677C45.6976 33.9931 45.7049 34.0204 45.7085 34.0458C45.703 34.0185 45.6976 33.9931 45.6921 33.9677Z" fill="url(#paint125_linear_196_6838)" fill-opacity="0.19"/>
<path d="M40.1668 38.7102C40.1519 38.7046 40.137 38.699 40.1221 38.6915C40.137 38.6971 40.1519 38.7046 40.1668 38.7102Z" fill="#FF4FF8"/>
<path d="M40.1668 38.7102C40.1519 38.7046 40.137 38.699 40.1221 38.6915C40.137 38.6971 40.1519 38.7046 40.1668 38.7102Z" fill="url(#paint126_linear_196_6838)" fill-opacity="0.2"/>
<path d="M40.1668 38.7102C40.1519 38.7046 40.137 38.699 40.1221 38.6915C40.137 38.6971 40.1519 38.7046 40.1668 38.7102Z" fill="url(#paint127_linear_196_6838)" fill-opacity="0.19"/>
<path d="M37.4887 35.2411C37.4887 35.2558 37.4942 35.2705 37.4942 35.2852C37.4905 35.2466 37.4868 35.2099 37.4832 35.1714C37.485 35.1952 37.485 35.2173 37.4887 35.2411Z" fill="#FF4FF8"/>
<path d="M37.4887 35.2411C37.4887 35.2558 37.4942 35.2705 37.4942 35.2852C37.4905 35.2466 37.4868 35.2099 37.4832 35.1714C37.485 35.1952 37.485 35.2173 37.4887 35.2411Z" fill="url(#paint128_linear_196_6838)" fill-opacity="0.2"/>
<path d="M37.4887 35.2411C37.4887 35.2558 37.4942 35.2705 37.4942 35.2852C37.4905 35.2466 37.4868 35.2099 37.4832 35.1714C37.485 35.1952 37.485 35.2173 37.4887 35.2411Z" fill="url(#paint129_linear_196_6838)" fill-opacity="0.19"/>
<path d="M37.6351 35.987C37.626 35.9561 37.6169 35.9234 37.6096 35.8925C37.6187 35.9234 37.626 35.9561 37.6351 35.987Z" fill="#FF4FF8"/>
<path d="M37.6351 35.987C37.626 35.9561 37.6169 35.9234 37.6096 35.8925C37.6187 35.9234 37.626 35.9561 37.6351 35.987Z" fill="url(#paint130_linear_196_6838)" fill-opacity="0.2"/>
<path d="M37.6351 35.987C37.626 35.9561 37.6169 35.9234 37.6096 35.8925C37.6187 35.9234 37.626 35.9561 37.6351 35.987Z" fill="url(#paint131_linear_196_6838)" fill-opacity="0.19"/>
<path d="M37.4757 35.0556C37.4739 35.0152 37.4721 34.9748 37.4702 34.9344C37.4702 34.9748 37.4739 35.0152 37.4757 35.0556Z" fill="#FF4FF8"/>
<path d="M37.4757 35.0556C37.4739 35.0152 37.4721 34.9748 37.4702 34.9344C37.4702 34.9748 37.4739 35.0152 37.4757 35.0556Z" fill="url(#paint132_linear_196_6838)" fill-opacity="0.2"/>
<path d="M37.4757 35.0556C37.4739 35.0152 37.4721 34.9748 37.4702 34.9344C37.4702 34.9748 37.4739 35.0152 37.4757 35.0556Z" fill="url(#paint133_linear_196_6838)" fill-opacity="0.19"/>
<path d="M37.4758 34.5713C37.4777 34.5328 37.4813 34.4942 37.4832 34.4575C37.4795 34.4961 37.4777 34.5346 37.4758 34.5713Z" fill="#FF4FF8"/>
<path d="M37.4758 34.5713C37.4777 34.5328 37.4813 34.4942 37.4832 34.4575C37.4795 34.4961 37.4777 34.5346 37.4758 34.5713Z" fill="url(#paint134_linear_196_6838)" fill-opacity="0.2"/>
<path d="M37.4758 34.5713C37.4777 34.5328 37.4813 34.4942 37.4832 34.4575C37.4795 34.4961 37.4777 34.5346 37.4758 34.5713Z" fill="url(#paint135_linear_196_6838)" fill-opacity="0.19"/>
<path d="M39.8426 38.5713C39.8426 38.5713 39.8282 38.5641 39.821 38.5605C39.8282 38.5641 39.8354 38.5677 39.8426 38.5713Z" fill="#FF4FF8"/>
<path d="M39.8426 38.5713C39.8426 38.5713 39.8282 38.5641 39.821 38.5605C39.8282 38.5641 39.8354 38.5677 39.8426 38.5713Z" fill="url(#paint136_linear_196_6838)" fill-opacity="0.2"/>
<path d="M39.8426 38.5713C39.8426 38.5713 39.8282 38.5641 39.821 38.5605C39.8282 38.5641 39.8354 38.5677 39.8426 38.5713Z" fill="url(#paint137_linear_196_6838)" fill-opacity="0.19"/>
<path d="M37.7511 36.3239C37.7438 36.3074 37.7365 36.2909 37.731 36.2726C37.7383 36.2891 37.7438 36.3055 37.7511 36.3239Z" fill="#FF4FF8"/>
<path d="M37.7511 36.3239C37.7438 36.3074 37.7365 36.2909 37.731 36.2726C37.7383 36.2891 37.7438 36.3055 37.7511 36.3239Z" fill="url(#paint138_linear_196_6838)" fill-opacity="0.2"/>
<path d="M37.7511 36.3239C37.7438 36.3074 37.7365 36.2909 37.731 36.2726C37.7383 36.2891 37.7438 36.3055 37.7511 36.3239Z" fill="url(#paint139_linear_196_6838)" fill-opacity="0.19"/>
<path d="M37.8792 36.6204C37.8792 36.6204 37.8739 36.6063 37.8704 36.6011C37.8739 36.6081 37.8756 36.6151 37.8792 36.6204Z" fill="#FF4FF8"/>
<path d="M37.8792 36.6204C37.8792 36.6204 37.8739 36.6063 37.8704 36.6011C37.8739 36.6081 37.8756 36.6151 37.8792 36.6204Z" fill="url(#paint140_linear_196_6838)" fill-opacity="0.2"/>
<path d="M37.8792 36.6204C37.8792 36.6204 37.8739 36.6063 37.8704 36.6011C37.8739 36.6081 37.8756 36.6151 37.8792 36.6204Z" fill="url(#paint141_linear_196_6838)" fill-opacity="0.19"/>
<path d="M37.7488 33.3085C37.7855 33.2131 37.8259 33.1176 37.8717 33.0259C37.8277 33.1176 37.7873 33.2131 37.7488 33.3085Z" fill="#FF4FF8"/>
<path d="M37.7488 33.3085C37.7855 33.2131 37.8259 33.1176 37.8717 33.0259C37.8277 33.1176 37.7873 33.2131 37.7488 33.3085Z" fill="url(#paint142_linear_196_6838)" fill-opacity="0.2"/>
<path d="M37.7488 33.3085C37.7855 33.2131 37.8259 33.1176 37.8717 33.0259C37.8277 33.1176 37.7873 33.2131 37.7488 33.3085Z" fill="url(#paint143_linear_196_6838)" fill-opacity="0.19"/>
<path d="M40.1646 30.921C40.2581 30.8861 40.3554 30.8549 40.4508 30.8256C40.3536 30.8549 40.2581 30.8861 40.1646 30.921Z" fill="#FF4FF8"/>
<path d="M40.1646 30.921C40.2581 30.8861 40.3554 30.8549 40.4508 30.8256C40.3536 30.8549 40.2581 30.8861 40.1646 30.921Z" fill="url(#paint144_linear_196_6838)" fill-opacity="0.2"/>
<path d="M40.1646 30.921C40.2581 30.8861 40.3554 30.8549 40.4508 30.8256C40.3536 30.8549 40.2581 30.8861 40.1646 30.921Z" fill="url(#paint145_linear_196_6838)" fill-opacity="0.19"/>
<path d="M37.4939 34.3435C37.5049 34.2444 37.5196 34.1434 37.5361 34.0461C37.5178 34.1434 37.5049 34.2425 37.4939 34.3435Z" fill="#FF4FF8"/>
<path d="M37.4939 34.3435C37.5049 34.2444 37.5196 34.1434 37.5361 34.0461C37.5178 34.1434 37.5049 34.2425 37.4939 34.3435Z" fill="url(#paint146_linear_196_6838)" fill-opacity="0.2"/>
<path d="M37.4939 34.3435C37.5049 34.2444 37.5196 34.1434 37.5361 34.0461C37.5178 34.1434 37.5049 34.2425 37.4939 34.3435Z" fill="url(#paint147_linear_196_6838)" fill-opacity="0.19"/>
<path d="M40.8691 30.7265C40.9627 30.71 41.0582 30.6953 41.1554 30.6862C41.06 30.6972 40.9646 30.71 40.8691 30.7265Z" fill="#FF4FF8"/>
<path d="M40.8691 30.7265C40.9627 30.71 41.0582 30.6953 41.1554 30.6862C41.06 30.6972 40.9646 30.71 40.8691 30.7265Z" fill="url(#paint148_linear_196_6838)" fill-opacity="0.2"/>
<path d="M40.8691 30.7265C40.9627 30.71 41.0582 30.6953 41.1554 30.6862C41.06 30.6972 40.9646 30.71 40.8691 30.7265Z" fill="url(#paint149_linear_196_6838)" fill-opacity="0.19"/>
<path d="M84.1976 15.3325H71.0132V48H84.1976V15.3325Z" fill="#FF4FF8"/>
<path d="M84.1976 15.3325H71.0132V48H84.1976V15.3325Z" fill="url(#paint150_linear_196_6838)" fill-opacity="0.2"/>
<path d="M84.1976 15.3325H71.0132V48H84.1976V15.3325Z" fill="url(#paint151_linear_196_6838)" fill-opacity="0.19"/>
<path d="M86.6562 6.62438C86.6562 10.1627 89.5246 13.031 93.0629 13.031C96.6011 13.031 99.4695 10.1627 99.4695 6.62438C99.4695 3.08611 96.6011 0.217773 93.0629 0.217773C89.5246 0.217773 86.6562 3.08611 86.6562 6.62438Z" fill="#9050FF"/>
<path d="M86.6562 6.62438C86.6562 10.1627 89.5246 13.031 93.0629 13.031C96.6011 13.031 99.4695 10.1627 99.4695 6.62438C99.4695 3.08611 96.6011 0.217773 93.0629 0.217773C89.5246 0.217773 86.6562 3.08611 86.6562 6.62438Z" fill="url(#paint152_linear_196_6838)" fill-opacity="0.32"/>
<path d="M111.426 35.7662C111.189 42.3364 105.865 47.6953 99.3093 47.9853C99.1203 47.9945 98.9313 47.9981 98.7404 47.9981C91.9536 47.9981 86.4167 42.6447 86.1249 35.9295V29.174H75.084V15.3325H104.437C108.26 15.3325 111.358 18.4304 111.358 22.2532C111.358 26.0761 108.26 29.174 104.437 29.174H99.3093V34.1567H111.422C111.446 34.4044 111.426 35.7662 111.426 35.7662Z" fill="#FF4FF8"/>
<path d="M111.426 35.7662C111.189 42.3364 105.865 47.6953 99.3093 47.9853C99.1203 47.9945 98.9313 47.9981 98.7404 47.9981C91.9536 47.9981 86.4167 42.6447 86.1249 35.9295V29.174H75.084V15.3325H104.437C108.26 15.3325 111.358 18.4304 111.358 22.2532C111.358 26.0761 108.26 29.174 104.437 29.174H99.3093V34.1567H111.422C111.446 34.4044 111.426 35.7662 111.426 35.7662Z" fill="url(#paint153_linear_196_6838)" fill-opacity="0.2"/>
<path d="M111.426 35.7662C111.189 42.3364 105.865 47.6953 99.3093 47.9853C99.1203 47.9945 98.9313 47.9981 98.7404 47.9981C91.9536 47.9981 86.4167 42.6447 86.1249 35.9295V29.174H75.084V15.3325H104.437C108.26 15.3325 111.358 18.4304 111.358 22.2532C111.358 26.0761 108.26 29.174 104.437 29.174H99.3093V34.1567H111.422C111.446 34.4044 111.426 35.7662 111.426 35.7662Z" fill="url(#paint154_linear_196_6838)" fill-opacity="0.19"/>
<path d="M76.8336 13.3938C80.4774 13.3938 83.4313 10.4442 83.4313 6.80578C83.4313 3.16733 80.4774 0.217773 76.8336 0.217773C73.1898 0.217773 70.2358 3.16733 70.2358 6.80578C70.2358 10.4442 73.1898 13.3938 76.8336 13.3938Z" fill="#9050FF"/>
<path d="M76.8336 13.3938C80.4774 13.3938 83.4313 10.4442 83.4313 6.80578C83.4313 3.16733 80.4774 0.217773 76.8336 0.217773C73.1898 0.217773 70.2358 3.16733 70.2358 6.80578C70.2358 10.4442 73.1898 13.3938 76.8336 13.3938Z" fill="url(#paint155_linear_196_6838)" fill-opacity="0.36"/>
<path d="M13.1846 21.6328C13.2985 21.6286 27.1422 18.1074 28.377 29.1738C28.9679 34.4595 28.3145 47.998 28.3145 47.998H16.0723C16.0723 47.9938 16.0732 47.9896 16.0732 47.9854L16.0713 30.752C16.0712 29.9967 15.4593 29.3848 14.7041 29.3848C13.949 29.3849 13.337 29.9968 13.3369 30.752L13.3379 47.9854C13.3379 47.9896 13.3388 47.9938 13.3389 47.998H0V0H13.1846V21.6328Z" fill="#9050FF"/>
<path d="M13.1846 21.6328C13.2985 21.6286 27.1422 18.1074 28.377 29.1738C28.9679 34.4595 28.3145 47.998 28.3145 47.998H16.0723C16.0723 47.9938 16.0732 47.9896 16.0732 47.9854L16.0713 30.752C16.0712 29.9967 15.4593 29.3848 14.7041 29.3848C13.949 29.3849 13.337 29.9968 13.3369 30.752L13.3379 47.9854C13.3379 47.9896 13.3388 47.9938 13.3389 47.998H0V0H13.1846V21.6328Z" fill="url(#paint156_linear_196_6838)" fill-opacity="0.6"/>
<path d="M50.178 8.98206C53.386 8.01121 58.4704 8.9142 61.1077 12.6471C64.9064 18.0261 63.2122 22.8932 63.2122 22.8932C63.2122 22.8932 63.9502 21.5494 67.6262 21.5494L67.6243 21.5514C75.0239 21.5514 80.3018 27.5306 80.302 34.9283C80.302 42.3262 73.128 47.9991 66.6331 47.9606C64.4637 47.9477 59.3084 48.576 54.0579 45.1901C48.2181 41.4241 45.3167 32.7262 45.3167 32.7262C41.5876 24.0199 41.7069 11.5461 50.178 8.98206ZM65.179 30.6158C62.551 30.3571 60.3601 32.5486 60.6223 35.1783C60.8168 37.1236 62.3891 38.6964 64.3342 38.8893C66.9641 39.1499 69.1562 36.9547 68.8938 34.3248H68.8918C68.6989 32.3797 67.1241 30.8067 65.179 30.6158Z" fill="#9050FF"/>
<path d="M50.178 8.98206C53.386 8.01121 58.4704 8.9142 61.1077 12.6471C64.9064 18.0261 63.2122 22.8932 63.2122 22.8932C63.2122 22.8932 63.9502 21.5494 67.6262 21.5494L67.6243 21.5514C75.0239 21.5514 80.3018 27.5306 80.302 34.9283C80.302 42.3262 73.128 47.9991 66.6331 47.9606C64.4637 47.9477 59.3084 48.576 54.0579 45.1901C48.2181 41.4241 45.3167 32.7262 45.3167 32.7262C41.5876 24.0199 41.7069 11.5461 50.178 8.98206ZM65.179 30.6158C62.551 30.3571 60.3601 32.5486 60.6223 35.1783C60.8168 37.1236 62.3891 38.6964 64.3342 38.8893C66.9641 39.1499 69.1562 36.9547 68.8938 34.3248H68.8918C68.6989 32.3797 67.1241 30.8067 65.179 30.6158Z" fill="url(#paint157_linear_196_6838)" fill-opacity="0.46"/>
<defs>
<linearGradient id="paint0_linear_196_6838" x1="41.2115" y1="30.6748" x2="41.2115" y2="30.6858" gradientUnits="userSpaceOnUse">
<stop stop-color="white" stop-opacity="0"/>
<stop offset="1" stop-color="#FF3C3C"/>
</linearGradient>
<linearGradient id="paint1_linear_196_6838" x1="41.1946" y1="30.6742" x2="41.1959" y2="30.689" gradientUnits="userSpaceOnUse">
<stop stop-color="#FFB6B6" stop-opacity="0"/>
<stop offset="1" stop-color="#9050FF"/>
</linearGradient>
<linearGradient id="paint2_linear_196_6838" x1="42.7477" y1="38.8035" x2="42.7477" y2="38.8289" gradientUnits="userSpaceOnUse">
<stop stop-color="white" stop-opacity="0"/>
<stop offset="1" stop-color="#FF3C3C"/>
</linearGradient>
<linearGradient id="paint3_linear_196_6838" x1="42.7334" y1="38.802" x2="42.741" y2="38.8347" gradientUnits="userSpaceOnUse">
<stop stop-color="#FFB6B6" stop-opacity="0"/>
<stop offset="1" stop-color="#9050FF"/>
</linearGradient>
<linearGradient id="paint4_linear_196_6838" x1="42.4203" y1="38.886" x2="42.4203" y2="38.9023" gradientUnits="userSpaceOnUse">
<stop stop-color="white" stop-opacity="0"/>
<stop offset="1" stop-color="#FF3C3C"/>
</linearGradient>
<linearGradient id="paint5_linear_196_6838" x1="42.408" y1="38.8851" x2="42.4116" y2="38.9065" gradientUnits="userSpaceOnUse">
<stop stop-color="#FFB6B6" stop-opacity="0"/>
<stop offset="1" stop-color="#9050FF"/>
</linearGradient>
<linearGradient id="paint6_linear_196_6838" x1="41.0123" y1="38.9027" x2="41.0123" y2="38.9449" gradientUnits="userSpaceOnUse">
<stop stop-color="white" stop-opacity="0"/>
<stop offset="1" stop-color="#FF3C3C"/>
</linearGradient>
<linearGradient id="paint7_linear_196_6838" x1="40.9691" y1="38.9003" x2="40.9762" y2="38.9565" gradientUnits="userSpaceOnUse">
<stop stop-color="#FFB6B6" stop-opacity="0"/>
<stop offset="1" stop-color="#9050FF"/>
</linearGradient>
<linearGradient id="paint8_linear_196_6838" x1="41.924" y1="30.6659" x2="41.924" y2="30.6732" gradientUnits="userSpaceOnUse">
<stop stop-color="white" stop-opacity="0"/>
<stop offset="1" stop-color="#FF3C3C"/>
</linearGradient>
<linearGradient id="paint9_linear_196_6838" x1="41.9066" y1="30.6655" x2="41.9071" y2="30.6754" gradientUnits="userSpaceOnUse">
<stop stop-color="#FFB6B6" stop-opacity="0"/>
<stop offset="1" stop-color="#9050FF"/>
</linearGradient>
<linearGradient id="paint10_linear_196_6838" x1="41.4417" y1="30.6605" x2="41.4417" y2="30.666" gradientUnits="userSpaceOnUse">
<stop stop-color="white" stop-opacity="0"/>
<stop offset="1" stop-color="#FF3C3C"/>
</linearGradient>
<linearGradient id="paint11_linear_196_6838" x1="41.4234" y1="30.6602" x2="41.4237" y2="30.6676" gradientUnits="userSpaceOnUse">
<stop stop-color="#FFB6B6" stop-opacity="0"/>
<stop offset="1" stop-color="#9050FF"/>
</linearGradient>
<linearGradient id="paint12_linear_196_6838" x1="43.1032" y1="38.6915" x2="43.1032" y2="38.7102" gradientUnits="userSpaceOnUse">
<stop stop-color="white" stop-opacity="0"/>
<stop offset="1" stop-color="#FF3C3C"/>
</linearGradient>
<linearGradient id="paint13_linear_196_6838" x1="43.0964" y1="38.6905" x2="43.1044" y2="38.7128" gradientUnits="userSpaceOnUse">
<stop stop-color="#FFB6B6" stop-opacity="0"/>
<stop offset="1" stop-color="#9050FF"/>
</linearGradient>
<linearGradient id="paint14_linear_196_6838" x1="37.517" y1="35.2849" x2="37.517" y2="35.5822" gradientUnits="userSpaceOnUse">
<stop stop-color="white" stop-opacity="0"/>
<stop offset="1" stop-color="#FF3C3C"/>
</linearGradient>
<linearGradient id="paint15_linear_196_6838" x1="37.5106" y1="35.2683" x2="37.5751" y2="35.2789" gradientUnits="userSpaceOnUse">
<stop stop-color="#FFB6B6" stop-opacity="0"/>
<stop offset="1" stop-color="#9050FF"/>
</linearGradient>
<linearGradient id="paint16_linear_196_6838" x1="43.4153" y1="38.5605" x2="43.4153" y2="38.5714" gradientUnits="userSpaceOnUse">
<stop stop-color="white" stop-opacity="0"/>
<stop offset="1" stop-color="#FF3C3C"/>
</linearGradient>
<linearGradient id="paint17_linear_196_6838" x1="43.4117" y1="38.5599" x2="43.4167" y2="38.5726" gradientUnits="userSpaceOnUse">
<stop stop-color="#FFB6B6" stop-opacity="0"/>
<stop offset="1" stop-color="#9050FF"/>
</linearGradient>
<linearGradient id="paint18_linear_196_6838" x1="37.4887" y1="34.3434" x2="37.4887" y2="34.4572" gradientUnits="userSpaceOnUse">
<stop stop-color="white" stop-opacity="0"/>
<stop offset="1" stop-color="#FF3C3C"/>
</linearGradient>
<linearGradient id="paint19_linear_196_6838" x1="37.487" y1="34.337" x2="37.5041" y2="34.3389" gradientUnits="userSpaceOnUse">
<stop stop-color="#FFB6B6" stop-opacity="0"/>
<stop offset="1" stop-color="#9050FF"/>
</linearGradient>
<linearGradient id="paint20_linear_196_6838" x1="37.4795" y1="35.0576" x2="37.4795" y2="35.1714" gradientUnits="userSpaceOnUse">
<stop stop-color="white" stop-opacity="0"/>
<stop offset="1" stop-color="#FF3C3C"/>
</linearGradient>
<linearGradient id="paint21_linear_196_6838" x1="37.4784" y1="35.0513" x2="37.4899" y2="35.0521" gradientUnits="userSpaceOnUse">
<stop stop-color="#FFB6B6" stop-opacity="0"/>
<stop offset="1" stop-color="#9050FF"/>
</linearGradient>
<linearGradient id="paint22_linear_196_6838" x1="41.3234" y1="38.9574" x2="41.3234" y2="38.9647" gradientUnits="userSpaceOnUse">
<stop stop-color="white" stop-opacity="0"/>
<stop offset="1" stop-color="#FF3C3C"/>
</linearGradient>
<linearGradient id="paint23_linear_196_6838" x1="41.306" y1="38.957" x2="41.3065" y2="38.9669" gradientUnits="userSpaceOnUse">
<stop stop-color="#FFB6B6" stop-opacity="0"/>
<stop offset="1" stop-color="#9050FF"/>
</linearGradient>
<linearGradient id="paint24_linear_196_6838" x1="37.5465" y1="33.9677" x2="37.5465" y2="34.0458" gradientUnits="userSpaceOnUse">
<stop stop-color="white" stop-opacity="0"/>
<stop offset="1" stop-color="#FF3C3C"/>
</linearGradient>
<linearGradient id="paint25_linear_196_6838" x1="37.544" y1="33.9633" x2="37.5683" y2="33.9692" gradientUnits="userSpaceOnUse">
<stop stop-color="#FFB6B6" stop-opacity="0"/>
<stop offset="1" stop-color="#9050FF"/>
</linearGradient>
<linearGradient id="paint26_linear_196_6838" x1="37.473" y1="34.5712" x2="37.473" y2="34.6923" gradientUnits="userSpaceOnUse">
<stop stop-color="white" stop-opacity="0"/>
<stop offset="1" stop-color="#FF3C3C"/>
</linearGradient>
<linearGradient id="paint27_linear_196_6838" x1="37.4721" y1="34.5644" x2="37.4808" y2="34.5648" gradientUnits="userSpaceOnUse">
<stop stop-color="#FFB6B6" stop-opacity="0"/>
<stop offset="1" stop-color="#9050FF"/>
</linearGradient>
<linearGradient id="paint28_linear_196_6838" x1="37.8756" y1="33.0094" x2="37.8756" y2="33.0245" gradientUnits="userSpaceOnUse">
<stop stop-color="white" stop-opacity="0"/>
<stop offset="1" stop-color="#FF3C3C"/>
</linearGradient>
<linearGradient id="paint29_linear_196_6838" x1="37.8745" y1="33.0086" x2="37.8833" y2="33.0137" gradientUnits="userSpaceOnUse">
<stop stop-color="#FFB6B6" stop-opacity="0"/>
<stop offset="1" stop-color="#9050FF"/>
</linearGradient>
<linearGradient id="paint30_linear_196_6838" x1="39.8301" y1="31.0607" x2="39.8301" y2="31.0679" gradientUnits="userSpaceOnUse">
<stop stop-color="white" stop-opacity="0"/>
<stop offset="1" stop-color="#FF3C3C"/>
</linearGradient>
<linearGradient id="paint31_linear_196_6838" x1="39.8274" y1="31.0603" x2="39.8304" y2="31.069" gradientUnits="userSpaceOnUse">
<stop stop-color="#FFB6B6" stop-opacity="0"/>
<stop offset="1" stop-color="#9050FF"/>
</linearGradient>
<linearGradient id="paint32_linear_196_6838" x1="42.0355" y1="38.9446" x2="42.0355" y2="38.9556" gradientUnits="userSpaceOnUse">
<stop stop-color="white" stop-opacity="0"/>
<stop offset="1" stop-color="#FF3C3C"/>
</linearGradient>
<linearGradient id="paint33_linear_196_6838" x1="42.0186" y1="38.944" x2="42.0198" y2="38.9587" gradientUnits="userSpaceOnUse">
<stop stop-color="#FFB6B6" stop-opacity="0"/>
<stop offset="1" stop-color="#9050FF"/>
</linearGradient>
<linearGradient id="paint34_linear_196_6838" x1="41.8049" y1="38.9648" x2="41.8049" y2="38.9703" gradientUnits="userSpaceOnUse">
<stop stop-color="white" stop-opacity="0"/>
<stop offset="1" stop-color="#FF3C3C"/>
</linearGradient>
<linearGradient id="paint35_linear_196_6838" x1="41.7867" y1="38.9645" x2="41.787" y2="38.972" gradientUnits="userSpaceOnUse">
<stop stop-color="#FFB6B6" stop-opacity="0"/>
<stop offset="1" stop-color="#9050FF"/>
</linearGradient>
<linearGradient id="paint36_linear_196_6838" x1="42.9371" y1="30.8256" x2="42.9371" y2="30.921" gradientUnits="userSpaceOnUse">
<stop stop-color="white" stop-opacity="0"/>
<stop offset="1" stop-color="#FF3C3C"/>
</linearGradient>
<linearGradient id="paint37_linear_196_6838" x1="42.8939" y1="30.8202" x2="42.9281" y2="30.9393" gradientUnits="userSpaceOnUse">
<stop stop-color="#FFB6B6" stop-opacity="0"/>
<stop offset="1" stop-color="#9050FF"/>
</linearGradient>
<linearGradient id="paint38_linear_196_6838" x1="44.3973" y1="31.0676" x2="44.3973" y2="33.0093" gradientUnits="userSpaceOnUse">
<stop stop-color="white" stop-opacity="0"/>
<stop offset="1" stop-color="#FF3C3C"/>
</linearGradient>
<linearGradient id="paint39_linear_196_6838" x1="44.1043" y1="30.959" x2="45.4005" y2="32.4681" gradientUnits="userSpaceOnUse">
<stop stop-color="#FFB6B6" stop-opacity="0"/>
<stop offset="1" stop-color="#9050FF"/>
</linearGradient>
<linearGradient id="paint40_linear_196_6838" x1="45.7579" y1="35.1714" x2="45.7579" y2="35.2852" gradientUnits="userSpaceOnUse">
<stop stop-color="white" stop-opacity="0"/>
<stop offset="1" stop-color="#FF3C3C"/>
</linearGradient>
<linearGradient id="paint41_linear_196_6838" x1="45.7563" y1="35.165" x2="45.7734" y2="35.1669" gradientUnits="userSpaceOnUse">
<stop stop-color="#FFB6B6" stop-opacity="0"/>
<stop offset="1" stop-color="#9050FF"/>
</linearGradient>
<linearGradient id="paint42_linear_196_6838" x1="45.7671" y1="34.4575" x2="45.7671" y2="34.5713" gradientUnits="userSpaceOnUse">
<stop stop-color="white" stop-opacity="0"/>
<stop offset="1" stop-color="#FF3C3C"/>
</linearGradient>
<linearGradient id="paint43_linear_196_6838" x1="45.766" y1="34.4512" x2="45.7775" y2="34.452" gradientUnits="userSpaceOnUse">
<stop stop-color="#FFB6B6" stop-opacity="0"/>
<stop offset="1" stop-color="#9050FF"/>
</linearGradient>
<linearGradient id="paint44_linear_196_6838" x1="45.7318" y1="34.0461" x2="45.7318" y2="34.3435" gradientUnits="userSpaceOnUse">
<stop stop-color="white" stop-opacity="0"/>
<stop offset="1" stop-color="#FF3C3C"/>
</linearGradient>
<linearGradient id="paint45_linear_196_6838" x1="45.7254" y1="34.0295" x2="45.79" y2="34.0402" gradientUnits="userSpaceOnUse">
<stop stop-color="#FFB6B6" stop-opacity="0"/>
<stop offset="1" stop-color="#9050FF"/>
</linearGradient>
<linearGradient id="paint46_linear_196_6838" x1="40.6657" y1="38.8287" x2="40.6657" y2="38.8856" gradientUnits="userSpaceOnUse">
<stop stop-color="white" stop-opacity="0"/>
<stop offset="1" stop-color="#FF3C3C"/>
</linearGradient>
<linearGradient id="paint47_linear_196_6838" x1="40.6297" y1="38.8256" x2="40.6448" y2="38.8993" gradientUnits="userSpaceOnUse">
<stop stop-color="#FFB6B6" stop-opacity="0"/>
<stop offset="1" stop-color="#9050FF"/>
</linearGradient>
<linearGradient id="paint48_linear_196_6838" x1="45.7003" y1="35.5825" x2="45.7003" y2="35.6607" gradientUnits="userSpaceOnUse">
<stop stop-color="white" stop-opacity="0"/>
<stop offset="1" stop-color="#FF3C3C"/>
</linearGradient>
<linearGradient id="paint49_linear_196_6838" x1="45.6979" y1="35.5781" x2="45.7221" y2="35.5841" gradientUnits="userSpaceOnUse">
<stop stop-color="#FFB6B6" stop-opacity="0"/>
<stop offset="1" stop-color="#9050FF"/>
</linearGradient>
<linearGradient id="paint50_linear_196_6838" x1="42.2349" y1="30.6843" x2="42.2349" y2="30.7247" gradientUnits="userSpaceOnUse">
<stop stop-color="white" stop-opacity="0"/>
<stop offset="1" stop-color="#FF3C3C"/>
</linearGradient>
<linearGradient id="paint51_linear_196_6838" x1="42.1918" y1="30.6821" x2="42.1983" y2="30.7358" gradientUnits="userSpaceOnUse">
<stop stop-color="#FFB6B6" stop-opacity="0"/>
<stop offset="1" stop-color="#9050FF"/>
</linearGradient>
<linearGradient id="paint52_linear_196_6838" x1="39.9827" y1="38.5702" x2="39.9827" y2="38.6913" gradientUnits="userSpaceOnUse">
<stop stop-color="white" stop-opacity="0"/>
<stop offset="1" stop-color="#FF3C3C"/>
</linearGradient>
<linearGradient id="paint53_linear_196_6838" x1="39.9407" y1="38.5634" x2="39.9943" y2="38.707" gradientUnits="userSpaceOnUse">
<stop stop-color="#FFB6B6" stop-opacity="0"/>
<stop offset="1" stop-color="#9050FF"/>
</linearGradient>
<linearGradient id="paint54_linear_196_6838" x1="45.7735" y1="34.9344" x2="45.7735" y2="35.0556" gradientUnits="userSpaceOnUse">
<stop stop-color="white" stop-opacity="0"/>
<stop offset="1" stop-color="#FF3C3C"/>
</linearGradient>
<linearGradient id="paint55_linear_196_6838" x1="45.7727" y1="34.9277" x2="45.7813" y2="34.9281" gradientUnits="userSpaceOnUse">
<stop stop-color="#FFB6B6" stop-opacity="0"/>
<stop offset="1" stop-color="#9050FF"/>
</linearGradient>
<linearGradient id="paint56_linear_196_6838" x1="38.8493" y1="36.6213" x2="38.8493" y2="38.5612" gradientUnits="userSpaceOnUse">
<stop stop-color="white" stop-opacity="0"/>
<stop offset="1" stop-color="#FF3C3C"/>
</linearGradient>
<linearGradient id="paint57_linear_196_6838" x1="38.5569" y1="36.5128" x2="39.852" y2="38.0193" gradientUnits="userSpaceOnUse">
<stop stop-color="#FFB6B6" stop-opacity="0"/>
<stop offset="1" stop-color="#9050FF"/>
</linearGradient>
<linearGradient id="paint58_linear_196_6838" x1="37.6843" y1="35.988" x2="37.6843" y2="36.2725" gradientUnits="userSpaceOnUse">
<stop stop-color="white" stop-opacity="0"/>
<stop offset="1" stop-color="#FF3C3C"/>
</linearGradient>
<linearGradient id="paint59_linear_196_6838" x1="37.6701" y1="35.9721" x2="37.7984" y2="36.0212" gradientUnits="userSpaceOnUse">
<stop stop-color="#FFB6B6" stop-opacity="0"/>
<stop offset="1" stop-color="#9050FF"/>
</linearGradient>
<linearGradient id="paint60_linear_196_6838" x1="43.264" y1="30.9353" x2="43.264" y2="31.0583" gradientUnits="userSpaceOnUse">
<stop stop-color="white" stop-opacity="0"/>
<stop offset="1" stop-color="#FF3C3C"/>
</linearGradient>
<linearGradient id="paint61_linear_196_6838" x1="43.2208" y1="30.9284" x2="43.2748" y2="31.0746" gradientUnits="userSpaceOnUse">
<stop stop-color="#FFB6B6" stop-opacity="0"/>
<stop offset="1" stop-color="#9050FF"/>
</linearGradient>
<linearGradient id="paint62_linear_196_6838" x1="45.5079" y1="36.2726" x2="45.5079" y2="36.3239" gradientUnits="userSpaceOnUse">
<stop stop-color="white" stop-opacity="0"/>
<stop offset="1" stop-color="#FF3C3C"/>
</linearGradient>
<linearGradient id="paint63_linear_196_6838" x1="45.5048" y1="36.2697" x2="45.531" y2="36.2817" gradientUnits="userSpaceOnUse">
<stop stop-color="#FFB6B6" stop-opacity="0"/>
<stop offset="1" stop-color="#9050FF"/>
</linearGradient>
<linearGradient id="paint64_linear_196_6838" x1="45.3716" y1="36.6011" x2="45.3716" y2="36.6204" gradientUnits="userSpaceOnUse">
<stop stop-color="white" stop-opacity="0"/>
<stop offset="1" stop-color="#FF3C3C"/>
</linearGradient>
<linearGradient id="paint65_linear_196_6838" x1="45.3703" y1="36.6" x2="45.381" y2="36.6057" gradientUnits="userSpaceOnUse">
<stop stop-color="#FFB6B6" stop-opacity="0"/>
<stop offset="1" stop-color="#9050FF"/>
</linearGradient>
<linearGradient id="paint66_linear_196_6838" x1="37.8109" y1="36.3221" x2="37.8109" y2="36.5993" gradientUnits="userSpaceOnUse">
<stop stop-color="white" stop-opacity="0"/>
<stop offset="1" stop-color="#FF3C3C"/>
</linearGradient>
<linearGradient id="paint67_linear_196_6838" x1="37.7929" y1="36.3066" x2="37.9427" y2="36.3817" gradientUnits="userSpaceOnUse">
<stop stop-color="#FFB6B6" stop-opacity="0"/>
<stop offset="1" stop-color="#9050FF"/>
</linearGradient>
<linearGradient id="paint68_linear_196_6838" x1="45.6238" y1="35.8925" x2="45.6238" y2="35.987" gradientUnits="userSpaceOnUse">
<stop stop-color="white" stop-opacity="0"/>
<stop offset="1" stop-color="#FF3C3C"/>
</linearGradient>
<linearGradient id="paint69_linear_196_6838" x1="45.62" y1="35.8872" x2="45.6564" y2="35.8986" gradientUnits="userSpaceOnUse">
<stop stop-color="#FFB6B6" stop-opacity="0"/>
<stop offset="1" stop-color="#9050FF"/>
</linearGradient>
<linearGradient id="paint70_linear_196_6838" x1="40.3085" y1="38.7079" x2="40.3085" y2="38.8033" gradientUnits="userSpaceOnUse">
<stop stop-color="white" stop-opacity="0"/>
<stop offset="1" stop-color="#FF3C3C"/>
</linearGradient>
<linearGradient id="paint71_linear_196_6838" x1="40.2656" y1="38.7025" x2="40.2999" y2="38.8215" gradientUnits="userSpaceOnUse">
<stop stop-color="#FFB6B6" stop-opacity="0"/>
<stop offset="1" stop-color="#9050FF"/>
</linearGradient>
<linearGradient id="paint72_linear_196_6838" x1="45.4362" y1="33.0242" x2="45.4362" y2="33.3068" gradientUnits="userSpaceOnUse">
<stop stop-color="white" stop-opacity="0"/>
<stop offset="1" stop-color="#FF3C3C"/>
</linearGradient>
<linearGradient id="paint73_linear_196_6838" x1="45.4177" y1="33.0084" x2="45.5715" y2="33.0862" gradientUnits="userSpaceOnUse">
<stop stop-color="#FFB6B6" stop-opacity="0"/>
<stop offset="1" stop-color="#9050FF"/>
</linearGradient>
<linearGradient id="paint74_linear_196_6838" x1="45.5636" y1="33.3544" x2="45.5636" y2="33.6407" gradientUnits="userSpaceOnUse">
<stop stop-color="white" stop-opacity="0"/>
<stop offset="1" stop-color="#FF3C3C"/>
</linearGradient>
<linearGradient id="paint75_linear_196_6838" x1="45.5492" y1="33.3384" x2="45.6795" y2="33.3889" gradientUnits="userSpaceOnUse">
<stop stop-color="#FFB6B6" stop-opacity="0"/>
<stop offset="1" stop-color="#9050FF"/>
</linearGradient>
<linearGradient id="paint76_linear_196_6838" x1="41.6224" y1="21.6291" x2="41.6224" y2="47.9979" gradientUnits="userSpaceOnUse">
<stop stop-color="white" stop-opacity="0"/>
<stop offset="1" stop-color="#FF3C3C"/>
</linearGradient>
<linearGradient id="paint77_linear_196_6838" x1="37.6478" y1="20.1538" x2="55.253" y2="40.6308" gradientUnits="userSpaceOnUse">
<stop stop-color="#FFB6B6" stop-opacity="0"/>
<stop offset="1" stop-color="#9050FF"/>
</linearGradient>
<linearGradient id="paint78_linear_196_6838" x1="40.4982" y1="38.8052" x2="40.4982" y2="38.8306" gradientUnits="userSpaceOnUse">
<stop stop-color="white" stop-opacity="0"/>
<stop offset="1" stop-color="#FF3C3C"/>
</linearGradient>
<linearGradient id="paint79_linear_196_6838" x1="40.4839" y1="38.8038" x2="40.4915" y2="38.8364" gradientUnits="userSpaceOnUse">
<stop stop-color="#FFB6B6" stop-opacity="0"/>
<stop offset="1" stop-color="#9050FF"/>
</linearGradient>
<linearGradient id="paint80_linear_196_6838" x1="41.2115" y1="38.9465" x2="41.2115" y2="38.9575" gradientUnits="userSpaceOnUse">
<stop stop-color="white" stop-opacity="0"/>
<stop offset="1" stop-color="#FF3C3C"/>
</linearGradient>
<linearGradient id="paint81_linear_196_6838" x1="41.1946" y1="38.9459" x2="41.1959" y2="38.9607" gradientUnits="userSpaceOnUse">
<stop stop-color="#FFB6B6" stop-opacity="0"/>
<stop offset="1" stop-color="#9050FF"/>
</linearGradient>
<linearGradient id="paint82_linear_196_6838" x1="40.826" y1="38.8881" x2="40.826" y2="38.9044" gradientUnits="userSpaceOnUse">
<stop stop-color="white" stop-opacity="0"/>
<stop offset="1" stop-color="#FF3C3C"/>
</linearGradient>
<linearGradient id="paint83_linear_196_6838" x1="40.8137" y1="38.8871" x2="40.8174" y2="38.9086" gradientUnits="userSpaceOnUse">
<stop stop-color="#FFB6B6" stop-opacity="0"/>
<stop offset="1" stop-color="#9050FF"/>
</linearGradient>
<linearGradient id="paint84_linear_196_6838" x1="45.4361" y1="36.3239" x2="45.4361" y2="36.601" gradientUnits="userSpaceOnUse">
<stop stop-color="white" stop-opacity="0"/>
<stop offset="1" stop-color="#FF3C3C"/>
</linearGradient>
<linearGradient id="paint85_linear_196_6838" x1="45.4181" y1="36.3083" x2="45.568" y2="36.3834" gradientUnits="userSpaceOnUse">
<stop stop-color="#FFB6B6" stop-opacity="0"/>
<stop offset="1" stop-color="#9050FF"/>
</linearGradient>
<linearGradient id="paint86_linear_196_6838" x1="45.5646" y1="35.988" x2="45.5646" y2="36.2725" gradientUnits="userSpaceOnUse">
<stop stop-color="white" stop-opacity="0"/>
<stop offset="1" stop-color="#FF3C3C"/>
</linearGradient>
<linearGradient id="paint87_linear_196_6838" x1="45.5505" y1="35.9721" x2="45.6788" y2="36.0212" gradientUnits="userSpaceOnUse">
<stop stop-color="#FFB6B6" stop-opacity="0"/>
<stop offset="1" stop-color="#9050FF"/>
</linearGradient>
<linearGradient id="paint88_linear_196_6838" x1="45.7318" y1="35.2849" x2="45.7318" y2="35.5822" gradientUnits="userSpaceOnUse">
<stop stop-color="white" stop-opacity="0"/>
<stop offset="1" stop-color="#FF3C3C"/>
</linearGradient>
<linearGradient id="paint89_linear_196_6838" x1="45.7254" y1="35.2683" x2="45.79" y2="35.2789" gradientUnits="userSpaceOnUse">
<stop stop-color="#FFB6B6" stop-opacity="0"/>
<stop offset="1" stop-color="#9050FF"/>
</linearGradient>
<linearGradient id="paint90_linear_196_6838" x1="45.6647" y1="35.6611" x2="45.6647" y2="35.8924" gradientUnits="userSpaceOnUse">
<stop stop-color="white" stop-opacity="0"/>
<stop offset="1" stop-color="#FF3C3C"/>
</linearGradient>
<linearGradient id="paint91_linear_196_6838" x1="45.6564" y1="35.6482" x2="45.7368" y2="35.6704" gradientUnits="userSpaceOnUse">
<stop stop-color="#FFB6B6" stop-opacity="0"/>
<stop offset="1" stop-color="#9050FF"/>
</linearGradient>
<linearGradient id="paint92_linear_196_6838" x1="45.7691" y1="35.0559" x2="45.7691" y2="35.1697" gradientUnits="userSpaceOnUse">
<stop stop-color="white" stop-opacity="0"/>
<stop offset="1" stop-color="#FF3C3C"/>
</linearGradient>
<linearGradient id="paint93_linear_196_6838" x1="45.7679" y1="35.0495" x2="45.7794" y2="35.0504" gradientUnits="userSpaceOnUse">
<stop stop-color="#FFB6B6" stop-opacity="0"/>
<stop offset="1" stop-color="#9050FF"/>
</linearGradient>
<linearGradient id="paint94_linear_196_6838" x1="43.264" y1="38.572" x2="43.264" y2="38.6931" gradientUnits="userSpaceOnUse">
<stop stop-color="white" stop-opacity="0"/>
<stop offset="1" stop-color="#FF3C3C"/>
</linearGradient>
<linearGradient id="paint95_linear_196_6838" x1="43.2219" y1="38.5652" x2="43.2755" y2="38.7088" gradientUnits="userSpaceOnUse">
<stop stop-color="#FFB6B6" stop-opacity="0"/>
<stop offset="1" stop-color="#9050FF"/>
</linearGradient>
<linearGradient id="paint96_linear_196_6838" x1="41.924" y1="38.9558" x2="41.924" y2="38.9632" gradientUnits="userSpaceOnUse">
<stop stop-color="white" stop-opacity="0"/>
<stop offset="1" stop-color="#FF3C3C"/>
</linearGradient>
<linearGradient id="paint97_linear_196_6838" x1="41.9066" y1="38.9554" x2="41.9071" y2="38.9653" gradientUnits="userSpaceOnUse">
<stop stop-color="#FFB6B6" stop-opacity="0"/>
<stop offset="1" stop-color="#9050FF"/>
</linearGradient>
<linearGradient id="paint98_linear_196_6838" x1="42.2362" y1="38.9043" x2="42.2362" y2="38.9465" gradientUnits="userSpaceOnUse">
<stop stop-color="white" stop-opacity="0"/>
<stop offset="1" stop-color="#FF3C3C"/>
</linearGradient>
<linearGradient id="paint99_linear_196_6838" x1="42.193" y1="38.9019" x2="42.2001" y2="38.958" gradientUnits="userSpaceOnUse">
<stop stop-color="#FFB6B6" stop-opacity="0"/>
<stop offset="1" stop-color="#9050FF"/>
</linearGradient>
<linearGradient id="paint100_linear_196_6838" x1="41.4417" y1="38.9648" x2="41.4417" y2="38.9703" gradientUnits="userSpaceOnUse">
<stop stop-color="white" stop-opacity="0"/>
<stop offset="1" stop-color="#FF3C3C"/>
</linearGradient>
<linearGradient id="paint101_linear_196_6838" x1="41.4234" y1="38.9645" x2="41.4237" y2="38.972" gradientUnits="userSpaceOnUse">
<stop stop-color="#FFB6B6" stop-opacity="0"/>
<stop offset="1" stop-color="#9050FF"/>
</linearGradient>
<linearGradient id="paint102_linear_196_6838" x1="42.9379" y1="38.7098" x2="42.9379" y2="38.8053" gradientUnits="userSpaceOnUse">
<stop stop-color="white" stop-opacity="0"/>
<stop offset="1" stop-color="#FF3C3C"/>
</linearGradient>
<linearGradient id="paint103_linear_196_6838" x1="42.895" y1="38.7045" x2="42.9293" y2="38.8235" gradientUnits="userSpaceOnUse">
<stop stop-color="#FFB6B6" stop-opacity="0"/>
<stop offset="1" stop-color="#9050FF"/>
</linearGradient>
<linearGradient id="paint104_linear_196_6838" x1="37.5465" y1="35.5809" x2="37.5465" y2="35.6609" gradientUnits="userSpaceOnUse">
<stop stop-color="white" stop-opacity="0"/>
<stop offset="1" stop-color="#FF3C3C"/>
</linearGradient>
<linearGradient id="paint105_linear_196_6838" x1="37.544" y1="35.5765" x2="37.5684" y2="35.5822" gradientUnits="userSpaceOnUse">
<stop stop-color="#FFB6B6" stop-opacity="0"/>
<stop offset="1" stop-color="#9050FF"/>
</linearGradient>
<linearGradient id="paint106_linear_196_6838" x1="43.4163" y1="31.0607" x2="43.4163" y2="31.0679" gradientUnits="userSpaceOnUse">
<stop stop-color="white" stop-opacity="0"/>
<stop offset="1" stop-color="#FF3C3C"/>
</linearGradient>
<linearGradient id="paint107_linear_196_6838" x1="43.4135" y1="31.0603" x2="43.4165" y2="31.069" gradientUnits="userSpaceOnUse">
<stop stop-color="#FFB6B6" stop-opacity="0"/>
<stop offset="1" stop-color="#9050FF"/>
</linearGradient>
<linearGradient id="paint108_linear_196_6838" x1="45.3729" y1="33.0094" x2="45.3729" y2="33.0245" gradientUnits="userSpaceOnUse">
<stop stop-color="white" stop-opacity="0"/>
<stop offset="1" stop-color="#FF3C3C"/>
</linearGradient>
<linearGradient id="paint109_linear_196_6838" x1="45.3718" y1="33.0086" x2="45.3806" y2="33.0137" gradientUnits="userSpaceOnUse">
<stop stop-color="#FFB6B6" stop-opacity="0"/>
<stop offset="1" stop-color="#9050FF"/>
</linearGradient>
<linearGradient id="paint110_linear_196_6838" x1="41.3254" y1="30.6659" x2="41.3254" y2="30.6732" gradientUnits="userSpaceOnUse">
<stop stop-color="white" stop-opacity="0"/>
<stop offset="1" stop-color="#FF3C3C"/>
</linearGradient>
<linearGradient id="paint111_linear_196_6838" x1="41.308" y1="30.6655" x2="41.3085" y2="30.6754" gradientUnits="userSpaceOnUse">
<stop stop-color="#FFB6B6" stop-opacity="0"/>
<stop offset="1" stop-color="#9050FF"/>
</linearGradient>
<linearGradient id="paint112_linear_196_6838" x1="41.8049" y1="30.6605" x2="41.8049" y2="30.666" gradientUnits="userSpaceOnUse">
<stop stop-color="white" stop-opacity="0"/>
<stop offset="1" stop-color="#FF3C3C"/>
</linearGradient>
<linearGradient id="paint113_linear_196_6838" x1="41.7867" y1="30.6602" x2="41.787" y2="30.6676" gradientUnits="userSpaceOnUse">
<stop stop-color="#FFB6B6" stop-opacity="0"/>
<stop offset="1" stop-color="#9050FF"/>
</linearGradient>
<linearGradient id="paint114_linear_196_6838" x1="42.0372" y1="30.6748" x2="42.0372" y2="30.6858" gradientUnits="userSpaceOnUse">
<stop stop-color="white" stop-opacity="0"/>
<stop offset="1" stop-color="#FF3C3C"/>
</linearGradient>
<linearGradient id="paint115_linear_196_6838" x1="42.0203" y1="30.6742" x2="42.0215" y2="30.689" gradientUnits="userSpaceOnUse">
<stop stop-color="#FFB6B6" stop-opacity="0"/>
<stop offset="1" stop-color="#9050FF"/>
</linearGradient>
<linearGradient id="paint116_linear_196_6838" x1="45.7757" y1="34.5712" x2="45.7757" y2="34.6923" gradientUnits="userSpaceOnUse">
<stop stop-color="white" stop-opacity="0"/>
<stop offset="1" stop-color="#FF3C3C"/>
</linearGradient>
<linearGradient id="paint117_linear_196_6838" x1="45.7749" y1="34.5644" x2="45.7835" y2="34.5648" gradientUnits="userSpaceOnUse">
<stop stop-color="#FFB6B6" stop-opacity="0"/>
<stop offset="1" stop-color="#9050FF"/>
</linearGradient>
<linearGradient id="paint118_linear_196_6838" x1="38.8492" y1="31.0676" x2="38.8492" y2="33.0093" gradientUnits="userSpaceOnUse">
<stop stop-color="white" stop-opacity="0"/>
<stop offset="1" stop-color="#FF3C3C"/>
</linearGradient>
<linearGradient id="paint119_linear_196_6838" x1="38.5562" y1="30.959" x2="39.8524" y2="32.4681" gradientUnits="userSpaceOnUse">
<stop stop-color="#FFB6B6" stop-opacity="0"/>
<stop offset="1" stop-color="#9050FF"/>
</linearGradient>
<linearGradient id="paint120_linear_196_6838" x1="44.3974" y1="36.6213" x2="44.3974" y2="38.5612" gradientUnits="userSpaceOnUse">
<stop stop-color="white" stop-opacity="0"/>
<stop offset="1" stop-color="#FF3C3C"/>
</linearGradient>
<linearGradient id="paint121_linear_196_6838" x1="44.105" y1="36.5128" x2="45.4001" y2="38.0193" gradientUnits="userSpaceOnUse">
<stop stop-color="#FFB6B6" stop-opacity="0"/>
<stop offset="1" stop-color="#9050FF"/>
</linearGradient>
<linearGradient id="paint122_linear_196_6838" x1="45.7579" y1="34.3434" x2="45.7579" y2="34.4572" gradientUnits="userSpaceOnUse">
<stop stop-color="white" stop-opacity="0"/>
<stop offset="1" stop-color="#FF3C3C"/>
</linearGradient>
<linearGradient id="paint123_linear_196_6838" x1="45.7563" y1="34.337" x2="45.7734" y2="34.3389" gradientUnits="userSpaceOnUse">
<stop stop-color="#FFB6B6" stop-opacity="0"/>
<stop offset="1" stop-color="#9050FF"/>
</linearGradient>
<linearGradient id="paint124_linear_196_6838" x1="45.7003" y1="33.9677" x2="45.7003" y2="34.0458" gradientUnits="userSpaceOnUse">
<stop stop-color="white" stop-opacity="0"/>
<stop offset="1" stop-color="#FF3C3C"/>
</linearGradient>
<linearGradient id="paint125_linear_196_6838" x1="45.6979" y1="33.9633" x2="45.7221" y2="33.9692" gradientUnits="userSpaceOnUse">
<stop stop-color="#FFB6B6" stop-opacity="0"/>
<stop offset="1" stop-color="#9050FF"/>
</linearGradient>
<linearGradient id="paint126_linear_196_6838" x1="40.1444" y1="38.6915" x2="40.1444" y2="38.7102" gradientUnits="userSpaceOnUse">
<stop stop-color="white" stop-opacity="0"/>
<stop offset="1" stop-color="#FF3C3C"/>
</linearGradient>
<linearGradient id="paint127_linear_196_6838" x1="40.1377" y1="38.6905" x2="40.1457" y2="38.7128" gradientUnits="userSpaceOnUse">
<stop stop-color="#FFB6B6" stop-opacity="0"/>
<stop offset="1" stop-color="#9050FF"/>
</linearGradient>
<linearGradient id="paint128_linear_196_6838" x1="37.4887" y1="35.1714" x2="37.4887" y2="35.2852" gradientUnits="userSpaceOnUse">
<stop stop-color="white" stop-opacity="0"/>
<stop offset="1" stop-color="#FF3C3C"/>
</linearGradient>
<linearGradient id="paint129_linear_196_6838" x1="37.487" y1="35.165" x2="37.5041" y2="35.1669" gradientUnits="userSpaceOnUse">
<stop stop-color="#FFB6B6" stop-opacity="0"/>
<stop offset="1" stop-color="#9050FF"/>
</linearGradient>
<linearGradient id="paint130_linear_196_6838" x1="37.6223" y1="35.8925" x2="37.6223" y2="35.987" gradientUnits="userSpaceOnUse">
<stop stop-color="white" stop-opacity="0"/>
<stop offset="1" stop-color="#FF3C3C"/>
</linearGradient>
<linearGradient id="paint131_linear_196_6838" x1="37.6185" y1="35.8872" x2="37.6549" y2="35.8986" gradientUnits="userSpaceOnUse">
<stop stop-color="#FFB6B6" stop-opacity="0"/>
<stop offset="1" stop-color="#9050FF"/>
</linearGradient>
<linearGradient id="paint132_linear_196_6838" x1="37.473" y1="34.9344" x2="37.473" y2="35.0556" gradientUnits="userSpaceOnUse">
<stop stop-color="white" stop-opacity="0"/>
<stop offset="1" stop-color="#FF3C3C"/>
</linearGradient>
<linearGradient id="paint133_linear_196_6838" x1="37.4721" y1="34.9277" x2="37.4808" y2="34.9281" gradientUnits="userSpaceOnUse">
<stop stop-color="#FFB6B6" stop-opacity="0"/>
<stop offset="1" stop-color="#9050FF"/>
</linearGradient>
<linearGradient id="paint134_linear_196_6838" x1="37.4795" y1="34.4575" x2="37.4795" y2="34.5713" gradientUnits="userSpaceOnUse">
<stop stop-color="white" stop-opacity="0"/>
<stop offset="1" stop-color="#FF3C3C"/>
</linearGradient>
<linearGradient id="paint135_linear_196_6838" x1="37.4784" y1="34.4512" x2="37.4899" y2="34.452" gradientUnits="userSpaceOnUse">
<stop stop-color="#FFB6B6" stop-opacity="0"/>
<stop offset="1" stop-color="#9050FF"/>
</linearGradient>
<linearGradient id="paint136_linear_196_6838" x1="39.8318" y1="38.5605" x2="39.8318" y2="38.5713" gradientUnits="userSpaceOnUse">
<stop stop-color="white" stop-opacity="0"/>
<stop offset="1" stop-color="#FF3C3C"/>
</linearGradient>
<linearGradient id="paint137_linear_196_6838" x1="39.8286" y1="38.5599" x2="39.8338" y2="38.5722" gradientUnits="userSpaceOnUse">
<stop stop-color="#FFB6B6" stop-opacity="0"/>
<stop offset="1" stop-color="#9050FF"/>
</linearGradient>
<linearGradient id="paint138_linear_196_6838" x1="37.741" y1="36.2726" x2="37.741" y2="36.3239" gradientUnits="userSpaceOnUse">
<stop stop-color="white" stop-opacity="0"/>
<stop offset="1" stop-color="#FF3C3C"/>
</linearGradient>
<linearGradient id="paint139_linear_196_6838" x1="37.738" y1="36.2697" x2="37.7642" y2="36.2817" gradientUnits="userSpaceOnUse">
<stop stop-color="#FFB6B6" stop-opacity="0"/>
<stop offset="1" stop-color="#9050FF"/>
</linearGradient>
<linearGradient id="paint140_linear_196_6838" x1="37.8748" y1="36.6011" x2="37.8748" y2="36.6204" gradientUnits="userSpaceOnUse">
<stop stop-color="white" stop-opacity="0"/>
<stop offset="1" stop-color="#FF3C3C"/>
</linearGradient>
<linearGradient id="paint141_linear_196_6838" x1="37.8734" y1="36.6" x2="37.8842" y2="36.6057" gradientUnits="userSpaceOnUse">
<stop stop-color="#FFB6B6" stop-opacity="0"/>
<stop offset="1" stop-color="#9050FF"/>
</linearGradient>
<linearGradient id="paint142_linear_196_6838" x1="37.8103" y1="33.0259" x2="37.8103" y2="33.3085" gradientUnits="userSpaceOnUse">
<stop stop-color="white" stop-opacity="0"/>
<stop offset="1" stop-color="#FF3C3C"/>
</linearGradient>
<linearGradient id="paint143_linear_196_6838" x1="37.7917" y1="33.0101" x2="37.9455" y2="33.0879" gradientUnits="userSpaceOnUse">
<stop stop-color="#FFB6B6" stop-opacity="0"/>
<stop offset="1" stop-color="#9050FF"/>
</linearGradient>
<linearGradient id="paint144_linear_196_6838" x1="40.3077" y1="30.8256" x2="40.3077" y2="30.921" gradientUnits="userSpaceOnUse">
<stop stop-color="white" stop-opacity="0"/>
<stop offset="1" stop-color="#FF3C3C"/>
</linearGradient>
<linearGradient id="paint145_linear_196_6838" x1="40.2645" y1="30.8202" x2="40.2987" y2="30.9393" gradientUnits="userSpaceOnUse">
<stop stop-color="#FFB6B6" stop-opacity="0"/>
<stop offset="1" stop-color="#9050FF"/>
</linearGradient>
<linearGradient id="paint146_linear_196_6838" x1="37.515" y1="34.0461" x2="37.515" y2="34.3435" gradientUnits="userSpaceOnUse">
<stop stop-color="white" stop-opacity="0"/>
<stop offset="1" stop-color="#FF3C3C"/>
</linearGradient>
<linearGradient id="paint147_linear_196_6838" x1="37.5086" y1="34.0295" x2="37.5732" y2="34.0402" gradientUnits="userSpaceOnUse">
<stop stop-color="#FFB6B6" stop-opacity="0"/>
<stop offset="1" stop-color="#9050FF"/>
</linearGradient>
<linearGradient id="paint148_linear_196_6838" x1="41.0123" y1="30.6862" x2="41.0123" y2="30.7265" gradientUnits="userSpaceOnUse">
<stop stop-color="white" stop-opacity="0"/>
<stop offset="1" stop-color="#FF3C3C"/>
</linearGradient>
<linearGradient id="paint149_linear_196_6838" x1="40.9691" y1="30.6839" x2="40.9757" y2="30.7376" gradientUnits="userSpaceOnUse">
<stop stop-color="#FFB6B6" stop-opacity="0"/>
<stop offset="1" stop-color="#9050FF"/>
</linearGradient>
<linearGradient id="paint150_linear_196_6838" x1="68.0059" y1="12.3962" x2="84.2681" y2="47.9699" gradientUnits="userSpaceOnUse">
<stop stop-color="white" stop-opacity="0"/>
<stop offset="1" stop-color="#FF3C3C"/>
</linearGradient>
<linearGradient id="paint151_linear_196_6838" x1="75.618" y1="13.5049" x2="92.59" y2="21.4726" gradientUnits="userSpaceOnUse">
<stop stop-color="#FFB6B6" stop-opacity="0"/>
<stop offset="1" stop-color="#9050FF"/>
</linearGradient>
<linearGradient id="paint152_linear_196_6838" x1="93.0629" y1="0.217792" x2="93.0629" y2="13.031" gradientUnits="userSpaceOnUse">
<stop stop-color="white" stop-opacity="0"/>
<stop offset="1" stop-color="#FF3C3C"/>
</linearGradient>
<linearGradient id="paint153_linear_196_6838" x1="84.2683" y1="11.3798" x2="111.434" y2="47.9699" gradientUnits="userSpaceOnUse">
<stop stop-color="white" stop-opacity="0"/>
<stop offset="1" stop-color="#FF3C3C"/>
</linearGradient>
<linearGradient id="paint154_linear_196_6838" x1="87.7795" y1="13.505" x2="109.124" y2="41.1324" gradientUnits="userSpaceOnUse">
<stop stop-color="#FFB6B6" stop-opacity="0"/>
<stop offset="1" stop-color="#9050FF"/>
</linearGradient>
<linearGradient id="paint155_linear_196_6838" x1="76.8336" y1="0.217793" x2="76.8336" y2="12.4884" gradientUnits="userSpaceOnUse">
<stop stop-color="white" stop-opacity="0"/>
<stop offset="1" stop-color="#FF3C3C"/>
</linearGradient>
<linearGradient id="paint156_linear_196_6838" x1="10.5336" y1="-0.0777821" x2="24.7631" y2="47.97" gradientUnits="userSpaceOnUse">
<stop stop-color="white" stop-opacity="0"/>
<stop offset="1" stop-color="#FF3C3C"/>
</linearGradient>
<linearGradient id="paint157_linear_196_6838" x1="50.8204" y1="5.2807" x2="75.6764" y2="48.3318" gradientUnits="userSpaceOnUse">
<stop stop-color="white" stop-opacity="0"/>
<stop offset="1" stop-color="#FF3C3C"/>
</linearGradient>
</defs>
</svg>
