<svg width="476" height="474" viewBox="0 0 476 474" fill="none" xmlns="http://www.w3.org/2000/svg">
<g clip-path="url(#clip0_156_20692)">
<g filter="url(#filter0_f_156_20692)">
<ellipse cx="237.5" cy="301.5" rx="161.5" ry="146.5" transform="rotate(-180 237.5 301.5)" fill="url(#paint0_linear_156_20692)"/>
</g>
<path d="M476 277.347C476 469.18 337.557 473.13 238 473.13C138.443 473.13 0 469.358 0 277.347C0 194.209 66.6085 118.479 141.554 64.2205C174.95 40.0423 197.486 0 238 0C278.514 0 290.976 37.2618 325.109 62.7962C398.337 117.574 475.995 195.374 475.995 277.347H476Z" fill="url(#paint1_linear_156_20692)"/>
<g opacity="0.8">
<path d="M303.598 284.338C314.47 284.338 323.283 275.525 323.283 264.653C323.283 253.782 314.47 244.969 303.598 244.969C292.726 244.969 283.913 253.782 283.913 264.653C283.913 275.525 292.726 284.338 303.598 284.338Z" fill="#1E1E1E"/>
<path d="M172.365 284.338C183.236 284.338 192.05 275.525 192.05 264.653C192.05 253.782 183.236 244.969 172.365 244.969C161.493 244.969 152.68 253.782 152.68 264.653C152.68 275.525 161.493 284.338 172.365 284.338Z" fill="#1E1E1E"/>
<path d="M172.365 284.338C183.236 284.338 192.05 275.525 192.05 264.653C192.05 253.782 183.236 244.969 172.365 244.969C161.493 244.969 152.68 253.782 152.68 264.653C152.68 275.525 161.493 284.338 172.365 284.338Z" fill="url(#paint2_linear_156_20692)" fill-opacity="0.5"/>
<g filter="url(#filter1_f_156_20692)">
<path d="M165.86 278.514C173.515 282.106 182.633 278.813 186.225 271.158C189.817 263.503 186.524 254.386 178.869 250.793C171.214 247.201 162.097 250.494 158.505 258.149C154.912 265.804 158.205 274.921 165.86 278.514Z" fill="url(#paint3_linear_156_20692)" fill-opacity="0.5"/>
</g>
<g filter="url(#filter2_f_156_20692)">
<path d="M167.493 278.715C175.387 281.557 184.09 277.461 186.931 269.567C189.772 261.673 185.677 252.97 177.783 250.129C169.889 247.288 161.186 251.383 158.345 259.277C155.503 267.171 159.599 275.874 167.493 278.715Z" fill="url(#paint4_linear_156_20692)" fill-opacity="0.4"/>
</g>
<g filter="url(#filter3_f_156_20692)">
<path d="M297.773 278.514C305.428 282.106 314.545 278.813 318.138 271.158C321.73 263.503 318.437 254.386 310.782 250.793C303.127 247.201 294.01 250.494 290.417 258.149C286.825 265.804 290.118 274.921 297.773 278.514Z" fill="url(#paint5_linear_156_20692)" fill-opacity="0.5"/>
</g>
<g filter="url(#filter4_f_156_20692)">
<path d="M299.261 278.715C307.155 281.557 315.857 277.461 318.699 269.567C321.54 261.673 317.444 252.97 309.55 250.129C301.656 247.288 292.954 251.383 290.112 259.277C287.271 267.171 291.367 275.874 299.261 278.715Z" fill="url(#paint6_linear_156_20692)" fill-opacity="0.4"/>
</g>
</g>
</g>
<path d="M237.815 301C227.812 301 222.437 295.717 219.751 293.014C216.57 289.815 217.99 284 221.866 284C225.743 284 228.335 289.37 237.819 289.37C247.304 289.37 250.418 284 253.926 284C257.435 284 259.79 289.072 256.236 293.014C253.089 296.51 248.671 301 237.815 301Z" fill="#2B281F" fill-opacity="0.9"/>
<defs>
<filter id="filter0_f_156_20692" x="36" y="115" width="403" height="373" filterUnits="userSpaceOnUse" color-interpolation-filters="sRGB">
<feFlood flood-opacity="0" result="BackgroundImageFix"/>
<feBlend mode="normal" in="SourceGraphic" in2="BackgroundImageFix" result="shape"/>
<feGaussianBlur stdDeviation="20" result="effect1_foregroundBlur_156_20692"/>
</filter>
<filter id="filter1_f_156_20692" x="154.051" y="246.339" width="36.6283" height="36.6283" filterUnits="userSpaceOnUse" color-interpolation-filters="sRGB">
<feFlood flood-opacity="0" result="BackgroundImageFix"/>
<feBlend mode="normal" in="SourceGraphic" in2="BackgroundImageFix" result="shape"/>
<feGaussianBlur stdDeviation="1.5" result="effect1_foregroundBlur_156_20692"/>
</filter>
<filter id="filter2_f_156_20692" x="154.443" y="246.227" width="36.3901" height="36.3901" filterUnits="userSpaceOnUse" color-interpolation-filters="sRGB">
<feFlood flood-opacity="0" result="BackgroundImageFix"/>
<feBlend mode="normal" in="SourceGraphic" in2="BackgroundImageFix" result="shape"/>
<feGaussianBlur stdDeviation="1.5" result="effect1_foregroundBlur_156_20692"/>
</filter>
<filter id="filter3_f_156_20692" x="285.963" y="246.339" width="36.6283" height="36.6283" filterUnits="userSpaceOnUse" color-interpolation-filters="sRGB">
<feFlood flood-opacity="0" result="BackgroundImageFix"/>
<feBlend mode="normal" in="SourceGraphic" in2="BackgroundImageFix" result="shape"/>
<feGaussianBlur stdDeviation="1.5" result="effect1_foregroundBlur_156_20692"/>
</filter>
<filter id="filter4_f_156_20692" x="286.21" y="246.227" width="36.3901" height="36.3901" filterUnits="userSpaceOnUse" color-interpolation-filters="sRGB">
<feFlood flood-opacity="0" result="BackgroundImageFix"/>
<feBlend mode="normal" in="SourceGraphic" in2="BackgroundImageFix" result="shape"/>
<feGaussianBlur stdDeviation="1.5" result="effect1_foregroundBlur_156_20692"/>
</filter>
<linearGradient id="paint0_linear_156_20692" x1="238" y1="440.743" x2="238" y2="144.115" gradientUnits="userSpaceOnUse">
<stop stop-color="#FFC56D" stop-opacity="0"/>
<stop offset="1" stop-color="#FFC56D"/>
</linearGradient>
<linearGradient id="paint1_linear_156_20692" x1="236.22" y1="121.5" x2="236.22" y2="497" gradientUnits="userSpaceOnUse">
<stop stop-color="#FF6B35"/>
<stop offset="1" stop-color="#994020" stop-opacity="0"/>
</linearGradient>
<linearGradient id="paint2_linear_156_20692" x1="173.182" y1="273.822" x2="173.182" y2="246.544" gradientUnits="userSpaceOnUse">
<stop stop-opacity="0"/>
<stop offset="1"/>
</linearGradient>
<linearGradient id="paint3_linear_156_20692" x1="175.152" y1="258.713" x2="178.869" y2="250.793" gradientUnits="userSpaceOnUse">
<stop stop-color="white" stop-opacity="0"/>
<stop offset="1" stop-color="white"/>
</linearGradient>
<linearGradient id="paint4_linear_156_20692" x1="170.932" y1="266.5" x2="173.932" y2="259" gradientUnits="userSpaceOnUse">
<stop stop-color="white" stop-opacity="0"/>
<stop offset="0.480769" stop-color="white" stop-opacity="0.6"/>
<stop offset="1" stop-color="white" stop-opacity="0"/>
</linearGradient>
<linearGradient id="paint5_linear_156_20692" x1="308.2" y1="257.5" x2="310.782" y2="250.793" gradientUnits="userSpaceOnUse">
<stop stop-color="white" stop-opacity="0"/>
<stop offset="1" stop-color="white"/>
</linearGradient>
<linearGradient id="paint6_linear_156_20692" x1="302.7" y1="266.5" x2="305.7" y2="259" gradientUnits="userSpaceOnUse">
<stop stop-color="white" stop-opacity="0"/>
<stop offset="0.480769" stop-color="white" stop-opacity="0.6"/>
<stop offset="1" stop-color="white" stop-opacity="0"/>
</linearGradient>
<clipPath id="clip0_156_20692">
<rect width="476" height="473.135" fill="white"/>
</clipPath>
</defs>
</svg>
