<svg width="1920" height="1080" viewBox="0 0 1920 1080" fill="none" xmlns="http://www.w3.org/2000/svg">
<rect width="1920" height="1080" fill="url(#paint0_linear_1122_1302)"/>
<g clip-path="url(#clip0_1122_1302)">
<rect x="410" y="368.871" width="242.41" height="524.898" rx="20" fill="#1E1E1E"/>
<g opacity="0.6">
<path d="M495.092 762.974V765.985H496.315V766.519H495.092V770.269H494.452V762.974H495.092ZM489.405 764.681V764.147H491.284V763.064H491.924V764.147H493.746V764.681H489.405ZM489.823 766.962C489.819 765.977 490.574 765.288 491.612 765.288C492.642 765.288 493.393 765.977 493.401 766.962C493.393 767.951 492.642 768.636 491.612 768.636C490.574 768.636 489.819 767.951 489.823 766.962ZM490.439 766.962C490.435 767.627 490.931 768.094 491.612 768.086C492.285 768.094 492.778 767.627 492.786 766.962C492.778 766.301 492.285 765.825 491.612 765.829C490.931 765.825 490.435 766.301 490.439 766.962ZM502.412 762.974V765.148H503.52V765.69H502.412V768.259H501.772V762.974H502.412ZM497.053 766.962V763.605H500.303V764.147H497.694V766.42C499.158 766.424 499.991 766.379 500.968 766.182L501.05 766.716C500.024 766.913 499.154 766.962 497.62 766.962H497.053ZM497.849 770.113V767.725H498.481V769.572H502.749V770.113H497.849ZM512.129 762.974V770.286H511.489V766.223H509.741V768.439H506.376V763.548H507.024V765.452H509.109V763.548H509.741V765.69H511.489V762.974H512.129ZM507.024 767.906H509.109V765.969H507.024V767.906ZM519.991 767.019V767.545H513.335V767.019H519.991ZM514.205 770.113V768.078H514.845V769.572H519.293V770.113H514.205ZM514.222 766.33V763.253H519.162V763.77H514.87V764.533H518.965V765.033H514.87V765.821H519.203V766.33H514.222ZM523.93 763.45C525.452 763.454 526.597 764.25 526.597 765.452C526.597 766.667 525.452 767.463 523.93 767.454C522.408 767.463 521.263 766.667 521.263 765.452C521.263 764.25 522.408 763.454 523.93 763.45ZM520.606 769.301V768.759H527.286V769.301H520.606ZM521.878 765.452C521.87 766.338 522.752 766.929 523.93 766.929C525.099 766.929 525.973 766.338 525.973 765.452C525.973 764.578 525.099 763.971 523.93 763.975C522.752 763.971 521.87 764.578 521.878 765.452ZM534.549 768.825V769.367H527.869V768.825H530.873V767.446H528.706V765.198H533.072V764.049H528.69V763.515H533.704V765.723H529.346V766.913H533.876V767.446H531.505V768.825H534.549ZM543.921 768.825V769.367H537.241V768.825H540.245V767.446H538.078V765.198H542.444V764.049H538.062V763.515H543.076V765.723H538.718V766.913H543.248V767.446H540.877V768.825H543.921ZM550.257 763.753V764.484C550.257 765.403 550.257 766.441 549.986 768.029L549.329 767.963C549.625 766.47 549.625 765.378 549.625 764.484V764.287H545.226V763.753H550.257ZM544.504 769.194V768.661H551.151V769.194H544.504ZM557.79 762.982V768.316H557.15V762.982H557.79ZM551.939 765.28C551.935 764.229 552.76 763.495 553.851 763.491C554.943 763.495 555.759 764.229 555.763 765.28C555.759 766.342 554.943 767.081 553.851 767.077C552.76 767.081 551.935 766.342 551.939 765.28ZM552.571 765.28C552.563 766.006 553.113 766.511 553.851 766.511C554.577 766.511 555.131 766.006 555.131 765.28C555.131 764.566 554.577 764.057 553.851 764.057C553.113 764.057 552.563 764.566 552.571 765.28ZM553.08 770.113V767.774H553.72V769.572H558.02V770.113H553.08ZM564.676 762.974V765.985H565.898V766.519H564.676V770.269H564.035V762.974H564.676ZM558.988 764.681V764.147H560.868V763.064H561.508V764.147H563.33V764.681H558.988ZM559.407 766.962C559.403 765.977 560.158 765.288 561.196 765.288C562.226 765.288 562.977 765.977 562.985 766.962C562.977 767.951 562.226 768.636 561.196 768.636C560.158 768.636 559.403 767.951 559.407 766.962ZM560.022 766.962C560.018 767.627 560.515 768.094 561.196 768.086C561.869 768.094 562.361 767.627 562.37 766.962C562.361 766.301 561.869 765.825 561.196 765.829C560.515 765.825 560.018 766.301 560.022 766.962ZM569.985 763.614V764.262H571.692V762.982H572.341V768.308H571.692V766.363H569.985V767.019H566.637V763.614H569.985ZM567.277 766.502H569.353V764.147H567.277V766.502ZM567.622 770.113V767.832H568.27V769.572H572.505V770.113H567.622ZM569.985 765.829H571.692V764.804H569.985V765.829ZM457.247 775.974V783.269H456.616V779.453H455.606V782.908H454.991V776.171H455.606V778.92H456.616V775.974H457.247ZM451.027 781.25C452.722 780.303 453.419 778.969 453.53 777.459H451.306V776.926H454.162C454.154 778.78 453.501 780.532 451.404 781.702L451.027 781.25ZM464.305 775.982V781.316H463.665V775.982H464.305ZM458.454 778.28C458.45 777.229 459.274 776.495 460.366 776.491C461.457 776.495 462.274 777.229 462.278 778.28C462.274 779.342 461.457 780.081 460.366 780.077C459.274 780.081 458.45 779.342 458.454 778.28ZM459.086 778.28C459.077 779.006 459.627 779.511 460.366 779.511C461.092 779.511 461.646 779.006 461.646 778.28C461.646 777.566 461.092 777.057 460.366 777.057C459.627 777.057 459.077 777.566 459.086 778.28ZM459.595 783.113V780.774H460.235V782.572H464.535V783.113H459.595ZM471.593 775.974V780.323H470.944V778.411H469.475V777.878H470.944V775.974H471.593ZM465.577 779.74C466.66 779.351 467.432 778.362 467.432 777.319V777.049H465.782V776.507H469.713V777.049H468.08V777.311C468.08 778.263 468.81 779.17 469.877 779.535L469.541 780.052C468.724 779.757 468.088 779.141 467.772 778.39C467.461 779.244 466.783 779.925 465.914 780.257L465.577 779.74ZM466.726 781.907C466.722 781.049 467.653 780.549 469.172 780.553C470.686 780.549 471.617 781.049 471.617 781.907C471.617 782.769 470.686 783.261 469.172 783.269C467.653 783.261 466.722 782.769 466.726 781.907ZM467.366 781.907C467.362 782.436 468.051 782.756 469.172 782.752C470.288 782.756 470.977 782.436 470.977 781.907C470.977 781.374 470.288 781.053 469.172 781.053C468.051 781.053 467.362 781.374 467.366 781.907ZM479.487 781.8V782.334H472.807V781.8H475.811V780.225H473.595V776.491H474.243V777.812H478.035V776.491H478.667V780.225H476.443V781.8H479.487ZM474.243 779.699H478.035V778.337H474.243V779.699ZM486.118 775.974V783.286H485.47V779.445H483.87V778.912H485.47V775.974H486.118ZM480.086 781.357C481.157 780.856 481.957 779.609 481.957 778.353V777.771H480.283V777.246H481.957V776.113H482.598V777.246H484.247V777.771H482.589V778.353C482.589 779.556 483.414 780.742 484.493 781.226L484.124 781.726C483.291 781.349 482.606 780.549 482.282 779.589C481.966 780.606 481.289 781.456 480.456 781.858L480.086 781.357ZM493.356 775.974V783.286H492.716V775.974H493.356ZM487.743 777.188V776.655H491.141V779.248H488.416V780.971C489.626 780.975 490.706 780.918 492.01 780.709L492.076 781.25C490.734 781.46 489.626 781.513 488.367 781.513H487.759V778.723H490.492V777.188H487.743ZM497.96 780.561C499.458 780.561 500.365 781.053 500.365 781.907C500.365 782.769 499.458 783.261 497.96 783.269C496.458 783.261 495.543 782.769 495.539 781.907C495.543 781.053 496.458 780.561 497.96 780.561ZM494.907 779.798V776.433H495.539V777.549H497.665V776.433H498.305V779.798H494.907ZM495.539 779.273H497.665V778.058H495.539V779.273ZM496.188 781.907C496.179 782.432 496.861 782.744 497.96 782.744C499.064 782.744 499.737 782.432 499.741 781.907C499.737 781.386 499.064 781.078 497.96 781.07C496.861 781.078 496.179 781.386 496.188 781.907ZM499.659 780.364V775.974H500.299V777.812H501.399V778.362H500.299V780.364H499.659ZM504.509 777.459C504.505 778.386 505.305 779.203 506.397 779.519L506.093 780.028C505.227 779.769 504.538 779.207 504.201 778.481C503.881 779.277 503.192 779.892 502.318 780.184L502.006 779.683C503.089 779.33 503.869 778.448 503.869 777.459V777.36H502.187V776.843H503.869V775.941H504.517V776.843H506.183V777.36H504.509V777.459ZM503.139 783.171V780.676H507.882V783.171H503.139ZM503.771 782.646H507.25V781.201H503.771V782.646ZM507.242 780.307V775.982H507.882V780.307H507.242ZM515.375 775.974V783.269H514.751V775.974H515.375ZM509.211 779.125C509.216 777.574 509.831 776.593 510.779 776.589C511.665 776.593 512.264 777.447 512.346 778.821H513.29V776.13H513.906V782.9H513.29V779.355H512.35C512.289 780.774 511.678 781.665 510.779 781.661C509.831 781.665 509.216 780.676 509.211 779.125ZM509.819 779.125C509.811 780.307 510.188 781.053 510.779 781.045C511.374 781.053 511.751 780.307 511.747 779.125C511.751 777.939 511.374 777.196 510.779 777.196C510.188 777.196 509.811 777.939 509.819 779.125ZM525.149 779.584V780.101H518.493V779.584H521.505V778.731H519.338V776.318H524.32V776.835H519.97V778.206H524.369V778.731H522.129V779.584H525.149ZM519.297 781.948C519.293 781.115 520.241 780.639 521.817 780.635C523.38 780.639 524.32 781.115 524.328 781.948C524.32 782.789 523.38 783.261 521.817 783.269C520.241 783.261 519.293 782.789 519.297 781.948ZM519.954 781.948C519.946 782.461 520.647 782.756 521.817 782.752C522.974 782.756 523.676 782.461 523.68 781.948C523.676 781.443 522.974 781.144 521.817 781.144C520.647 781.144 519.946 781.443 519.954 781.948ZM528.144 776.507C529.289 776.511 530.101 777.209 530.105 778.222C530.101 779.24 529.289 779.933 528.144 779.937C526.991 779.933 526.17 779.24 526.174 778.222C526.17 777.209 526.991 776.511 528.144 776.507ZM525.797 781.127C527.143 781.131 529.002 781.119 530.614 780.881L530.663 781.357C528.993 781.669 527.2 781.677 525.887 781.677L525.797 781.127ZM526.806 778.222C526.802 778.903 527.364 779.371 528.144 779.371C528.915 779.371 529.478 778.903 529.473 778.222C529.478 777.545 528.915 777.073 528.144 777.073C527.364 777.073 526.802 777.545 526.806 778.222ZM531.098 783.286V775.974H531.739V783.286H531.098ZM538.665 775.974V778.985H539.888V779.519H538.665V783.269H538.025V775.974H538.665ZM532.978 777.681V777.147H534.857V776.064H535.497V777.147H537.319V777.681H532.978ZM533.396 779.962C533.392 778.977 534.147 778.288 535.185 778.288C536.215 778.288 536.966 778.977 536.974 779.962C536.966 780.951 536.215 781.636 535.185 781.636C534.147 781.636 533.392 780.951 533.396 779.962ZM534.012 779.962C534.008 780.627 534.504 781.094 535.185 781.086C535.858 781.094 536.351 780.627 536.359 779.962C536.351 779.301 535.858 778.825 535.185 778.829C534.504 778.825 534.008 779.301 534.012 779.962ZM546.182 778.189V778.706H541.184V776.244H541.824V778.189H546.182ZM540.273 780.225V779.699H546.953V780.225H540.273ZM541.143 783.089V780.971H541.783V782.555H546.223V783.089H541.143ZM555.702 775.982V780.922H555.053V778.575H553.453V778.033H555.053V775.982H555.702ZM549.777 779.929C551.52 779.392 552.6 778.378 552.735 777.081H550.138V776.556H553.42C553.416 778.427 552.161 779.773 550.064 780.446L549.777 779.929ZM550.54 782.736C551.832 782.51 553.01 781.694 553.018 780.619V780.282H553.65V780.619C553.654 781.681 554.819 782.481 556.104 782.711L555.833 783.228C554.758 783.023 553.765 782.453 553.334 781.599C552.891 782.461 551.89 783.031 550.802 783.245L550.54 782.736ZM560.24 776.45C561.762 776.454 562.907 777.25 562.907 778.452C562.907 779.667 561.762 780.463 560.24 780.454C558.718 780.463 557.573 779.667 557.573 778.452C557.573 777.25 558.718 776.454 560.24 776.45ZM556.916 782.301V781.759H563.596V782.301H556.916ZM558.188 778.452C558.18 779.338 559.062 779.929 560.24 779.929C561.409 779.929 562.283 779.338 562.283 778.452C562.283 777.578 561.409 776.971 560.24 776.975C559.062 776.971 558.18 777.578 558.188 778.452ZM570.859 781.825V782.367H564.179V781.825H567.183V780.446H565.016V778.198H569.382V777.049H565V776.515H570.014V778.723H565.656V779.913H570.186V780.446H567.815V781.825H570.859ZM579.255 775.974V778.198H580.354V778.739H579.255V781.316H578.606V775.974H579.255ZM573.559 779.954C575.311 779.408 576.448 778.37 576.583 777.081H573.863V776.54H577.285C577.285 778.419 575.943 779.814 573.838 780.471L573.559 779.954ZM574.684 783.113V780.774H575.324V782.572H579.591V783.113H574.684ZM584.499 777.008C584.494 777.984 585.795 778.813 587.067 779.002L586.829 779.511C585.693 779.318 584.581 778.71 584.137 777.832C583.694 778.71 582.582 779.318 581.462 779.511L581.208 779.002C582.476 778.813 583.772 777.984 583.776 777.008V776.958H581.438V776.433H586.829V776.958H584.499V777.008ZM580.814 780.668V780.134H587.461V780.668H584.441V783.269H583.809V780.668H580.814ZM593.78 775.974V777.845H594.88V778.395H593.78V780.216H593.14V775.974H593.78ZM588.093 777.262V776.729H589.948V775.908H590.588V776.729H592.443V777.262H588.093ZM588.512 778.879C588.507 778.099 589.209 777.603 590.268 777.598C591.314 777.603 592.016 778.099 592.024 778.879C592.016 779.658 591.314 780.163 590.268 780.159C589.209 780.163 588.507 779.658 588.512 778.879ZM589.127 778.879C589.123 779.355 589.578 779.667 590.268 779.667C590.949 779.667 591.409 779.355 591.417 778.879C591.409 778.407 590.949 778.091 590.268 778.099C589.578 778.091 589.123 778.407 589.127 778.879ZM589.168 783.171V780.536H589.808V781.316H593.14V780.536H593.78V783.171H589.168ZM589.808 782.654H593.14V781.825H589.808V782.654ZM601.355 775.974V783.269H600.715V775.974H601.355ZM595.815 781.39V776.696H596.447V780.832C597.563 780.824 598.712 780.737 599.935 780.479L600.025 781.029C598.729 781.3 597.576 781.39 596.406 781.39H595.815ZM608.248 775.974V778.862H609.471V779.404H608.248V783.286H607.608V775.974H608.248ZM602.922 781.456V776.688H606.328V777.221H603.562V780.914C604.884 780.91 605.815 780.852 606.903 780.651L606.985 781.209C605.84 781.415 604.884 781.456 603.497 781.456H602.922ZM610.637 782.654C610.349 782.65 610.103 782.412 610.111 782.12C610.103 781.833 610.349 781.595 610.637 781.595C610.928 781.595 611.166 781.833 611.162 782.12C611.166 782.412 610.928 782.65 610.637 782.654Z" fill="white"/>
<path d="M450.723 783.946H516.089V784.517H450.723V783.946Z" fill="white"/>
</g>
<a href="https://www.pipc.go.kr/np/default/page.do?mCode=H010000000">
<rect fill="black" fill-opacity="0" x="0.0181274" y="14.4858" width="65.3654" height="10.0284"/>
</a>
<path d="M420.344 809.917C420.344 805.61 423.835 802.119 428.142 802.119H634.27C638.576 802.119 642.068 805.61 642.068 809.917V826.25C642.068 830.556 638.576 834.048 634.27 834.048H428.142C423.835 834.048 420.344 830.556 420.344 826.25V809.917Z" fill="#FFFEFB"/>
<path d="M499.384 823.436C498.75 824.05 498.059 823.953 497.393 823.662C496.688 823.365 496.042 823.352 495.298 823.662C494.368 824.063 493.876 823.947 493.32 823.436C490.166 820.184 490.631 815.233 494.212 815.052C495.085 815.097 495.693 815.53 496.203 815.569C496.966 815.414 497.697 814.968 498.511 815.026C499.487 815.103 500.224 815.491 500.709 816.189C498.692 817.398 499.17 820.055 501.019 820.798C500.651 821.768 500.172 822.731 499.377 823.442L499.384 823.436ZM496.139 815.013C496.042 813.571 497.212 812.382 498.556 812.266C498.744 813.933 497.044 815.175 496.139 815.013Z" fill="#1E1E1E"/>
<path d="M510.463 822.583H509.276L512.622 813.442H513.821L517.167 822.583H515.968L515.052 820.007H511.378L510.463 822.583ZM511.725 819.01H514.705L513.253 814.919H513.177L511.725 819.01ZM517.619 825.159V815.727H518.667V816.813H518.793C519.027 816.447 519.443 815.639 520.775 815.639C522.499 815.639 523.692 817.003 523.692 819.174C523.692 821.352 522.499 822.728 520.788 822.722C519.481 822.728 519.027 821.914 518.793 821.535H518.705V825.159H517.619ZM518.68 819.149C518.686 820.689 519.374 821.75 520.637 821.75C521.937 821.75 522.606 820.607 522.606 819.149C522.606 817.716 521.956 816.611 520.637 816.611C519.355 816.611 518.686 817.627 518.68 819.149ZM524.46 825.159V815.727H525.507V816.813H525.634C525.867 816.447 526.284 815.639 527.616 815.639C529.339 815.639 530.532 817.003 530.532 819.174C530.532 821.352 529.339 822.728 527.629 822.722C526.322 822.728 525.867 821.914 525.634 821.535H525.545V825.159H524.46ZM525.52 819.149C525.526 820.689 526.214 821.75 527.477 821.75C528.777 821.75 529.447 820.607 529.447 819.149C529.447 817.716 528.796 816.611 527.477 816.611C526.196 816.611 525.526 817.627 525.52 819.149ZM532.386 813.442V822.583H531.3V813.442H532.386ZM536.348 822.722C534.365 822.728 533.141 821.314 533.141 819.212C533.141 817.104 534.384 815.639 536.247 815.639C537.686 815.639 539.207 816.523 539.201 819.06V819.515H534.227C534.283 820.967 535.129 821.762 536.348 821.762C537.168 821.762 537.686 821.403 537.938 820.98H539.1C538.778 822.021 537.762 822.728 536.348 822.722ZM534.233 818.593H538.103C538.096 817.451 537.377 816.599 536.247 816.599C535.06 816.599 534.309 817.533 534.233 818.593ZM552.428 821.384V822.217H542.15V821.384H546.771V819.263H543.438V815.803H550.155V814.036H543.413V813.215H551.127V816.611H544.423V818.442H551.392V819.263H547.743V821.384H552.428ZM561.528 813.581V814.705C561.528 816.119 561.528 817.716 561.111 820.159L560.101 820.058C560.556 817.76 560.556 816.081 560.556 814.705V814.402H553.789V813.581H561.528ZM552.678 821.952V821.131H562.904V821.952H552.678ZM572.472 812.394V820.601H571.487V812.394H572.472ZM563.47 815.929C563.463 814.313 564.732 813.183 566.412 813.177C568.091 813.183 569.347 814.313 569.353 815.929C569.347 817.564 568.091 818.701 566.412 818.694C564.732 818.701 563.463 817.564 563.47 815.929ZM564.442 815.929C564.429 817.047 565.275 817.823 566.412 817.823C567.529 817.823 568.381 817.047 568.381 815.929C568.381 814.831 567.529 814.048 566.412 814.048C565.275 814.048 564.429 814.831 564.442 815.929ZM565.225 823.366V819.768H566.21V822.533H572.825V823.366H565.225Z" fill="#1E1E1E"/>
<path d="M420.344 847.017C420.344 842.71 423.835 839.219 428.142 839.219H634.27C638.576 839.219 642.068 842.71 642.068 847.017V863.349C642.068 867.656 638.576 871.147 634.27 871.147H428.142C423.835 871.147 420.344 867.656 420.344 863.349V847.017Z" fill="#C0C0C0"/>
<path d="M497.137 854.388L497.079 854.162H492.269V856.205H495.146C494.985 856.828 494.62 857.379 494.109 857.771C493.598 858.162 492.971 858.371 492.327 858.364C491.487 858.357 490.68 858.037 490.065 857.465C489.762 857.167 489.521 856.812 489.356 856.42C489.191 856.029 489.104 855.608 489.102 855.183C489.111 854.33 489.449 853.512 490.045 852.901C490.653 852.326 491.459 852.009 492.295 852.016C493.011 852.021 493.701 852.288 494.234 852.766L495.656 851.305C494.719 850.468 493.506 850.008 492.25 850.012C491.559 850.008 490.874 850.14 490.234 850.4C489.594 850.661 489.011 851.045 488.52 851.531C487.585 852.502 487.058 853.795 487.047 855.143C487.036 856.491 487.543 857.791 488.462 858.777C488.971 859.285 489.576 859.686 490.242 859.956C490.908 860.227 491.621 860.363 492.34 860.355C492.992 860.359 493.638 860.232 494.239 859.98C494.841 859.727 495.384 859.356 495.837 858.887C496.727 857.909 497.208 856.628 497.182 855.306C497.189 854.999 497.174 854.693 497.137 854.388Z" fill="#1E1E1E"/>
<path d="M512.296 853.395C511.904 852.221 511.014 851.476 509.708 851.476C508.092 851.476 506.81 852.751 506.804 855.112C506.81 857.467 508.092 858.742 509.783 858.748C511.324 858.742 512.391 857.719 512.409 856.097H510.023V855.1H513.521V856.084C513.521 858.351 511.961 859.809 509.783 859.809C507.34 859.809 505.699 858.003 505.705 855.112C505.699 852.221 507.359 850.416 509.708 850.416C511.639 850.416 513.129 851.628 513.47 853.395H512.296ZM517.243 859.821C515.374 859.828 514.111 858.414 514.111 856.286C514.111 854.146 515.374 852.739 517.243 852.739C519.105 852.739 520.355 854.146 520.348 856.286C520.355 858.414 519.105 859.828 517.243 859.821ZM515.197 856.286C515.204 857.656 515.847 858.862 517.243 858.862C518.625 858.862 519.263 857.656 519.263 856.286C519.263 854.923 518.625 853.698 517.243 853.698C515.847 853.698 515.204 854.923 515.197 856.286ZM523.932 859.821C522.063 859.828 520.8 858.414 520.8 856.286C520.8 854.146 522.063 852.739 523.932 852.739C525.794 852.739 527.044 854.146 527.037 856.286C527.044 858.414 525.794 859.828 523.932 859.821ZM521.886 856.286C521.893 857.656 522.536 858.862 523.932 858.862C525.314 858.862 525.952 857.656 525.952 856.286C525.952 854.923 525.314 853.698 523.932 853.698C522.536 853.698 521.893 854.923 521.886 856.286ZM530.595 862.397C528.935 862.397 527.811 861.671 527.691 860.402H528.828C528.973 861.103 529.623 861.45 530.595 861.45C531.769 861.45 532.489 860.939 532.489 859.809V858.42H532.401C532.167 858.799 531.732 859.575 530.406 859.582C528.739 859.575 527.489 858.319 527.489 856.16C527.489 854.052 528.695 852.739 530.419 852.739C531.75 852.739 532.18 853.547 532.426 853.913H532.514V852.827H533.575V859.872C533.569 861.64 532.268 862.397 530.595 862.397ZM528.588 856.198C528.588 857.618 529.257 858.609 530.557 858.609C531.814 858.609 532.508 857.707 532.514 856.198C532.508 854.727 531.833 853.711 530.557 853.711C529.238 853.711 528.588 854.815 528.588 856.198ZM535.744 850.542V859.683H534.658V850.542H535.744ZM539.706 859.821C537.724 859.828 536.499 858.414 536.499 856.312C536.499 854.203 537.743 852.739 539.605 852.739C541.044 852.739 542.565 853.622 542.559 856.16V856.615H537.585C537.642 858.067 538.487 858.862 539.706 858.862C540.526 858.862 541.044 858.502 541.297 858.079H542.458C542.136 859.121 541.12 859.828 539.706 859.821ZM537.591 855.693H541.461C541.454 854.55 540.735 853.698 539.605 853.698C538.418 853.698 537.667 854.632 537.591 855.693ZM555.786 858.483V859.316H545.508V858.483H550.129V856.362H546.796V852.903H553.513V851.135H546.771V850.314H554.485V853.711H547.781V855.541H554.75V856.362H551.102V858.483H555.786ZM564.886 850.681V851.804C564.886 853.218 564.886 854.815 564.469 857.259L563.459 857.158C563.914 854.86 563.914 853.18 563.914 851.804V851.501H557.147V850.681H564.886ZM556.036 859.051V858.231H566.262V859.051H556.036ZM575.83 849.494V857.7H574.845V849.494H575.83ZM566.828 853.029C566.822 851.413 568.09 850.283 569.77 850.277C571.449 850.283 572.705 851.413 572.711 853.029C572.705 854.664 571.449 855.8 569.77 855.794C568.09 855.8 566.822 854.664 566.828 853.029ZM567.8 853.029C567.787 854.146 568.633 854.923 569.77 854.923C570.887 854.923 571.739 854.146 571.739 853.029C571.739 851.931 570.887 851.148 569.77 851.148C568.633 851.148 567.787 851.931 567.8 853.029ZM568.583 860.465V856.867H569.568V859.632H576.183V860.465H568.583Z" fill="#1E1E1E"/>
<path d="M427.707 431.818V440.636H421.359V431.818H427.707ZM422.768 439.469H426.283V432.954H422.768V439.469ZM429.98 444.045V430.47H431.419V435.788H433.601V437H431.419V444.045H429.98ZM439.787 430.758C442.764 430.75 444.628 431.72 444.635 433.363C444.628 434.977 442.764 435.931 439.787 435.924C436.818 435.931 434.931 434.977 434.939 433.363C434.931 431.72 436.818 430.75 439.787 430.758ZM433.606 438.136V436.969H445.984V438.136H433.606ZM435.09 443.878V439.348H444.469V443.878H435.09ZM436.424 433.363C436.416 434.265 437.696 434.795 439.787 434.803C441.863 434.795 443.158 434.265 443.15 433.363C443.158 432.424 441.863 431.886 439.787 431.894C437.696 431.886 436.416 432.424 436.424 433.363ZM436.514 442.711H443.075V440.499H436.514V442.711ZM461.917 437.212V438.393H449.509V437.212H454.978V435.227H456.402V437.212H461.917ZM450.221 434.833C452.819 434.5 454.955 432.97 454.963 431.258V430.682H456.417V431.258C456.41 432.992 458.538 434.5 461.159 434.833L460.599 435.969C458.448 435.621 456.546 434.576 455.683 433.076C454.819 434.576 452.918 435.621 450.751 435.969L450.221 434.833ZM450.887 440.727V439.59H460.372V444.045H458.917V440.727H450.887ZM470.154 432.909C470.146 434.644 471.351 436.288 473.426 436.984L472.699 438.106C471.161 437.575 470.033 436.515 469.442 435.182C468.851 436.644 467.669 437.803 466.078 438.363L465.306 437.242C467.427 436.522 468.707 434.765 468.715 432.894V432.53H465.73V431.364H473.078V432.53H470.154V432.909ZM467.109 440.484V439.318H476.078V444.045H474.638V440.484H467.109ZM474.638 438.651V430.47H476.078V433.954H478.047V435.166H476.078V438.651H474.638ZM490.552 437.56V438.712H478.174V437.56H490.552ZM479.507 433.636C479.499 431.932 481.401 430.917 484.355 430.924C487.294 430.917 489.196 431.932 489.203 433.636C489.196 435.348 487.294 436.386 484.355 436.394C481.401 436.386 479.499 435.348 479.507 433.636ZM479.734 443.757V439.818H481.189V442.59H489.158V443.757H479.734ZM480.992 433.636C480.984 434.644 482.272 435.212 484.355 435.212C486.431 435.212 487.726 434.644 487.718 433.636C487.726 432.667 486.431 432.076 484.355 432.076C482.272 432.076 480.984 432.667 480.992 433.636ZM497.122 430.682V431.864H503.409V430.682H504.849V435.182H495.698V430.682H497.122ZM494.077 437.333V436.166H506.455V437.333H500.97V438.5H504.894V441.666H496.986V442.802H505.273V443.908H495.577V440.636H503.47V439.575H495.561V438.5H499.531V437.333H494.077ZM497.122 434.091H503.409V432.924H497.122V434.091ZM518.308 430.47V444.045H516.853V430.47H518.308ZM506.611 439.969C508.308 438.704 508.717 436.341 508.732 434.485V431.636H510.066V434.485C510.073 435.916 510.3 437.848 511.323 439.227C512.331 437.878 512.558 435.977 512.565 434.485V431.636H513.944V434.485C513.937 436.394 514.353 438.742 516.05 439.969L515.156 440.999C514.164 440.28 513.581 439.121 513.247 437.825C512.929 439.151 512.338 440.363 511.323 441.105C510.308 440.363 509.717 439.143 509.399 437.825C509.073 439.09 508.498 440.227 507.551 440.954L506.611 439.969ZM532.009 436.697V437.803H519.585V436.697H532.009ZM521.055 439.787V438.757H530.479V441.742H522.509V442.863H530.903V443.878H521.07V440.787H529.054V439.787H521.055ZM521.146 431.833V430.818H530.448V433.757H522.6V434.788H530.675V435.803H521.176V432.803H529.009V431.833H521.146ZM540.2 431.939C540.193 433.72 541.442 435.288 543.488 435.909L542.745 437.03C541.223 436.53 540.109 435.53 539.518 434.227C538.927 435.719 537.738 436.863 536.109 437.424L535.397 436.272C537.511 435.575 538.768 433.894 538.776 431.939V430.939H540.2V431.939ZM537.397 439.242V438.106H546.169V441.469H538.837V442.757H546.639V443.908H537.428V440.408H544.745V439.242H537.397ZM544.73 437.53V430.47H546.169V433.333H548.139V434.53H546.169V437.53H544.73ZM559.568 430.47V444.075H558.144V438.393H555.492V437.197H558.144V434.682H555.568V433.5H558.144V430.47H559.568ZM548.735 432.833V431.667H554.75V436.621H550.205V439.742C552.121 439.734 553.742 439.643 555.674 439.363L555.795 440.545C553.674 440.878 551.939 440.939 549.796 440.939H548.765V435.485H553.341V432.833H548.735ZM432.161 453.485V463.484H430.722V458.772H427.904V457.576H430.722V453.485H432.161ZM421.041 460.818C424.063 459.841 426.116 458 426.412 455.697H421.738V454.5H427.995C427.98 458.045 425.548 460.712 421.647 461.969L421.041 460.818ZM423.419 466.757V462.454H424.874V465.59H432.51V466.757H423.419ZM444.272 453.47V456.894H446.241V458.06H444.272V461.53H442.832V453.47H444.272ZM433.59 460.469C436.772 459.575 438.719 457.803 438.984 455.606H434.196V454.439H440.545C440.545 457.947 438.158 460.484 434.181 461.636L433.59 460.469ZM435.439 464.348C435.424 462.696 437.211 461.674 439.939 461.681C442.673 461.674 444.423 462.696 444.423 464.348C444.423 466.014 442.673 467.022 439.939 467.029C437.211 467.022 435.424 466.014 435.439 464.348ZM436.863 464.348C436.855 465.302 438.037 465.886 439.939 465.893C441.825 465.886 443.014 465.302 443.014 464.348C443.014 463.393 441.825 462.81 439.939 462.818C438.037 462.81 436.855 463.393 436.863 464.348ZM457.033 453.485V457.848H459.003V459.045H457.033V463.636H455.594V453.485H457.033ZM446.383 456.227V455.061H449.716V453.47H451.155V455.061H454.473V456.227H446.383ZM447.125 459.439C447.117 457.886 448.458 456.871 450.428 456.879C452.375 456.871 453.715 457.886 453.715 459.439C453.715 460.977 452.375 461.977 450.428 461.984C448.458 461.977 447.117 460.977 447.125 459.439ZM448.428 466.757V462.833H449.867V465.59H457.609V466.757H448.428ZM448.519 459.439C448.504 460.325 449.276 460.871 450.428 460.863C451.579 460.871 452.352 460.325 452.367 459.439C452.352 458.545 451.579 457.992 450.428 457.985C449.276 457.992 448.504 458.545 448.519 459.439ZM474.679 460.272V461.439H469.3V464.075H467.846V461.439H462.255V460.272H474.679ZM463.619 456.545C463.611 454.848 465.535 453.795 468.452 453.788C471.368 453.795 473.277 454.848 473.27 456.545C473.277 458.235 471.368 459.288 468.452 459.288C465.535 459.288 463.611 458.235 463.619 456.545ZM463.816 466.757V462.772H465.255V465.575H473.3V466.757H463.816ZM465.164 456.545C465.149 457.522 466.467 458.121 468.452 458.121C470.444 458.121 471.747 457.522 471.755 456.545C471.747 455.538 470.444 454.947 468.452 454.939C466.467 454.947 465.149 455.538 465.164 456.545ZM487.426 460.075V461.227H475.032V460.075H480.532V458.636H476.578V454.091H485.895V455.227H478.002V457.485H485.986V458.636H481.926V460.075H487.426ZM476.502 464.575C476.502 462.999 478.267 462.113 481.214 462.106C484.138 462.113 485.888 462.999 485.895 464.575C485.888 466.151 484.138 467.037 481.214 467.045C478.267 467.037 476.502 466.151 476.502 464.575ZM477.956 464.575C477.949 465.446 479.138 465.923 481.214 465.908C483.259 465.923 484.456 465.446 484.456 464.575C484.456 463.719 483.259 463.227 481.214 463.227C479.138 463.227 477.949 463.719 477.956 464.575ZM490.749 461.606V463.045H497.127V461.606H498.566V466.878H489.324V461.606H490.749ZM487.794 460.757V459.56H500.172V460.757H487.794ZM488.461 457.591C491.089 457.25 493.241 455.803 493.248 454.197V453.621H494.718V454.197C494.726 455.757 496.892 457.273 499.49 457.591L498.975 458.727C496.779 458.424 494.862 457.379 493.991 455.932C493.112 457.386 491.188 458.424 489.006 458.727L488.461 457.591ZM490.749 465.727H497.127V464.166H490.749V465.727ZM508.116 454.5V455.257C508.101 456.167 508.101 457.515 507.768 459.272L506.344 459.136C506.639 457.636 506.684 456.538 506.7 455.682H501.268V454.5H508.116ZM500.45 460.439C501.283 460.439 502.23 460.431 503.223 460.409V457.545H504.647V460.363C506.101 460.303 507.601 460.197 508.965 460L509.056 461.045C506.222 461.545 502.98 461.598 500.586 461.606L500.45 460.439ZM502.511 466.757V462.742H503.95V465.59H511.737V466.757H502.511ZM509.828 463.666V453.47H511.298V457.788H513.161V459H511.298V463.666H509.828ZM523.338 454.667V461H516.989V454.667H523.338ZM518.398 459.863H521.929V455.833H518.398V459.863ZM518.52 466.757V462.454H519.959V465.59H527.701V466.757H518.52ZM525.686 463.408V453.455H527.125V457.515H529.095V458.727H527.125V463.408H525.686ZM541.614 459.03V460.181H529.221V459.03H541.614ZM530.706 462.363V461.257H540.039V464.545H532.13V465.757H540.417V466.893H530.721V463.484H538.614V462.363H530.706ZM530.842 458.045V453.864H540.008V455.03H532.281V456.894H540.145V458.045H530.842ZM553.27 453.47V467.045H551.816V453.47H553.27ZM542.119 463.408C545.725 461.689 547.49 459.242 547.77 456.076H542.771V454.924H549.225C549.225 458.901 547.536 462.34 542.877 464.575L542.119 463.408Z" fill="white"/>
<path opacity="0.6" d="M423.284 479.997C424.69 480.002 425.688 481.296 425.699 483.324C425.688 485.357 424.69 486.645 423.284 486.64C421.868 486.645 420.875 485.357 420.88 483.324C420.875 481.296 421.868 480.002 423.284 479.997ZM421.674 483.324C421.68 484.875 422.34 485.894 423.284 485.889C424.239 485.894 424.883 484.875 424.883 483.324C424.883 481.773 424.239 480.754 423.284 480.748C422.34 480.754 421.68 481.773 421.674 483.324ZM427.276 488.797V479.257H428.113V483.066H429.713V483.796H428.113V488.797H427.276ZM433.606 480.298V483.635H430.848V485.803C431.948 485.797 432.984 485.755 434.218 485.545L434.293 486.232C432.935 486.468 431.857 486.511 430.655 486.511H430.032V482.938H432.79V481.006H430.011V480.298H433.606ZM434.883 488.303V479.471H435.656V483.034H437.062V479.257H437.867V488.797H437.062V483.732H435.656V488.303H434.883ZM448.841 479.257V488.818H448.004V483.506H445.718V486.404H441.318V480.008H442.166V482.498H444.892V480.008H445.718V482.809H448.004V479.257H448.841ZM442.166 485.706H444.892V483.174H442.166V485.706ZM458.605 484.547V485.234H449.901V484.547H458.605ZM451.039 488.593V485.932H451.876V487.885H457.693V488.593H451.039ZM451.06 483.646V479.621H457.521V480.298H451.908V481.296H457.263V481.95H451.908V482.98H457.575V483.646H451.06ZM463.239 479.428C465.358 479.428 466.603 480.013 466.609 481.07C466.603 482.154 465.358 482.739 463.239 482.744C461.109 482.739 459.858 482.154 459.858 481.07C459.858 480.013 461.109 479.428 463.239 479.428ZM458.893 484.075V483.388H467.585V484.075H458.893ZM459.944 485.545V484.901H466.469V487.037H460.803V488.024H466.759V488.69H459.966V486.415H465.643V485.545H459.944ZM460.738 481.07C460.728 481.736 461.656 482.1 463.239 482.1C464.822 482.1 465.745 481.736 465.75 481.07C465.745 480.442 464.822 480.067 463.239 480.061C461.656 480.067 460.728 480.442 460.738 481.07ZM477.808 481.553V482.251H471.294V479.418H472.121V481.553H477.808ZM470.103 483.775V483.088H478.839V483.775H474.857V484.794H477.712V486.973H472.067V488.014H478.055V488.69H471.219V486.361H476.886V485.449H471.198V484.794H474.042V483.775H470.103ZM486.993 479.257V488.818H486.156V483.635H484.299V482.927H486.156V479.257H486.993ZM479.427 480.845V480.147H483.72V483.485H480.296V485.803C481.943 485.803 483.135 485.749 484.524 485.492L484.589 486.2C483.156 486.457 481.917 486.517 480.189 486.522H479.459V482.787H482.904V480.845H479.427ZM499.051 486.908V487.617H490.316V486.908H494.243V485.105H491.41V482.165H497.119V480.662H491.389V479.965H497.946V482.852H492.247V484.408H498.171V485.105H495.07V486.908H499.051ZM506.819 480.276V481.231C506.819 482.433 506.819 483.791 506.465 485.867L505.606 485.781C505.992 483.828 505.992 482.401 505.992 481.231V480.974H500.24V480.276H506.819ZM499.296 487.391V486.694H507.989V487.391H499.296ZM516.153 479.267V486.243H515.316V479.267H516.153ZM508.502 482.272C508.496 480.898 509.575 479.938 511.002 479.933C512.429 479.938 513.497 480.898 513.503 482.272C513.497 483.662 512.429 484.628 511.002 484.622C509.575 484.628 508.496 483.662 508.502 482.272ZM509.328 482.272C509.317 483.222 510.036 483.882 511.002 483.882C511.952 483.882 512.676 483.222 512.676 482.272C512.676 481.338 511.952 480.673 511.002 480.673C510.036 480.673 509.317 481.338 509.328 482.272ZM509.993 488.593V485.535H510.83V487.885H516.454V488.593H509.993ZM521.603 479.428C523.723 479.428 524.967 480.013 524.973 481.07C524.967 482.154 523.723 482.739 521.603 482.744C519.473 482.739 518.223 482.154 518.223 481.07C518.223 480.013 519.473 479.428 521.603 479.428ZM517.257 484.075V483.388H525.949V484.075H517.257ZM518.308 485.545V484.901H524.833V487.037H519.167V488.024H525.123V488.69H518.33V486.415H524.007V485.545H518.308ZM519.103 481.07C519.092 481.736 520.02 482.1 521.603 482.1C523.186 482.1 524.109 481.736 524.114 481.07C524.109 480.442 523.186 480.067 521.603 480.061C520.02 480.067 519.092 480.442 519.103 481.07ZM531.912 481.306C531.917 482.594 532.932 483.753 534.359 484.204L533.93 484.88C532.819 484.499 531.939 483.716 531.504 482.712C531.091 483.796 530.195 484.655 529.057 485.073L528.617 484.397C530.05 483.898 531.059 482.658 531.064 481.306V480.748H528.832V480.061H534.112V480.748H531.912V481.306ZM530.195 488.593V485.599H531.032V487.885H536.656V488.593H530.195ZM535.518 486.264V479.267H536.355V486.264H535.518ZM545.561 479.257V485.298H544.756V482.562H543.479V484.955H542.685V479.45H543.479V481.864H544.756V479.257H545.561ZM537.405 481.081V480.405H539.444V479.332H540.281V480.405H542.298V481.081H537.405ZM537.823 483.227C537.818 482.229 538.66 481.591 539.862 481.596C541.07 481.591 541.907 482.229 541.912 483.227C541.907 484.209 541.07 484.848 539.862 484.848C538.66 484.848 537.818 484.209 537.823 483.227ZM538.574 483.227C538.574 483.812 539.1 484.215 539.862 484.215C540.624 484.215 541.15 483.812 541.15 483.227C541.15 482.621 540.624 482.218 539.862 482.218C539.1 482.218 538.574 482.621 538.574 483.227ZM539.208 487.134C539.197 486.06 540.393 485.459 542.406 485.459C544.413 485.459 545.609 486.06 545.614 487.134C545.609 488.18 544.413 488.776 542.406 488.776C540.393 488.776 539.197 488.18 539.208 487.134ZM540.045 487.134C540.034 487.751 540.919 488.126 542.406 488.121C543.887 488.126 544.767 487.751 544.777 487.134C544.767 486.479 543.887 486.114 542.406 486.125C540.919 486.114 540.034 486.479 540.045 487.134ZM551.204 480.909V481.596H546.417V480.909H548.403V479.546H549.24V480.909H551.204ZM546.761 484.408C546.761 483.141 547.625 482.245 548.81 482.24C550.012 482.245 550.871 483.141 550.882 484.408C550.871 485.69 550.012 486.592 548.81 486.597C547.625 486.592 546.761 485.69 546.761 484.408ZM547.512 484.408C547.512 485.256 548.054 485.862 548.81 485.857C549.572 485.862 550.13 485.256 550.13 484.408C550.13 483.571 549.572 482.959 548.81 482.948C548.054 482.959 547.512 483.571 547.512 484.408ZM551.697 488.325V479.493H552.491V483.281H553.758V479.257H554.563V488.797H553.758V483.978H552.491V488.325H551.697ZM560.238 480.609C560.232 481.886 561.933 482.97 563.597 483.217L563.285 483.882C561.799 483.63 560.345 482.836 559.765 481.687C559.186 482.836 557.732 483.63 556.267 483.882L555.934 483.217C557.592 482.97 559.288 481.886 559.293 480.609V480.544H556.235V479.858H563.285V480.544H560.238V480.609ZM555.419 485.395V484.698H564.112V485.395H560.163V488.797H559.336V485.395H555.419ZM567.233 481.972C567.233 483.49 567.973 485.127 569.24 485.878L568.757 486.533C567.834 485.975 567.174 484.955 566.841 483.791C566.492 485.062 565.784 486.157 564.829 486.737L564.292 486.103C565.612 485.331 566.417 483.64 566.417 482.004V480.158H567.233V481.972ZM568.188 483.399V482.68H569.808V479.46H570.602V488.314H569.808V483.399H568.188ZM571.761 488.797V479.257H572.577V488.797H571.761ZM582.116 486.865V487.574H573.38V486.865H575.548V484.295C574.732 483.871 574.238 483.184 574.238 482.315C574.238 480.839 575.687 479.868 577.726 479.858C579.765 479.868 581.214 480.839 581.214 482.315C581.214 483.168 580.736 483.844 579.948 484.268V486.865H582.116ZM575.054 482.315C575.049 483.383 576.159 484.097 577.726 484.097C579.277 484.097 580.398 483.383 580.398 482.315C580.398 481.247 579.277 480.544 577.726 480.555C576.159 480.544 575.049 481.247 575.054 482.315ZM576.374 486.865H579.1V484.596C578.687 484.703 578.225 484.762 577.726 484.762C577.238 484.762 576.782 484.708 576.374 484.601V486.865Z" fill="white"/>
<g clip-path="url(#clip1_1122_1302)">
<path d="M566.313 714.321C566.313 742.669 545.855 743.253 531.143 743.253C516.431 743.253 495.973 742.696 495.973 714.321C495.973 702.036 505.816 690.845 516.891 682.827C521.826 679.254 525.156 673.337 531.143 673.337C537.13 673.337 538.971 678.843 544.015 682.617C554.836 690.711 566.312 702.208 566.312 714.321H566.313Z" fill="url(#paint1_linear_1122_1302)"/>
<g opacity="0.8">
<path d="M541.546 715.355C543.152 715.355 544.455 714.053 544.455 712.446C544.455 710.839 543.152 709.537 541.546 709.537C539.939 709.537 538.637 710.839 538.637 712.446C538.637 714.053 539.939 715.355 541.546 715.355Z" fill="#1E1E1E"/>
<path d="M522.153 715.355C523.76 715.355 525.062 714.053 525.062 712.446C525.062 710.839 523.76 709.537 522.153 709.537C520.547 709.537 519.244 710.839 519.244 712.446C519.244 714.053 520.547 715.355 522.153 715.355Z" fill="#1E1E1E"/>
<path d="M522.153 715.355C523.76 715.355 525.062 714.053 525.062 712.446C525.062 710.839 523.76 709.537 522.153 709.537C520.547 709.537 519.244 710.839 519.244 712.446C519.244 714.053 520.547 715.355 522.153 715.355Z" fill="url(#paint2_linear_1122_1302)" fill-opacity="0.5"/>
<path d="M521.192 714.494C522.323 715.025 523.671 714.538 524.202 713.407C524.732 712.276 524.246 710.929 523.115 710.398C521.983 709.867 520.636 710.354 520.105 711.485C519.574 712.616 520.061 713.963 521.192 714.494Z" fill="url(#paint3_linear_1122_1302)" fill-opacity="0.3"/>
<path d="M540.684 714.494C541.816 715.025 543.163 714.538 543.694 713.407C544.225 712.276 543.738 710.929 542.607 710.398C541.476 709.867 540.128 710.354 539.597 711.485C539.067 712.616 539.553 713.963 540.684 714.494Z" fill="url(#paint4_linear_1122_1302)" fill-opacity="0.3"/>
</g>
</g>
</g>
<rect x="407" y="365.871" width="248.41" height="530.898" rx="23" stroke="#CFCFCF" stroke-width="6"/>
<g clip-path="url(#clip2_1122_1302)">
<rect x="695.549" y="368" width="242.41" height="524.898" rx="20" fill="#1E1E1E"/>
<g filter="url(#filter0_f_1122_1302)">
<circle cx="818.692" cy="706.404" r="257.601" fill="url(#paint5_linear_1122_1302)" fill-opacity="0.6"/>
</g>
<path d="M772.222 554.081V535.799H779.495C783.522 535.799 785.567 537.744 785.555 540.496C785.567 542.642 784.153 543.993 782.272 544.41V544.587C784.33 544.688 786.274 546.329 786.287 549.031C786.274 551.935 784.103 554.081 779.974 554.081H772.222ZM776.01 550.95H779.217C781.414 550.963 782.361 550.054 782.348 548.677C782.361 547.137 781.186 546.051 779.318 546.051H776.01V550.95ZM776.01 543.45H778.939C780.53 543.463 781.729 542.567 781.717 541.102C781.729 539.776 780.744 538.88 779.015 538.88H776.01V543.45ZM796.88 548.248V540.37H800.618V554.081H797.032V551.606H796.88C796.262 553.197 794.785 554.258 792.714 554.258C789.974 554.258 788.093 552.313 788.093 549.107V540.37H791.83V548.45C791.83 550.079 792.764 551.089 794.229 551.101C795.593 551.089 796.88 550.117 796.88 548.248ZM803.004 554.081V540.37H806.615V542.743H806.767C807.259 541.064 808.534 540.168 810.075 540.168C810.453 540.168 810.933 540.218 811.261 540.294V543.627C810.908 543.514 810.188 543.425 809.67 543.425C807.979 543.425 806.729 544.599 806.741 546.278V554.081H803.004ZM816.299 546.152V554.081H812.562V540.37H816.123V542.769H816.274C816.893 541.19 818.357 540.193 820.39 540.193C823.256 540.193 825.125 542.15 825.112 545.344V554.081H821.4V546.001C821.387 544.309 820.478 543.299 818.925 543.299C817.373 543.299 816.299 544.347 816.299 546.152ZM827.499 554.081V540.37H831.236V554.081H827.499ZM827.322 536.683C827.322 535.623 828.244 534.777 829.367 534.764C830.478 534.777 831.4 535.623 831.387 536.683C831.4 537.718 830.478 538.577 829.367 538.577C828.244 538.577 827.322 537.718 827.322 536.683ZM837.36 546.152V554.081H833.623V540.37H837.183V542.769H837.334C837.953 541.19 839.418 540.193 841.45 540.193C844.316 540.193 846.185 542.15 846.172 545.344V554.081H842.46V546.001C842.448 544.309 841.539 543.299 839.986 543.299C838.433 543.299 837.36 544.347 837.36 546.152ZM854.72 559.51C850.933 559.51 848.597 557.806 848.382 555.217H852.069C852.271 556.316 853.306 556.808 854.796 556.808C856.526 556.808 857.687 556.063 857.7 554.157V551.657H857.523C857.031 552.768 855.819 553.892 853.609 553.879C850.516 553.892 848.029 551.707 848.029 547.137C848.029 542.503 850.579 540.193 853.609 540.193C855.907 540.193 857.018 541.557 857.523 542.668H857.675V540.37H861.387V554.233C861.374 557.73 858.622 559.51 854.72 559.51ZM851.867 547.188C851.854 549.561 852.877 551.064 854.771 551.076C856.639 551.064 857.7 549.624 857.7 547.188C857.7 544.751 856.652 543.173 854.771 543.173C852.864 543.173 851.854 544.827 851.867 547.188Z" fill="white"/>
<path d="M788.169 580.026C788.017 578.574 786.868 577.728 785.012 577.728C783.093 577.728 782.02 578.612 782.008 579.824C781.995 581.15 783.358 581.743 784.937 582.097L786.578 582.501C789.709 583.221 792.045 584.811 792.057 587.854C792.045 591.2 789.444 593.346 784.987 593.334C780.568 593.346 777.753 591.301 777.639 587.374H781.326C781.452 589.218 782.917 590.152 784.937 590.152C786.931 590.152 788.219 589.218 788.219 587.854C788.219 586.604 787.083 586.023 785.088 585.531L783.093 585.051C780.013 584.294 778.119 582.753 778.119 580.077C778.106 576.756 781.035 574.547 785.038 574.547C789.09 574.547 791.754 576.794 791.805 580.026H788.169ZM793.308 577.93V574.799H808.282V577.93H802.676V593.081H798.914V577.93H793.308ZM810.921 593.081H806.83L813.168 574.799H818.042L824.354 593.081H820.289L818.913 588.864H812.297L810.921 593.081ZM813.257 585.91H817.953L815.668 578.915H815.542L813.257 585.91ZM825.908 593.081V574.799H833.079C837.233 574.799 839.619 577.135 839.619 580.759C839.619 583.258 838.47 585.076 836.387 585.973L840.276 593.081H836.084L832.587 586.592H829.696V593.081H825.908ZM829.696 583.511H832.372C834.619 583.511 835.718 582.589 835.705 580.759C835.718 578.915 834.619 577.918 832.372 577.905H829.696V583.511ZM841.021 577.93V574.799H855.995V577.93H850.389V593.081H846.627V577.93H841.021Z" fill="white"/>
<g clip-path="url(#clip3_1122_1302)">
<g filter="url(#filter1_f_1122_1302)">
<ellipse cx="816.753" cy="853.142" rx="104.398" ry="94.7013" transform="rotate(-180 816.753 853.142)" fill="url(#paint6_linear_1122_1302)"/>
</g>
<path d="M970.925 837.529C970.925 961.535 881.432 964.089 817.076 964.089C752.72 964.089 663.227 961.65 663.227 837.529C663.227 783.787 706.284 734.833 754.731 699.759C776.319 684.129 790.887 658.245 817.076 658.245C843.265 658.245 851.321 682.332 873.385 698.838C920.722 734.248 970.922 784.54 970.922 837.529H970.925Z" fill="url(#paint7_linear_1122_1302)"/>
<g opacity="0.8">
<path d="M859.479 842.049C866.507 842.049 872.204 836.352 872.204 829.324C872.204 822.297 866.507 816.6 859.479 816.6C852.451 816.6 846.754 822.297 846.754 829.324C846.754 836.352 852.451 842.049 859.479 842.049Z" fill="#1E1E1E"/>
<path d="M774.647 842.049C781.674 842.049 787.372 836.352 787.372 829.324C787.372 822.297 781.674 816.6 774.647 816.6C767.619 816.6 761.922 822.297 761.922 829.324C761.922 836.352 767.619 842.049 774.647 842.049Z" fill="#1E1E1E"/>
<path d="M774.647 842.049C781.674 842.049 787.372 836.352 787.372 829.324C787.372 822.297 781.674 816.6 774.647 816.6C767.619 816.6 761.922 822.297 761.922 829.324C761.922 836.352 767.619 842.049 774.647 842.049Z" fill="url(#paint8_linear_1122_1302)" fill-opacity="0.5"/>
<g filter="url(#filter2_f_1122_1302)">
<path d="M770.445 838.284C775.393 840.606 781.287 838.477 783.609 833.529C785.931 828.581 783.802 822.687 778.854 820.365C773.906 818.043 768.012 820.171 765.69 825.12C763.368 830.068 765.497 835.962 770.445 838.284Z" fill="url(#paint9_linear_1122_1302)" fill-opacity="0.5"/>
</g>
<g filter="url(#filter3_f_1122_1302)">
<path d="M771.5 838.414C776.603 840.251 782.229 837.603 784.065 832.5C785.902 827.397 783.254 821.772 778.152 819.935C773.049 818.098 767.423 820.746 765.586 825.849C763.75 830.952 766.397 836.577 771.5 838.414Z" fill="url(#paint10_linear_1122_1302)" fill-opacity="0.4"/>
</g>
<g filter="url(#filter4_f_1122_1302)">
<path d="M855.716 838.284C860.664 840.606 866.558 838.477 868.88 833.529C871.203 828.581 869.074 822.687 864.126 820.365C859.177 818.043 853.284 820.171 850.961 825.12C848.639 830.068 850.768 835.962 855.716 838.284Z" fill="url(#paint11_linear_1122_1302)" fill-opacity="0.5"/>
</g>
<g filter="url(#filter5_f_1122_1302)">
<path d="M856.676 838.414C861.779 840.251 867.404 837.603 869.241 832.5C871.078 827.397 868.43 821.772 863.327 819.935C858.225 818.098 852.599 820.746 850.762 825.849C848.925 830.952 851.573 836.577 856.676 838.414Z" fill="url(#paint12_linear_1122_1302)" fill-opacity="0.4"/>
</g>
</g>
</g>
<path d="M816.956 852.819C810.489 852.819 807.015 849.404 805.279 847.657C803.222 845.589 804.14 841.83 806.646 841.83C809.152 841.83 810.827 845.301 816.958 845.301C823.089 845.301 825.102 841.83 827.37 841.83C829.638 841.83 831.161 845.109 828.863 847.657C826.829 849.917 823.973 852.819 816.956 852.819Z" fill="#2B281F" fill-opacity="0.9"/>
</g>
<rect x="692.549" y="365" width="248.41" height="530.898" rx="23" stroke="#CFCFCF" stroke-width="6"/>
<g clip-path="url(#clip4_1122_1302)">
<rect x="981.268" y="368" width="242.41" height="524.898" rx="20" fill="#1E1E1E"/>
<path d="M1049.14 663.444C1049.14 660.573 1051.47 658.245 1054.34 658.245H1152.63C1155.5 658.245 1157.83 660.573 1157.83 663.444V686.389C1157.83 689.26 1155.5 691.588 1152.63 691.588H1054.34C1051.47 691.588 1049.14 689.26 1049.14 686.389V663.444Z" fill="white"/>
<path d="M1071.06 668.69V673.342H1067.15V674.917H1072.64V676.084H1060.26V674.917H1065.73V673.342H1061.83V668.69H1071.06ZM1061.64 678.508V677.372H1071.12V681.705H1069.67V678.508H1061.64ZM1063.24 672.19H1069.64V669.827H1063.24V672.19ZM1085.44 678.917V680.099H1073.02V678.917H1076.35V675.902H1074.11V674.736H1076.14V670.509H1074.08V669.327H1084.31V670.509H1082.23V674.736H1084.26V675.902H1082.04V678.917H1085.44ZM1077.57 674.736H1080.82V670.509H1077.57V674.736ZM1077.79 678.917H1080.6V675.902H1077.79V678.917ZM1096.36 668.13V673.539H1098.46V674.736H1096.36V681.69H1094.92V668.13H1096.36ZM1085.8 678.069C1089.2 676.372 1091.05 673.917 1091.34 670.751H1086.48V669.554H1092.81C1092.8 673.478 1091.07 676.985 1086.6 679.19L1085.8 678.069ZM1106.4 677.099C1106.4 678.266 1106.97 679.5 1108.21 680.235C1109.45 679.44 1110.06 678.144 1110.06 677.099V676.448H1111.47V677.099C1111.47 678.508 1112.4 679.872 1114.17 680.447L1113.46 681.508C1112.12 681.046 1111.2 680.137 1110.73 679.031C1110.3 680.122 1109.49 681.114 1108.25 681.629C1106.94 681.137 1106.12 680.175 1105.7 679.069C1105.21 680.137 1104.31 681.038 1103.03 681.508L1102.31 680.447C1104.05 679.826 1105 678.41 1105 677.099V676.448H1106.4V677.099ZM1101.96 672.099C1101.97 670.198 1103.5 668.895 1105.58 668.887C1107.66 668.895 1109.19 670.198 1109.19 672.099C1109.19 673.978 1107.66 675.281 1105.58 675.281C1103.5 675.281 1101.97 673.978 1101.96 672.099ZM1103.37 672.099C1103.36 673.281 1104.29 674.084 1105.58 674.084C1106.85 674.084 1107.78 673.281 1107.78 672.099C1107.78 670.91 1106.85 670.107 1105.58 670.115C1104.29 670.107 1103.36 670.91 1103.37 672.099ZM1111.5 675.872V668.145H1112.94V675.872H1111.5ZM1127.13 673.463V674.645H1125.02V681.69H1123.58V668.13H1125.02V673.463H1127.13ZM1114.96 678.281V669.448H1116.39V677.084C1118.28 677.076 1120.26 676.917 1122.42 676.478L1122.58 677.69C1120.26 678.152 1118.12 678.288 1116.08 678.281H1114.96ZM1139.63 678.811V680.008H1127.21V678.811H1130.18V675.266C1129.07 674.652 1128.38 673.683 1128.39 672.463C1128.38 670.327 1130.48 668.925 1133.39 668.918C1136.31 668.925 1138.41 670.327 1138.41 672.463C1138.41 673.66 1137.75 674.622 1136.66 675.235V678.811H1139.63ZM1129.79 672.463C1129.79 673.917 1131.26 674.864 1133.39 674.872C1135.5 674.864 1137 673.917 1137.01 672.463C1137 671.001 1135.5 670.069 1133.39 670.069C1131.26 670.069 1129.79 671.001 1129.79 672.463ZM1131.6 678.811H1135.21V675.796C1134.66 675.925 1134.04 675.993 1133.39 675.993C1132.75 675.993 1132.15 675.925 1131.6 675.796V678.811ZM1142.2 677.16C1142.22 675.175 1142.8 674.569 1143.8 673.948C1144.44 673.561 1144.93 673.001 1144.93 672.205C1144.93 671.258 1144.2 670.66 1143.29 670.66C1142.47 670.66 1141.68 671.16 1141.61 672.281H1139.97C1140.03 670.349 1141.49 669.296 1143.29 669.296C1145.26 669.296 1146.58 670.478 1146.58 672.205C1146.58 673.425 1145.99 674.236 1145.03 674.826C1144.12 675.379 1143.77 675.925 1143.74 677.16V677.251H1142.2V677.16ZM1141.96 679.447C1141.95 678.856 1142.44 678.372 1143.03 678.372C1143.62 678.372 1144.1 678.856 1144.11 679.447C1144.1 680.038 1143.62 680.515 1143.03 680.523C1142.44 680.515 1141.95 680.038 1141.96 679.447Z" fill="#5A5A5A"/>
<path d="M1102.82 698.355L1098.62 691.083L1107.02 691.083L1102.82 698.355Z" fill="white"/>
<g opacity="0.5">
<g clip-path="url(#clip5_1122_1302)">
<g filter="url(#filter6_f_1122_1302)">
<ellipse cx="1025.77" cy="882.713" rx="52.6837" ry="33.678" transform="rotate(-161.811 1025.77 882.713)" fill="url(#paint13_linear_1122_1302)" fill-opacity="0.5"/>
</g>
<path d="M1127.77 883.493C1103.21 958.245 1049.33 942.249 1010.96 929.64C972.579 917.03 919.694 898.025 944.278 823.204C954.922 790.808 990.295 769.735 1026.13 758.084C1042.1 752.893 1055.92 740.144 1071.53 745.275C1087.15 750.407 1087.18 766.505 1097.07 780.778C1118.29 811.398 1138.26 851.55 1127.77 883.493L1127.77 883.493Z" fill="url(#paint14_linear_1122_1302)"/>
<g opacity="0.8">
<path d="M1060.16 864.299C1064.35 865.676 1068.88 863.358 1070.27 859.122C1071.66 854.886 1069.39 850.335 1065.2 848.958C1061.01 847.581 1056.49 849.899 1055.09 854.135C1053.7 858.372 1055.97 862.922 1060.16 864.299Z" fill="#1E1E1E"/>
<path d="M1009.57 847.677C1013.77 849.054 1018.29 846.736 1019.68 842.5C1021.08 838.264 1018.81 833.713 1014.62 832.336C1010.42 830.959 1005.9 833.277 1004.51 837.513C1003.12 841.75 1005.38 846.3 1009.57 847.677Z" fill="#1E1E1E"/>
<path d="M1009.57 847.677C1013.77 849.054 1018.29 846.736 1019.68 842.5C1021.08 838.264 1018.81 833.713 1014.62 832.336C1010.42 830.959 1005.9 833.277 1004.51 837.513C1003.12 841.75 1005.38 846.3 1009.57 847.677Z" fill="url(#paint15_linear_1122_1302)" fill-opacity="0.5"/>
<g filter="url(#filter7_f_1122_1302)">
<path d="M1007.82 844.584C1010.31 846.953 1014.24 846.825 1016.61 844.297C1018.97 841.769 1018.87 837.799 1016.38 835.43C1013.89 833.06 1009.95 833.189 1007.59 835.717C1005.22 838.244 1005.32 842.214 1007.82 844.584Z" fill="url(#paint16_linear_1122_1302)" fill-opacity="0.5"/>
</g>
<g filter="url(#filter8_f_1122_1302)">
<path d="M1058.52 861.244C1061.01 863.613 1064.95 863.485 1067.31 860.957C1069.68 858.429 1069.57 854.459 1067.08 852.09C1064.59 849.721 1060.66 849.849 1058.29 852.377C1055.93 854.905 1056.03 858.875 1058.52 861.244Z" fill="url(#paint17_linear_1122_1302)" fill-opacity="0.5"/>
</g>
</g>
</g>
</g>
<path d="M1029.33 542.803V544.606H1023.08V550.015H1020.85V544.606H1014.66V542.803H1029.33ZM1015.39 540.099C1018.64 539.701 1020.44 538.128 1020.68 536.546H1015.99V534.778H1028.03V536.546H1023.33C1023.56 538.128 1025.34 539.701 1028.64 540.099L1027.83 541.866C1025 541.486 1022.98 540.284 1022.01 538.632C1021.03 540.284 1019.02 541.486 1016.22 541.866L1015.39 540.099ZM1043.74 533.93V550.015H1041.58V533.93H1043.74ZM1029.93 540.894C1029.93 537.297 1031.3 535.07 1033.43 535.079C1035.37 535.07 1036.69 536.882 1036.94 539.887H1038.26V534.16H1040.38V549.272H1038.26V541.672H1036.96C1036.76 544.827 1035.41 546.745 1033.43 546.745C1031.3 546.745 1029.93 544.509 1029.93 540.894ZM1032.02 540.894C1032 543.369 1032.53 544.588 1033.43 544.571C1034.36 544.588 1034.91 543.369 1034.9 540.894C1034.91 538.428 1034.36 537.2 1033.43 537.2C1032.53 537.2 1032 538.428 1032.02 540.894Z" fill="white"/>
<path d="M1055.41 530.415C1055.41 527.544 1057.74 525.217 1060.61 525.217H1110.33C1113.2 525.217 1115.53 527.544 1115.53 530.415V553.361C1115.53 556.232 1113.2 558.56 1110.33 558.56H1060.61C1057.74 558.56 1055.41 556.232 1055.41 553.361V530.415Z" fill="#5D5D5D"/>
<path d="M1103.6 535.117V545.146H1102.16V540.025H1099.19V542.889H1092.93V536.011H1094.37V538.313H1097.77V536.011H1099.19V538.859H1102.16V535.117H1103.6ZM1094.37 541.722H1097.77V539.419H1094.37V541.722ZM1094.74 548.389V544.162H1096.19V547.222H1103.9V548.389H1094.74Z" fill="white"/>
<line x1="1065.76" y1="553.065" x2="1089.03" y2="553.065" stroke="white" stroke-width="0.646426"/>
<path d="M1141.22 541.76V543.563H1135.12V546.356H1132.84V543.563H1126.5V541.76H1141.22ZM1128.02 537.571C1128.02 535.53 1130.35 534.248 1133.85 534.23C1137.33 534.248 1139.65 535.53 1139.66 537.571C1139.65 539.622 1137.33 540.894 1133.85 540.894C1130.35 540.894 1128.02 539.622 1128.02 537.571ZM1128.25 549.732V544.924H1130.53V547.911H1139.59V549.732H1128.25ZM1130.45 537.571C1130.45 538.552 1131.77 539.082 1133.85 539.091C1135.93 539.082 1137.24 538.552 1137.24 537.571C1137.24 536.546 1135.93 536.016 1133.85 536.016C1131.77 536.016 1130.45 536.546 1130.45 537.571ZM1156.34 541.531V543.298H1141.64V541.531H1147.9V540.152H1143.42V534.637H1154.58V536.387H1145.67V538.384H1154.67V540.152H1150.11V541.531H1156.34ZM1143.32 547.081C1143.32 545.172 1145.44 544.111 1148.96 544.111C1152.45 544.111 1154.54 545.172 1154.56 547.081C1154.54 548.963 1152.45 550.033 1148.96 550.033C1145.44 550.033 1143.32 548.963 1143.32 547.081ZM1145.62 547.081C1145.61 547.92 1146.73 548.318 1148.96 548.318C1151.14 548.318 1152.29 547.92 1152.3 547.081C1152.29 546.25 1151.14 545.826 1148.96 545.826C1146.73 545.826 1145.61 546.25 1145.62 547.081ZM1173.11 533.93V540.222H1175.48V542.078H1173.11V550.015H1170.88V533.93H1173.11ZM1160.33 538.137V536.334H1163.97V534.177H1166.23V536.334H1169.79V538.137H1160.33ZM1160.98 542.874C1160.98 540.629 1162.73 539.029 1165.1 539.038C1167.44 539.029 1169.2 540.629 1169.2 542.874C1169.2 545.119 1167.44 546.701 1165.1 546.709C1162.73 546.701 1160.98 545.119 1160.98 542.874ZM1163.14 542.874C1163.14 544.12 1163.96 544.862 1165.1 544.854C1166.23 544.862 1167.05 544.12 1167.05 542.874C1167.05 541.637 1166.23 540.877 1165.1 540.859C1163.96 540.877 1163.14 541.637 1163.14 542.874ZM1189.07 533.93V550.015H1186.79V533.93H1189.07ZM1175.6 545.455C1179.75 543.493 1181.58 540.947 1181.94 537.377H1176.46V535.609H1184.24C1184.23 540.488 1182.53 544.544 1176.78 547.257L1175.6 545.455Z" fill="white"/>
</g>
<rect x="978.268" y="365" width="248.41" height="530.898" rx="23" stroke="#CFCFCF" stroke-width="6"/>
<g clip-path="url(#clip6_1122_1302)">
<rect x="1266.99" y="368" width="242.41" height="524.898" rx="20" fill="#1E1E1E"/>
<path d="M1313.85 663.444C1313.85 660.573 1316.18 658.245 1319.05 658.245H1459.34C1462.21 658.245 1464.54 660.573 1464.54 663.444V686.389C1464.54 689.26 1462.21 691.588 1459.34 691.588H1319.05C1316.18 691.588 1313.85 689.26 1313.85 686.389V663.444Z" fill="white"/>
<path d="M1331.92 672.175V673.66H1337.44V674.826H1325.01V673.66H1330.5V672.175H1331.92ZM1325.65 671.902C1328.07 671.736 1330 670.796 1330.23 669.63H1326.17V668.524H1336.3V669.63H1332.19C1332.42 670.804 1334.33 671.736 1336.79 671.902L1336.32 672.978C1333.92 672.774 1331.94 671.902 1331.23 670.546C1330.5 671.895 1328.51 672.774 1326.12 672.978L1325.65 671.902ZM1326.17 677.599V676.493H1330.5V675.296H1331.92V676.493H1336.26V677.599H1326.17ZM1327.09 679.962C1327.08 678.788 1328.56 678.182 1331.2 678.175C1333.83 678.182 1335.34 678.788 1335.35 679.962C1335.34 681.152 1333.83 681.773 1331.2 681.765C1328.56 681.773 1327.08 681.152 1327.09 679.962ZM1328.56 679.962C1328.54 680.508 1329.5 680.796 1331.2 680.781C1332.92 680.796 1333.85 680.508 1333.86 679.962C1333.85 679.417 1332.92 679.167 1331.2 679.159C1329.5 679.167 1328.54 679.417 1328.56 679.962ZM1341.43 669.145C1343.46 669.153 1344.9 671.001 1344.91 673.902C1344.9 676.834 1343.46 678.682 1341.43 678.675C1339.4 678.682 1337.95 676.834 1337.96 673.902C1337.95 671.001 1339.4 669.153 1341.43 669.145ZM1339.34 673.902C1339.33 676.061 1340.19 677.387 1341.43 677.387C1342.68 677.387 1343.53 676.061 1343.53 673.902C1343.53 671.774 1342.68 670.44 1341.43 670.433C1340.19 670.44 1339.33 671.774 1339.34 673.902ZM1346.93 681.705V668.13H1348.37V673.448H1350.55V674.66H1348.37V681.705H1346.93ZM1362.98 678.811V680.008H1350.55V678.811H1353.52V675.266C1352.41 674.652 1351.73 673.683 1351.73 672.463C1351.73 670.327 1353.83 668.925 1356.73 668.918C1359.65 668.925 1361.75 670.327 1361.75 672.463C1361.75 673.66 1361.1 674.622 1360.01 675.235V678.811H1362.98ZM1353.13 672.463C1353.13 673.917 1354.61 674.864 1356.73 674.872C1358.85 674.864 1360.35 673.917 1360.36 672.463C1360.35 671.001 1358.85 670.069 1356.73 670.069C1354.61 670.069 1353.13 671.001 1353.13 672.463ZM1354.95 678.811H1358.55V675.796C1358 675.925 1357.39 675.993 1356.73 675.993C1356.1 675.993 1355.49 675.925 1354.95 675.796V678.811ZM1365.81 669.448L1365.68 677.251H1364.18L1364.04 669.448H1365.81ZM1363.86 679.447C1363.85 678.856 1364.35 678.372 1364.94 678.372C1365.52 678.372 1366 678.856 1366.01 679.447C1366 680.038 1365.52 680.515 1364.94 680.523C1364.35 680.515 1363.85 680.038 1363.86 679.447ZM1375.04 671.584C1375.02 674.061 1376.52 676.561 1378.63 677.493L1377.76 678.629C1376.2 677.887 1374.97 676.364 1374.33 674.508C1373.7 676.501 1372.45 678.137 1370.82 678.932L1369.95 677.72C1372.08 676.773 1373.58 674.175 1373.58 671.584V669.266H1375.04V671.584ZM1379.85 681.735V668.13H1381.29V681.735H1379.85ZM1387.56 670.569C1387.55 672.304 1388.75 673.948 1390.83 674.645L1390.1 675.766C1388.56 675.235 1387.43 674.175 1386.84 672.842C1386.25 674.304 1385.07 675.463 1383.48 676.023L1382.71 674.902C1384.83 674.183 1386.11 672.425 1386.12 670.554V670.19H1383.13V669.024H1390.48V670.19H1387.56V670.569ZM1384.51 678.144V676.978H1393.48V681.705H1392.04V678.144H1384.51ZM1392.04 676.311V668.13H1393.48V671.614H1395.45V672.827H1393.48V676.311H1392.04ZM1402.29 670.372V671.539H1395.55V670.372H1398.21V668.524H1399.64V670.372H1402.29ZM1395.98 675.478C1395.98 673.652 1397.22 672.357 1398.92 672.357C1400.64 672.357 1401.87 673.652 1401.88 675.478C1401.87 677.334 1400.64 678.637 1398.92 678.629C1397.22 678.637 1395.98 677.334 1395.98 675.478ZM1397.26 675.478C1397.25 676.629 1397.95 677.402 1398.92 677.402C1399.9 677.402 1400.61 676.629 1400.61 675.478C1400.61 674.349 1399.9 673.561 1398.92 673.554C1397.95 673.561 1397.25 674.349 1397.26 675.478ZM1402.91 681.068V668.433H1404.27V673.781H1405.83V668.13H1407.2V681.705H1405.83V674.963H1404.27V681.068H1402.91ZM1411.38 668.342V669.524H1417.67V668.342H1419.11V672.842H1415.2V674.023H1420.72V675.175H1408.34V674.023H1413.79V672.842H1409.96V668.342H1411.38ZM1409.82 677.235V676.16H1419.16V679.326H1411.25V680.462H1419.53V681.568H1409.84V678.296H1417.73V677.235H1409.82ZM1411.38 671.751H1417.67V670.584H1411.38V671.751ZM1431.89 668.13V673.645H1433.86V674.826H1431.89V681.705H1430.45V668.13H1431.89ZM1420.98 677.887C1422.96 675.819 1423.68 673.486 1423.83 670.766H1421.46V669.584H1425.19C1425.18 672.978 1424.58 676.069 1422.11 678.69L1420.98 677.887ZM1424.86 678.796C1426.88 676.432 1427.47 673.66 1427.58 670.766H1425.63V669.584H1428.93C1428.93 673.016 1428.5 676.637 1426.01 679.584L1424.86 678.796ZM1446.28 678.811V680.008H1433.86V678.811H1436.83V675.266C1435.72 674.652 1435.04 673.683 1435.04 672.463C1435.04 670.327 1437.13 668.925 1440.04 668.918C1442.96 668.925 1445.06 670.327 1445.06 672.463C1445.06 673.66 1444.41 674.622 1443.32 675.235V678.811H1446.28ZM1436.44 672.463C1436.44 673.917 1437.91 674.864 1440.04 674.872C1442.16 674.864 1443.66 673.917 1443.66 672.463C1443.66 671.001 1442.16 670.069 1440.04 670.069C1437.91 670.069 1436.44 671.001 1436.44 672.463ZM1438.25 678.811H1441.86V675.796C1441.31 675.925 1440.69 675.993 1440.04 675.993C1439.41 675.993 1438.8 675.925 1438.25 675.796V678.811ZM1448.85 677.16C1448.87 675.175 1449.46 674.569 1450.46 673.948C1451.09 673.561 1451.58 673.001 1451.58 672.205C1451.58 671.258 1450.85 670.66 1449.94 670.66C1449.12 670.66 1448.33 671.16 1448.26 672.281H1446.62C1446.68 670.349 1448.14 669.296 1449.94 669.296C1451.91 669.296 1453.23 670.478 1453.23 672.205C1453.23 673.425 1452.65 674.236 1451.68 674.826C1450.77 675.379 1450.42 675.925 1450.4 677.16V677.251H1448.85V677.16ZM1448.61 679.447C1448.6 678.856 1449.09 678.372 1449.68 678.372C1450.27 678.372 1450.75 678.856 1450.76 679.447C1450.75 680.038 1450.27 680.515 1449.68 680.523C1449.09 680.515 1448.6 680.038 1448.61 679.447Z" fill="#5A5A5A"/>
<path d="M1388.53 698.355L1384.33 691.083L1392.73 691.083L1388.53 698.355Z" fill="white"/>
<g clip-path="url(#clip7_1122_1302)">
<g filter="url(#filter9_f_1122_1302)">
<ellipse cx="1311.49" cy="882.713" rx="52.6837" ry="33.678" transform="rotate(-161.811 1311.49 882.713)" fill="url(#paint18_linear_1122_1302)" fill-opacity="0.5"/>
</g>
<path d="M1413.49 883.493C1388.93 958.245 1335.06 942.249 1296.68 929.64C1258.3 917.03 1205.42 898.025 1230 823.204C1240.64 790.808 1276.02 769.735 1311.85 758.084C1327.82 752.893 1341.64 740.144 1357.26 745.275C1372.87 750.407 1372.91 766.505 1382.79 780.778C1404.01 811.398 1423.98 851.55 1413.49 883.493L1413.49 883.493Z" fill="url(#paint19_linear_1122_1302)"/>
<g opacity="0.8">
<path d="M1345.89 864.299C1350.08 865.676 1354.6 863.358 1355.99 859.122C1357.39 854.886 1355.12 850.335 1350.93 848.958C1346.74 847.581 1342.21 849.899 1340.82 854.135C1339.43 858.372 1341.69 862.922 1345.89 864.299Z" fill="#1E1E1E"/>
<path d="M1295.3 847.677C1299.49 849.054 1304.01 846.736 1305.41 842.5C1306.8 838.264 1304.53 833.713 1300.34 832.336C1296.15 830.959 1291.62 833.277 1290.23 837.513C1288.84 841.75 1291.11 846.3 1295.3 847.677Z" fill="#1E1E1E"/>
<path d="M1295.3 847.677C1299.49 849.054 1304.01 846.736 1305.41 842.5C1306.8 838.264 1304.53 833.713 1300.34 832.336C1296.15 830.959 1291.62 833.277 1290.23 837.513C1288.84 841.75 1291.11 846.3 1295.3 847.677Z" fill="url(#paint20_linear_1122_1302)" fill-opacity="0.5"/>
<g filter="url(#filter10_f_1122_1302)">
<path d="M1293.54 844.584C1296.03 846.953 1299.97 846.825 1302.33 844.297C1304.69 841.769 1304.59 837.799 1302.1 835.43C1299.61 833.06 1295.67 833.189 1293.31 835.717C1290.95 838.244 1291.05 842.214 1293.54 844.584Z" fill="url(#paint21_linear_1122_1302)" fill-opacity="0.5"/>
</g>
<g filter="url(#filter11_f_1122_1302)">
<path d="M1344.24 861.244C1346.73 863.613 1350.67 863.485 1353.03 860.957C1355.4 858.429 1355.3 854.459 1352.81 852.09C1350.31 849.721 1346.38 849.849 1344.01 852.377C1341.65 854.905 1341.75 858.875 1344.24 861.244Z" fill="url(#paint22_linear_1122_1302)" fill-opacity="0.5"/>
</g>
</g>
</g>
<path d="M1318.64 863.91C1314.34 862.497 1312.78 859.447 1312.01 857.896C1311.1 856.06 1312.54 853.74 1314.2 854.287C1315.87 854.835 1316.22 857.529 1320.3 858.868C1324.38 860.208 1326.48 858.32 1327.99 858.816C1329.5 859.311 1329.79 861.843 1327.7 863.049C1325.85 864.12 1323.31 865.443 1318.64 863.91Z" fill="#2B281F" fill-opacity="0.9"/>
<path d="M1315.05 542.803V544.606H1308.8V550.015H1306.57V544.606H1300.38V542.803H1315.05ZM1301.11 540.099C1304.36 539.701 1306.16 538.128 1306.4 536.546H1301.71V534.778H1313.75V536.546H1309.05C1309.28 538.128 1311.06 539.701 1314.37 540.099L1313.55 541.866C1310.72 541.486 1308.7 540.284 1307.73 538.632C1306.75 540.284 1304.74 541.486 1301.94 541.866L1301.11 540.099ZM1329.46 533.93V550.015H1327.3V533.93H1329.46ZM1315.65 540.894C1315.65 537.297 1317.02 535.07 1319.15 535.079C1321.09 535.07 1322.41 536.882 1322.66 539.887H1323.98V534.16H1326.1V549.272H1323.98V541.672H1322.68C1322.48 544.827 1321.13 546.745 1319.15 546.745C1317.02 546.745 1315.65 544.509 1315.65 540.894ZM1317.74 540.894C1317.72 543.369 1318.25 544.588 1319.15 544.571C1320.08 544.588 1320.63 543.369 1320.62 540.894C1320.63 538.428 1320.08 537.2 1319.15 537.2C1318.25 537.2 1317.72 538.428 1317.74 540.894Z" fill="white"/>
<path d="M1341.13 530.415C1341.13 527.544 1343.46 525.217 1346.33 525.217H1396.05C1398.92 525.217 1401.25 527.544 1401.25 530.415V553.361C1401.25 556.232 1398.92 558.56 1396.05 558.56H1346.33C1343.46 558.56 1341.13 556.232 1341.13 553.361V530.415Z" fill="#5D5D5D"/>
<path d="M1367.05 547.54C1364.78 547.54 1363.16 546.321 1363.09 544.525H1364.79C1364.85 545.487 1365.81 546.101 1367.03 546.101C1368.36 546.101 1369.32 545.381 1369.32 544.313C1369.32 543.23 1368.42 542.457 1366.85 542.45H1365.91V541.086H1366.85C1368.1 541.094 1368.97 540.397 1368.97 539.344C1368.97 538.344 1368.22 537.662 1367.06 537.662C1365.97 537.662 1364.98 538.276 1364.94 539.268H1363.34C1363.38 537.48 1365.03 536.268 1367.08 536.268C1369.24 536.268 1370.59 537.632 1370.58 539.253C1370.59 540.503 1369.82 541.397 1368.64 541.692V541.768C1370.14 541.98 1371.01 542.987 1371 544.374C1371.01 546.199 1369.32 547.54 1367.05 547.54ZM1389.32 535.117V545.146H1387.88V540.025H1384.91V542.889H1378.65V536.011H1380.09V538.313H1383.49V536.011H1384.91V538.859H1387.88V535.117H1389.32ZM1380.09 541.722H1383.49V539.419H1380.09V541.722ZM1380.46 548.389V544.162H1381.91V547.222H1389.62V548.389H1380.46Z" fill="white"/>
<line x1="1351.48" y1="553.065" x2="1374.75" y2="553.065" stroke="white" stroke-width="0.646426"/>
<path d="M1426.94 541.76V543.563H1420.84V546.356H1418.56V543.563H1412.22V541.76H1426.94ZM1413.74 537.571C1413.74 535.53 1416.07 534.248 1419.57 534.23C1423.05 534.248 1425.38 535.53 1425.38 537.571C1425.38 539.622 1423.05 540.894 1419.57 540.894C1416.07 540.894 1413.74 539.622 1413.74 537.571ZM1413.97 549.732V544.924H1416.25V547.911H1425.31V549.732H1413.97ZM1416.18 537.571C1416.17 538.552 1417.49 539.082 1419.57 539.091C1421.65 539.082 1422.96 538.552 1422.96 537.571C1422.96 536.546 1421.65 536.016 1419.57 536.016C1417.49 536.016 1416.17 536.546 1416.18 537.571ZM1442.07 541.531V543.298H1427.36V541.531H1433.62V540.152H1429.14V534.637H1440.3V536.387H1431.39V538.384H1440.39V540.152H1435.83V541.531H1442.07ZM1429.04 547.081C1429.04 545.172 1431.16 544.111 1434.68 544.111C1438.17 544.111 1440.26 545.172 1440.28 547.081C1440.26 548.963 1438.17 550.033 1434.68 550.033C1431.16 550.033 1429.04 548.963 1429.04 547.081ZM1431.34 547.081C1431.33 547.92 1432.45 548.318 1434.68 548.318C1436.86 548.318 1438.01 547.92 1438.02 547.081C1438.01 546.25 1436.86 545.826 1434.68 545.826C1432.45 545.826 1431.33 546.25 1431.34 547.081ZM1458.83 533.93V540.222H1461.2V542.078H1458.83V550.015H1456.6V533.93H1458.83ZM1446.05 538.137V536.334H1449.69V534.177H1451.95V536.334H1455.51V538.137H1446.05ZM1446.71 542.874C1446.7 540.629 1448.45 539.029 1450.82 539.038C1453.17 539.029 1454.92 540.629 1454.92 542.874C1454.92 545.119 1453.17 546.701 1450.82 546.709C1448.45 546.701 1446.7 545.119 1446.71 542.874ZM1448.86 542.874C1448.86 544.12 1449.68 544.862 1450.82 544.854C1451.95 544.862 1452.77 544.12 1452.77 542.874C1452.77 541.637 1451.95 540.877 1450.82 540.859C1449.68 540.877 1448.86 541.637 1448.86 542.874ZM1474.79 533.93V550.015H1472.51V533.93H1474.79ZM1461.32 545.455C1465.47 543.493 1467.3 540.947 1467.66 537.377H1462.18V535.609H1469.96C1469.95 540.488 1468.25 544.544 1462.5 547.257L1461.32 545.455Z" fill="white"/>
</g>
<rect x="1263.99" y="365" width="248.41" height="530.898" rx="23" stroke="#CFCFCF" stroke-width="6"/>
<path d="M122.46 138.14C119.08 138.14 116.72 135.76 116.72 132.38V123.56H118.16V132.4C118.16 135.02 119.94 136.86 122.46 136.86C124.98 136.86 126.76 135.02 126.76 132.4V123.56H128.2V132.38C128.2 135.76 125.84 138.14 122.46 138.14ZM131.089 123.56H132.529V138H131.089V123.56ZM144.422 136.72C147.822 136.72 150.222 134.26 150.222 130.78C150.222 127.3 147.822 124.84 144.422 124.84H141.502V136.72H144.422ZM140.062 138V123.56H144.422C148.642 123.56 151.622 126.54 151.622 130.78C151.622 135.02 148.642 138 144.422 138H140.062ZM161.086 132.34C160.926 130.7 160.206 129.06 158.046 129.06C156.286 129.06 154.906 130.42 154.666 132.36L161.086 132.34ZM153.186 132.92C153.186 129.9 155.166 127.78 157.986 127.78C161.146 127.78 162.046 130.3 162.146 130.54C162.746 132.18 162.506 133.6 162.506 133.62H154.666C154.926 135.48 156.306 136.78 158.006 136.78C160.306 136.78 160.986 135.36 161.126 135.16L162.246 135.82C162.246 135.82 161.326 138.06 157.986 138.06C155.166 138.06 153.186 135.94 153.186 132.92ZM165.179 135.48C165.859 136.5 166.899 136.86 167.719 136.86C169.059 136.86 169.999 136.14 169.999 135.1C169.999 132.86 164.459 133.9 164.459 130.44C164.459 128.8 165.879 127.64 167.879 127.64C168.999 127.64 170.319 128.1 171.039 129.24L169.979 130.1C169.439 129.2 168.559 128.92 167.879 128.92C166.719 128.92 165.899 129.54 165.899 130.44C165.899 132.66 171.439 131.62 171.439 135.1C171.439 136.88 169.899 138.14 167.719 138.14C166.479 138.14 164.999 137.6 164.099 136.34L165.179 135.48ZM173.42 127.82H174.86V138H173.42V127.82ZM173.22 124.32C173.22 123.8 173.6 123.42 174.14 123.42C174.66 123.42 175.04 123.8 175.04 124.32C175.04 124.86 174.66 125.24 174.14 125.24C173.6 125.24 173.22 124.86 173.22 124.32ZM181.936 136.86C183.836 136.86 185.336 135.08 185.336 133C185.336 130.96 183.816 129.18 181.936 129.18C179.936 129.18 178.516 130.76 178.516 133C178.516 135.26 179.936 136.86 181.936 136.86ZM177.076 133C177.076 130 179.076 127.9 181.916 127.9C183.436 127.9 184.736 128.7 185.336 130V127.82H186.776V137.5C186.736 140.48 184.816 142.58 181.816 142.58C180.196 142.58 178.756 141.86 177.716 140.3L178.896 139.58C179.636 140.74 180.656 141.3 181.816 141.3C183.976 141.3 185.316 139.72 185.336 137.48V135.96C184.636 137.22 183.216 138.14 181.916 138.14C179.076 138.14 177.076 136.02 177.076 133ZM196.386 132C196.386 130.3 195.306 129.1 193.786 129.1C191.986 129.1 190.726 130.5 190.726 132V138H189.286V127.82H190.726V129.56C191.426 128.54 192.686 127.82 193.786 127.82C196.166 127.82 197.826 129.48 197.826 131.86V138H196.386V132ZM201.716 126.48C202.236 126.48 202.596 126.84 202.596 127.36C202.596 127.88 202.236 128.26 201.716 128.26C201.196 128.26 200.816 127.88 200.816 127.36C200.816 126.84 201.196 126.48 201.716 126.48ZM200.816 134.1C200.816 133.58 201.196 133.22 201.716 133.22C202.236 133.22 202.596 133.58 202.596 134.1C202.596 134.62 202.236 135 201.716 135C201.196 135 200.816 134.62 200.816 134.1ZM217.329 136.88C220.649 136.88 222.969 134.36 222.969 130.78C222.969 127.2 220.649 124.68 217.329 124.68C214.009 124.68 211.689 127.2 211.689 130.78C211.689 134.36 214.009 136.88 217.329 136.88ZM210.229 130.78C210.229 126.44 213.169 123.4 217.329 123.4C221.489 123.4 224.429 126.44 224.429 130.78C224.429 135.12 221.489 138.16 217.329 138.16C213.169 138.16 210.229 135.12 210.229 130.78ZM233.707 132C233.707 130.3 232.627 129.1 231.107 129.1C229.307 129.1 228.047 130.5 228.047 132V138H226.607V127.82H228.047V129.56C228.747 128.54 230.007 127.82 231.107 127.82C233.487 127.82 235.147 129.48 235.147 131.86V138H233.707V132ZM242.362 138.16C241.242 138.16 239.842 137.68 238.902 136V138H237.462V123.56H238.902V129.96C239.842 128.32 241.242 127.82 242.382 127.82C245.242 127.82 247.262 129.96 247.262 132.98C247.262 136.02 245.242 138.16 242.362 138.16ZM238.902 132.98C238.902 135.12 240.482 136.88 242.342 136.88C244.382 136.88 245.822 135.26 245.822 132.98C245.822 130.7 244.382 129.1 242.342 129.1C240.482 129.1 238.902 130.86 238.902 132.98ZM253.634 136.8C255.634 136.8 257.054 135.2 257.054 132.92C257.054 130.64 255.634 129.04 253.634 129.04C251.634 129.04 250.234 130.64 250.234 132.92C250.234 135.2 251.634 136.8 253.634 136.8ZM248.794 132.92C248.794 129.9 250.794 127.76 253.634 127.76C256.494 127.76 258.494 129.9 258.494 132.92C258.494 135.94 256.494 138.08 253.634 138.08C250.794 138.08 248.794 135.94 248.794 132.92ZM264.879 136.86C266.679 136.86 268.299 135.24 268.319 133C268.299 130.78 266.679 129.16 264.879 129.16C262.879 129.16 261.459 130.74 261.459 133C261.459 135.26 262.879 136.86 264.879 136.86ZM260.019 133C260.019 130 262.019 127.88 264.859 127.88C266.039 127.88 267.359 128.5 268.279 129.98V127.82H269.719V138H268.279V136C267.319 137.56 266.059 138.14 264.859 138.14C262.019 138.14 260.019 136.02 260.019 133ZM273.159 129.96C273.719 128.64 275.219 127.72 276.779 127.72V129.12C274.859 129.12 273.159 130.82 273.159 132.76V138H271.719V127.82H273.159V129.96ZM282.465 138.16C279.605 138.16 277.605 136.02 277.605 132.98C277.605 129.94 279.605 127.8 282.465 127.8C283.765 127.8 285.125 128.46 285.965 129.98V123.56H287.405V138H285.965V135.98C285.105 137.5 283.765 138.16 282.465 138.16ZM279.045 132.98C279.045 135.26 280.485 136.88 282.525 136.88C284.365 136.88 285.965 135.12 285.965 132.98C285.965 130.86 284.365 129.08 282.525 129.08C280.485 129.08 279.045 130.7 279.045 132.98ZM290.189 127.82H291.629V138H290.189V127.82ZM289.989 124.32C289.989 123.8 290.369 123.42 290.909 123.42C291.429 123.42 291.809 123.8 291.809 124.32C291.809 124.86 291.429 125.24 290.909 125.24C290.369 125.24 289.989 124.86 289.989 124.32ZM301.324 132C301.324 130.3 300.244 129.1 298.724 129.1C296.924 129.1 295.664 130.5 295.664 132V138H294.224V127.82H295.664V129.56C296.364 128.54 297.624 127.82 298.724 127.82C301.104 127.82 302.764 129.48 302.764 131.86V138H301.324V132ZM309.538 136.86C311.438 136.86 312.938 135.08 312.938 133C312.938 130.96 311.418 129.18 309.538 129.18C307.538 129.18 306.118 130.76 306.118 133C306.118 135.26 307.538 136.86 309.538 136.86ZM304.678 133C304.678 130 306.678 127.9 309.518 127.9C311.038 127.9 312.338 128.7 312.938 130V127.82H314.378V137.5C314.338 140.48 312.418 142.58 309.418 142.58C307.798 142.58 306.358 141.86 305.318 140.3L306.498 139.58C307.238 140.74 308.258 141.3 309.418 141.3C311.578 141.3 312.918 139.72 312.938 137.48V135.96C312.238 137.22 310.818 138.14 309.518 138.14C306.678 138.14 304.678 136.02 304.678 133Z" fill="white"/>
<path d="M117.08 185.64H136.44V189.6H129.32C129.36 193.84 131.92 198.12 137.64 200L135.08 203.84C131.16 202.56 128.48 199.96 126.92 196.76C125.32 200.28 122.48 203.08 118.32 204.48L115.72 200.6C121.64 198.72 124.28 194.08 124.32 189.6H117.08V185.64ZM120.56 210.64V206.72H144.4V219.36H139.44V210.64H120.56ZM139.44 205.08V183.52H144.4V192.24H149.24V196.32H144.4V205.08H139.44ZM150.069 201.84H182.469V205.76H150.069V201.84ZM153.309 191.92C153.309 187.4 158.469 184.56 166.269 184.56C174.069 184.56 179.229 187.4 179.229 191.92C179.229 196.52 174.069 199.32 166.269 199.32C158.469 199.32 153.309 196.52 153.309 191.92ZM154.029 218.72V208.28H158.949V214.76H178.829V218.72H154.029ZM158.429 191.92C158.429 194.2 161.349 195.36 166.269 195.36C171.189 195.36 174.109 194.2 174.109 191.92C174.109 189.68 171.189 188.52 166.269 188.52C161.349 188.52 158.429 189.68 158.429 191.92ZM195.985 184.96H220.305V197.56H210.625V201.08H224.385V204.96H191.985V201.08H205.665V197.56H195.985V184.96ZM195.585 211.6V207.68H220.465V219.36H215.545V211.6H195.585ZM200.825 193.68H215.425V188.84H200.825V193.68ZM225.854 211.36H233.934V204.44H228.534V200.56H233.294V190.32H228.374V186.36H255.574V190.32H250.654V200.56H255.494V204.44H250.054V211.36H258.294V215.36H225.854V211.36ZM238.294 200.56H245.734V190.32H238.294V200.56ZM238.854 211.36H245.174V204.44H238.854V211.36ZM259.682 204.24H292.122V208.12H278.242V219.36H273.282V208.12H259.682V204.24ZM263.402 200.72V184.92H268.282V189.04H283.362V184.92H288.242V200.72H263.402ZM268.282 196.76H283.362V192.92H268.282V196.76ZM319.591 183.88H322.551V218.96H319.591V199.68H312.191V197.24H319.591V183.88ZM295.431 210.52V187.16H311.591V189.64H298.391V196.96H310.031V199.4H298.391V208C304.871 208 308.991 207.84 313.791 206.92L314.111 209.4C309.071 210.28 304.831 210.52 298.071 210.52H295.431ZM353.707 190.4H361.467V183.92H364.467V202H361.467V192.88H353.707V190.4ZM335.747 199.68C340.947 197.92 344.547 193.52 344.547 188.36V185H347.467V188.36C347.467 192.96 351.147 197.24 356.107 198.92L354.547 201.24C350.707 199.84 347.627 197.04 346.067 193.52C344.627 197.48 341.427 200.56 337.347 202.04L335.747 199.68ZM342.027 206.24V203.84H364.467V212.12H345.027V216.04H365.787V218.44H342.067V209.84H361.507V206.24H342.027ZM388.176 193.08H395.296V183.92H398.296V204.76H395.296V195.56H388.176V193.08ZM369.736 202.04C374.856 200.16 378.576 195.44 378.576 190.36V189H370.656V186.52H389.336V189H381.576V190.36C381.576 194.92 385.096 199.28 390.136 201.04L388.576 203.44C384.656 202 381.616 199.04 380.136 195.4C378.656 199.56 375.376 202.84 371.256 204.44L369.736 202.04ZM375.176 212.4C375.176 208.32 379.576 205.88 386.816 205.88C394.016 205.88 398.416 208.32 398.416 212.4C398.416 216.52 394.016 218.88 386.816 218.88C379.576 218.88 375.176 216.52 375.176 212.4ZM378.176 212.4C378.176 214.96 381.456 216.52 386.816 216.52C392.136 216.52 395.456 214.96 395.456 212.4C395.456 209.8 392.136 208.24 386.816 208.24C381.456 208.24 378.176 209.8 378.176 212.4ZM403.325 190H410.565V184.92H413.525V190H420.725V192.44H403.325V190ZM404.565 202.8C404.565 198.16 407.685 194.88 412.045 194.88C416.405 194.88 419.565 198.16 419.565 202.8C419.565 207.52 416.405 210.76 412.045 210.76C407.685 210.76 404.565 207.52 404.565 202.8ZM407.245 202.8C407.245 205.96 409.245 208.2 412.045 208.2C414.845 208.2 416.885 205.96 416.885 202.8C416.885 199.68 414.845 197.4 412.045 197.4C409.245 197.4 407.245 199.68 407.245 202.8ZM422.565 217.16V184.76H425.405V198.72H430.085V183.92H432.925V218.92H430.085V201.2H425.405V217.16H422.565ZM439.194 186.84H442.154V192.2H453.554V186.84H456.514V202.52H449.354V208.92C452.554 208.8 455.794 208.56 458.794 208.12L459.034 210.36C451.634 211.6 443.434 211.72 437.314 211.68L436.834 209.16C439.674 209.16 442.954 209.12 446.354 209.04V202.52H439.194V186.84ZM442.154 200.08H453.554V194.56H442.154V200.08ZM461.034 218.92V183.92H463.994V198.68H469.674V201.2H463.994V218.92H461.034ZM471.063 211.88H478.943V202.32C475.983 200.8 474.183 198.28 474.183 195.12C474.183 189.68 479.503 186.16 486.863 186.16C494.303 186.16 499.543 189.68 499.543 195.12C499.543 198.24 497.783 200.72 494.903 202.28V211.88H502.783V214.36H471.063V211.88ZM477.103 195.12C477.103 199.08 481.183 201.68 486.863 201.68C492.543 201.68 496.663 199.08 496.663 195.12C496.663 191.16 492.543 188.56 486.863 188.56C481.183 188.56 477.103 191.16 477.103 195.12ZM481.903 211.88H491.903V203.44C490.383 203.84 488.703 204.04 486.863 204.04C485.063 204.04 483.423 203.84 481.903 203.44V211.88Z" fill="white"/>
<defs>
<filter id="filter0_f_1122_1302" x="461.092" y="348.804" width="715.201" height="715.201" filterUnits="userSpaceOnUse" color-interpolation-filters="sRGB">
<feFlood flood-opacity="0" result="BackgroundImageFix"/>
<feBlend mode="normal" in="SourceGraphic" in2="BackgroundImageFix" result="shape"/>
<feGaussianBlur stdDeviation="50" result="effect1_foregroundBlur_1122_1302"/>
</filter>
<filter id="filter1_f_1122_1302" x="686.498" y="732.584" width="260.509" height="241.116" filterUnits="userSpaceOnUse" color-interpolation-filters="sRGB">
<feFlood flood-opacity="0" result="BackgroundImageFix"/>
<feBlend mode="normal" in="SourceGraphic" in2="BackgroundImageFix" result="shape"/>
<feGaussianBlur stdDeviation="12.9285" result="effect1_foregroundBlur_1122_1302"/>
</filter>
<filter id="filter2_f_1122_1302" x="762.811" y="817.486" width="23.6774" height="23.6774" filterUnits="userSpaceOnUse" color-interpolation-filters="sRGB">
<feFlood flood-opacity="0" result="BackgroundImageFix"/>
<feBlend mode="normal" in="SourceGraphic" in2="BackgroundImageFix" result="shape"/>
<feGaussianBlur stdDeviation="0.969638" result="effect1_foregroundBlur_1122_1302"/>
</filter>
<filter id="filter3_f_1122_1302" x="763.065" y="817.413" width="23.5231" height="23.5231" filterUnits="userSpaceOnUse" color-interpolation-filters="sRGB">
<feFlood flood-opacity="0" result="BackgroundImageFix"/>
<feBlend mode="normal" in="SourceGraphic" in2="BackgroundImageFix" result="shape"/>
<feGaussianBlur stdDeviation="0.969638" result="effect1_foregroundBlur_1122_1302"/>
</filter>
<filter id="filter4_f_1122_1302" x="848.082" y="817.486" width="23.6774" height="23.6774" filterUnits="userSpaceOnUse" color-interpolation-filters="sRGB">
<feFlood flood-opacity="0" result="BackgroundImageFix"/>
<feBlend mode="normal" in="SourceGraphic" in2="BackgroundImageFix" result="shape"/>
<feGaussianBlur stdDeviation="0.969638" result="effect1_foregroundBlur_1122_1302"/>
</filter>
<filter id="filter5_f_1122_1302" x="848.24" y="817.413" width="23.5231" height="23.5231" filterUnits="userSpaceOnUse" color-interpolation-filters="sRGB">
<feFlood flood-opacity="0" result="BackgroundImageFix"/>
<feBlend mode="normal" in="SourceGraphic" in2="BackgroundImageFix" result="shape"/>
<feGaussianBlur stdDeviation="0.969638" result="effect1_foregroundBlur_1122_1302"/>
</filter>
<filter id="filter6_f_1122_1302" x="948.756" y="820.874" width="154.023" height="123.677" filterUnits="userSpaceOnUse" color-interpolation-filters="sRGB">
<feFlood flood-opacity="0" result="BackgroundImageFix"/>
<feBlend mode="normal" in="SourceGraphic" in2="BackgroundImageFix" result="shape"/>
<feGaussianBlur stdDeviation="12.9285" result="effect1_foregroundBlur_1122_1302"/>
</filter>
<filter id="filter7_f_1122_1302" x="1003.94" y="831.794" width="16.3161" height="16.4254" filterUnits="userSpaceOnUse" color-interpolation-filters="sRGB">
<feFlood flood-opacity="0" result="BackgroundImageFix"/>
<feBlend mode="normal" in="SourceGraphic" in2="BackgroundImageFix" result="shape"/>
<feGaussianBlur stdDeviation="0.969638" result="effect1_foregroundBlur_1122_1302"/>
</filter>
<filter id="filter8_f_1122_1302" x="1054.64" y="848.454" width="16.3161" height="16.4254" filterUnits="userSpaceOnUse" color-interpolation-filters="sRGB">
<feFlood flood-opacity="0" result="BackgroundImageFix"/>
<feBlend mode="normal" in="SourceGraphic" in2="BackgroundImageFix" result="shape"/>
<feGaussianBlur stdDeviation="0.969638" result="effect1_foregroundBlur_1122_1302"/>
</filter>
<filter id="filter9_f_1122_1302" x="1234.48" y="820.874" width="154.023" height="123.677" filterUnits="userSpaceOnUse" color-interpolation-filters="sRGB">
<feFlood flood-opacity="0" result="BackgroundImageFix"/>
<feBlend mode="normal" in="SourceGraphic" in2="BackgroundImageFix" result="shape"/>
<feGaussianBlur stdDeviation="12.9285" result="effect1_foregroundBlur_1122_1302"/>
</filter>
<filter id="filter10_f_1122_1302" x="1289.66" y="831.794" width="16.3161" height="16.4254" filterUnits="userSpaceOnUse" color-interpolation-filters="sRGB">
<feFlood flood-opacity="0" result="BackgroundImageFix"/>
<feBlend mode="normal" in="SourceGraphic" in2="BackgroundImageFix" result="shape"/>
<feGaussianBlur stdDeviation="0.969638" result="effect1_foregroundBlur_1122_1302"/>
</filter>
<filter id="filter11_f_1122_1302" x="1340.37" y="848.454" width="16.3161" height="16.4254" filterUnits="userSpaceOnUse" color-interpolation-filters="sRGB">
<feFlood flood-opacity="0" result="BackgroundImageFix"/>
<feBlend mode="normal" in="SourceGraphic" in2="BackgroundImageFix" result="shape"/>
<feGaussianBlur stdDeviation="0.969638" result="effect1_foregroundBlur_1122_1302"/>
</filter>
<linearGradient id="paint0_linear_1122_1302" x1="960" y1="361" x2="960" y2="2200.5" gradientUnits="userSpaceOnUse">
<stop stop-color="#201D1D"/>
<stop offset="1" stop-color="#DCC3AC"/>
</linearGradient>
<linearGradient id="paint1_linear_1122_1302" x1="530.88" y1="635.198" x2="530.88" y2="729.576" gradientUnits="userSpaceOnUse">
<stop stop-color="#FF6B35"/>
<stop offset="1" stop-color="#994020" stop-opacity="0"/>
</linearGradient>
<linearGradient id="paint2_linear_1122_1302" x1="522.274" y1="713.801" x2="522.274" y2="709.77" gradientUnits="userSpaceOnUse">
<stop stop-opacity="0"/>
<stop offset="1"/>
</linearGradient>
<linearGradient id="paint3_linear_1122_1302" x1="522.565" y1="711.568" x2="523.115" y2="710.398" gradientUnits="userSpaceOnUse">
<stop stop-color="white" stop-opacity="0"/>
<stop offset="1" stop-color="white"/>
</linearGradient>
<linearGradient id="paint4_linear_1122_1302" x1="542.058" y1="711.568" x2="542.607" y2="710.398" gradientUnits="userSpaceOnUse">
<stop stop-color="white" stop-opacity="0"/>
<stop offset="1" stop-color="white"/>
</linearGradient>
<linearGradient id="paint5_linear_1122_1302" x1="818.692" y1="448.804" x2="818.692" y2="748.745" gradientUnits="userSpaceOnUse">
<stop stop-color="#FFC56D"/>
<stop offset="1" stop-color="#FFE2AD" stop-opacity="0"/>
</linearGradient>
<linearGradient id="paint6_linear_1122_1302" x1="817.076" y1="943.153" x2="817.076" y2="751.404" gradientUnits="userSpaceOnUse">
<stop stop-color="#FFC56D" stop-opacity="0"/>
<stop offset="1" stop-color="#FFC56D"/>
</linearGradient>
<linearGradient id="paint7_linear_1122_1302" x1="815.925" y1="736.786" x2="815.925" y2="979.519" gradientUnits="userSpaceOnUse">
<stop stop-color="#FF6B35"/>
<stop offset="1" stop-color="#994020" stop-opacity="0"/>
</linearGradient>
<linearGradient id="paint8_linear_1122_1302" x1="775.175" y1="835.251" x2="775.175" y2="817.618" gradientUnits="userSpaceOnUse">
<stop stop-opacity="0"/>
<stop offset="1"/>
</linearGradient>
<linearGradient id="paint9_linear_1122_1302" x1="776.451" y1="825.485" x2="778.854" y2="820.365" gradientUnits="userSpaceOnUse">
<stop stop-color="white" stop-opacity="0"/>
<stop offset="1" stop-color="white"/>
</linearGradient>
<linearGradient id="paint10_linear_1122_1302" x1="773.723" y1="830.518" x2="775.663" y2="825.67" gradientUnits="userSpaceOnUse">
<stop stop-color="white" stop-opacity="0"/>
<stop offset="0.480769" stop-color="white" stop-opacity="0.6"/>
<stop offset="1" stop-color="white" stop-opacity="0"/>
</linearGradient>
<linearGradient id="paint11_linear_1122_1302" x1="862.456" y1="824.7" x2="864.126" y2="820.365" gradientUnits="userSpaceOnUse">
<stop stop-color="white" stop-opacity="0"/>
<stop offset="1" stop-color="white"/>
</linearGradient>
<linearGradient id="paint12_linear_1122_1302" x1="858.899" y1="830.518" x2="860.838" y2="825.67" gradientUnits="userSpaceOnUse">
<stop stop-color="white" stop-opacity="0"/>
<stop offset="0.480769" stop-color="white" stop-opacity="0.6"/>
<stop offset="1" stop-color="white" stop-opacity="0"/>
</linearGradient>
<linearGradient id="paint13_linear_1122_1302" x1="1025.93" y1="914.723" x2="1025.93" y2="846.532" gradientUnits="userSpaceOnUse">
<stop stop-color="#FFC56D" stop-opacity="0"/>
<stop offset="1" stop-color="#FFC56D"/>
</linearGradient>
<linearGradient id="paint14_linear_1122_1302" x1="1055.29" y1="792.395" x2="1007.21" y2="938.715" gradientUnits="userSpaceOnUse">
<stop stop-color="#FF6B35"/>
<stop offset="1" stop-color="#994020" stop-opacity="0"/>
</linearGradient>
<linearGradient id="paint15_linear_1122_1302" x1="1011.24" y1="843.683" x2="1014.73" y2="833.053" gradientUnits="userSpaceOnUse">
<stop stop-opacity="0"/>
<stop offset="1"/>
</linearGradient>
<linearGradient id="paint16_linear_1122_1302" x1="1013.93" y1="838.045" x2="1016.4" y2="835.45" gradientUnits="userSpaceOnUse">
<stop stop-color="white" stop-opacity="0"/>
<stop offset="1" stop-color="white"/>
</linearGradient>
<linearGradient id="paint17_linear_1122_1302" x1="1065.23" y1="854.376" x2="1067.1" y2="852.103" gradientUnits="userSpaceOnUse">
<stop stop-color="white" stop-opacity="0"/>
<stop offset="1" stop-color="white"/>
</linearGradient>
<linearGradient id="paint18_linear_1122_1302" x1="1311.65" y1="914.723" x2="1311.65" y2="846.532" gradientUnits="userSpaceOnUse">
<stop stop-color="#FFC56D" stop-opacity="0"/>
<stop offset="1" stop-color="#FFC56D"/>
</linearGradient>
<linearGradient id="paint19_linear_1122_1302" x1="1341.01" y1="792.395" x2="1292.94" y2="938.715" gradientUnits="userSpaceOnUse">
<stop stop-color="#FF6B35"/>
<stop offset="1" stop-color="#994020" stop-opacity="0"/>
</linearGradient>
<linearGradient id="paint20_linear_1122_1302" x1="1296.96" y1="843.683" x2="1300.45" y2="833.053" gradientUnits="userSpaceOnUse">
<stop stop-opacity="0"/>
<stop offset="1"/>
</linearGradient>
<linearGradient id="paint21_linear_1122_1302" x1="1299.66" y1="838.045" x2="1302.12" y2="835.45" gradientUnits="userSpaceOnUse">
<stop stop-color="white" stop-opacity="0"/>
<stop offset="1" stop-color="white"/>
</linearGradient>
<linearGradient id="paint22_linear_1122_1302" x1="1350.95" y1="854.376" x2="1352.82" y2="852.103" gradientUnits="userSpaceOnUse">
<stop stop-color="white" stop-opacity="0"/>
<stop offset="1" stop-color="white"/>
</linearGradient>
<clipPath id="clip0_1122_1302">
<rect x="410" y="368.871" width="242.41" height="524.898" rx="20" fill="white"/>
</clipPath>
<clipPath id="clip1_1122_1302">
<rect width="70.3401" height="69.9168" fill="white" transform="translate(495.973 673.337)"/>
</clipPath>
<clipPath id="clip2_1122_1302">
<rect x="695.549" y="368" width="242.41" height="524.898" rx="20" fill="white"/>
</clipPath>
<clipPath id="clip3_1122_1302">
<rect width="307.699" height="305.847" fill="white" transform="translate(663.227 658.245)"/>
</clipPath>
<clipPath id="clip4_1122_1302">
<rect x="981.268" y="368" width="242.41" height="524.898" rx="20" fill="white"/>
</clipPath>
<clipPath id="clip5_1122_1302">
<rect width="193.142" height="194.063" fill="white" transform="translate(979.787 715.131) rotate(18.1888)"/>
</clipPath>
<clipPath id="clip6_1122_1302">
<rect x="1266.99" y="368" width="242.41" height="524.898" rx="20" fill="white"/>
</clipPath>
<clipPath id="clip7_1122_1302">
<rect width="193.142" height="194.063" fill="white" transform="translate(1265.51 715.131) rotate(18.1888)"/>
</clipPath>
</defs>
</svg>
