<svg width="200" height="37" viewBox="0 0 200 37" fill="none" xmlns="http://www.w3.org/2000/svg">
<g clip-path="url(#clip0_196_6829)">
<path d="M0.211182 27.3526C0.360438 24.7768 2.89991 23.1575 5.08117 24.2643C7.6313 25.5579 9.86587 26.1615 11.109 26.2435C12.4693 26.3346 12.8211 25.772 12.8552 25.1913C12.8936 24.5126 12.5034 24.196 11.9213 24.0115C10.3584 23.4695 5.81039 22.6359 2.63765 19.2652C1.01076 17.5025 -0.036155 15.1476 0.160009 11.7587C0.567263 4.7349 5.9234 0.275583 14.222 0.824457C17.3009 1.02715 20.7764 1.92448 23.5334 3.17026C24.8746 3.77608 25.7125 5.21772 25.623 6.77097L25.4119 10.4172C25.269 12.886 22.915 14.5053 20.7572 13.6034C18.3947 12.6173 16.4118 12.1527 15.3457 12.0821C14.0301 11.9955 13.6378 12.5034 13.6058 13.0363C13.5631 13.7628 14.045 14.0862 14.5781 14.3163C15.9128 14.8424 20.414 15.7238 23.478 18.648C25.5867 20.7319 26.5334 23.2759 26.3501 26.4234C25.9599 33.1556 20.608 37.5193 11.9917 36.9499C8.73366 36.7335 5.00441 35.8203 2.04702 34.4583C0.727179 33.8525 -0.0830638 32.4132 0.0064894 30.8827L0.211182 27.3526Z" fill="white"/>
<path d="M132.332 34.2693C132.332 34.2693 132.332 36.2302 130.315 36.2302H121.986C121.312 36.2302 118.332 36.5194 118.332 34.3103V3.3365C118.332 3.3365 118.304 2.44829 118.634 1.76276C119.112 0.774335 120.515 0.794832 120.515 0.794832H130.234C131.502 0.794832 131.788 1.20022 131.98 1.41886C132.421 1.92219 132.372 2.9926 132.372 2.9926L132.357 9.44244L135.334 5.22454C138.622 0.553419 138.059 0.883654 145.445 0.883654C150.912 0.883654 150.863 1.71949 150.863 3.60297C150.863 4.4092 150.315 5.38852 149.658 6.5842C149.074 7.64778 143.157 17.8372 143.157 17.8372L150.255 32.5225C150.255 32.5225 150.91 33.7272 150.91 34.3877C150.91 36.1482 149.095 36.2279 148.172 36.2279H138.75C136.031 36.2279 134.844 33.6179 134.844 33.6179L132.328 27.4824V34.267L132.332 34.2693Z" fill="white"/>
<path d="M76.1307 2.32527C81.327 2.00869 83.0988 7.31979 84.0967 12.0456C86.0072 21.0803 86.7812 35.4057 74.2181 36.4943C71.2821 36.7494 62.7553 36.7699 60.1668 35.7929C50.8 32.2491 52.7744 20.4153 58.1881 13.5646C59.6487 11.7153 61.3587 9.54489 63.7703 7.68191C67.7831 4.5777 71.6339 2.60084 76.1286 2.32754L76.1307 2.32527ZM65.6552 22.4036C62.0325 26.0043 63.2713 31.3131 68.8812 31.5477C76.2096 31.8551 77.7981 25.8699 76.1265 21.3309C75.2864 19.0488 73.28 18.2016 69.8108 19.4929C67.9174 20.199 66.4014 21.6611 65.6552 22.4013V22.4036Z" fill="#FF5722"/>
<path d="M43.2883 27.5371C41.9983 27.6418 41.2136 27.5485 41.2072 28.9309C41.2072 28.9309 41.1262 32.1171 41.1262 34.3695C41.1262 35.5265 40.1262 36.2894 38.5612 36.3008C37.9087 36.3054 30.0024 36.3008 30.0024 36.3008C28.5078 36.3008 27.5845 35.9023 27.576 34.3695C27.5419 28.3752 27.367 7.29934 27.7295 5.0788C28.0387 3.18393 29.1026 2.16362 30.2562 1.59197C31.0664 1.19113 33.6954 0.737915 36.9066 0.737915C44.4312 0.737915 52.1178 2.92658 54.2458 11.3077C54.9387 14.0407 54.7468 18.9396 53.3332 21.6725C51.2116 25.7697 48.267 27.1317 43.2883 27.5393V27.5371ZM41.898 11.1733C37.721 11.9067 34.1496 19.4953 38.5846 18.8006C42.3074 18.2176 46.928 10.2897 41.898 11.1733Z" fill="white"/>
<path d="M115.984 34.3103C115.592 32.3654 111.449 24.631 110.931 23.3055C110.321 21.7455 109.837 22.2215 112.421 20.2514C115.246 18.0969 115.747 14.7536 115.747 12.5649C115.747 5.52067 112.193 2.66471 108.283 1.40981C102.223 -0.530603 93.2099 -0.198091 90.8836 0.794892C87.3314 2.3117 85.7812 3.69185 85.7919 8.44724C85.7983 11.8247 85.7812 34.3103 85.7812 34.3103C85.7812 35.7793 86.89 36.2303 87.9348 36.2303H97.6876C98.9882 36.2303 99.9968 35.5333 99.9968 33.9778C99.9968 32.4223 99.7942 27.4847 99.7942 27.4847L103.037 34.3103C103.577 35.2236 104.15 36.2303 105.875 36.2303H114.404C115.683 36.2303 116.231 35.522 115.986 34.3103H115.984ZM98.291 18.3953C93.856 19.0899 97.4274 11.5013 101.607 10.7657C106.639 9.88205 102.014 17.8122 98.291 18.3953Z" fill="white"/>
<path d="M198.537 22.0506H192.618C192.316 22.0506 191.409 21.9618 191.384 22.8295V25.4874C191.384 25.8563 191.669 26.1706 192.535 26.1729C192.842 26.1729 197.804 26.2048 197.804 26.2048C199.35 26.2048 200 27.446 200 28.357V33.6818C200 34.4789 199.51 35.6017 197.734 35.6017C197.734 35.6017 179.976 35.6062 179.823 35.6017C178.296 35.5607 177.586 34.8774 177.586 33.6818C177.586 32.2743 177.58 26.2822 177.569 24.3737C177.541 19.9075 177.586 2.41874 177.586 2.41874C177.586 2.41874 178.109 0.168586 181.057 0.168586H196.832C198.951 0.166308 200 0.753899 200 2.0885V7.53169C200 8.91412 198.638 9.41745 198.126 9.42883C197.418 9.44478 193.431 9.41745 193.26 9.41745C192.659 9.41745 191.384 9.40606 191.384 10.2738V12.9111C191.539 13.3848 191.889 13.5215 192.529 13.5215C193.422 13.5215 197 13.5647 198.136 13.5647C199.341 13.5647 200 14.1227 200 14.8925V20.0692C200 21.4357 199.439 22.0484 198.537 22.0484V22.0506Z" fill="white"/>
<path d="M174.492 23.5195C175.247 23.5195 175.968 24.1937 175.968 24.8314V34.5471C175.968 35.2007 175.827 36.2302 173.72 36.2302H154.475C153.11 36.2302 151.699 35.556 151.699 34.3102C151.699 27.1681 151.767 4.06982 151.767 3.10872C151.767 2.14763 152.014 0.7948 153.703 0.7948H165.447C166.727 0.7948 167.179 2.11119 167.179 3.10872C167.179 4.10626 167.189 21.3719 167.185 22.4127C167.181 23.4535 167.409 23.5013 167.997 23.5013C168.586 23.5013 173.739 23.5173 174.492 23.5173V23.5195Z" fill="white"/>
</g>
<defs>
<clipPath id="clip0_196_6829">
<rect width="200" height="37" fill="white"/>
</clipPath>
</defs>
</svg>
