<svg width="65" height="64" viewBox="0 0 65 64" fill="none" xmlns="http://www.w3.org/2000/svg">
<g clip-path="url(#clip0_196_6999)">
<path d="M32.3682 0.20105C30.6382 0.20105 29.2708 1.6675 29.3916 3.39324L31.2129 29.4121L14.1027 9.72612C12.9678 8.42041 10.964 8.35037 9.74075 9.57363C8.51748 10.7969 8.58753 12.8007 9.89323 13.9356L29.5792 31.0458L3.56035 29.2245C1.83462 29.1037 0.368165 30.4711 0.368164 32.201C0.368164 33.931 1.83462 35.2984 3.56035 35.1776L29.5792 33.3563L9.89323 50.4665C8.58753 51.6014 8.51748 53.6052 9.74075 54.8285C10.964 56.0517 12.9678 55.9817 14.1027 54.676L31.2129 34.99L29.3916 61.0089C29.2708 62.7346 30.6382 64.201 32.3682 64.201C34.0981 64.201 35.4655 62.7346 35.3447 61.0089L33.5234 34.99L50.6336 54.676C51.7685 55.9817 53.7723 56.0517 54.9956 54.8285C56.2188 53.6052 56.1488 51.6014 54.8431 50.4665L35.1571 33.3563L61.176 35.1776C62.9017 35.2984 64.3682 33.931 64.3682 32.201C64.3682 30.4711 62.9017 29.1037 61.176 29.2245L35.1571 31.0458L54.8431 13.9356C56.1488 12.8007 56.2189 10.7969 54.9956 9.57363C53.7723 8.35037 51.7685 8.42041 50.6336 9.72612L33.5234 29.4121L35.3447 3.39324C35.4655 1.6675 34.0981 0.20105 32.3682 0.20105Z" fill="url(#paint0_linear_196_6999)"/>
<path d="M32.3682 0.20105C30.6382 0.20105 29.2708 1.6675 29.3916 3.39324L31.2129 29.4121L14.1027 9.72612C12.9678 8.42041 10.964 8.35037 9.74075 9.57363C8.51748 10.7969 8.58753 12.8007 9.89323 13.9356L29.5792 31.0458L3.56035 29.2245C1.83462 29.1037 0.368165 30.4711 0.368164 32.201C0.368164 33.931 1.83462 35.2984 3.56035 35.1776L29.5792 33.3563L9.89323 50.4665C8.58753 51.6014 8.51748 53.6052 9.74075 54.8285C10.964 56.0517 12.9678 55.9817 14.1027 54.676L31.2129 34.99L29.3916 61.0089C29.2708 62.7346 30.6382 64.201 32.3682 64.201C34.0981 64.201 35.4655 62.7346 35.3447 61.0089L33.5234 34.99L50.6336 54.676C51.7685 55.9817 53.7723 56.0517 54.9956 54.8285C56.2188 53.6052 56.1488 51.6014 54.8431 50.4665L35.1571 33.3563L61.176 35.1776C62.9017 35.2984 64.3682 33.931 64.3682 32.201C64.3682 30.4711 62.9017 29.1037 61.176 29.2245L35.1571 31.0458L54.8431 13.9356C56.1488 12.8007 56.2189 10.7969 54.9956 9.57363C53.7723 8.35037 51.7685 8.42041 50.6336 9.72612L33.5234 29.4121L35.3447 3.39324C35.4655 1.6675 34.0981 0.20105 32.3682 0.20105Z" fill="url(#paint1_linear_196_6999)" fill-opacity="0.3"/>
</g>
<defs>
<linearGradient id="paint0_linear_196_6999" x1="45.9682" y1="60.8655" x2="31.7282" y2="7.72105" gradientUnits="userSpaceOnUse">
<stop stop-color="#FF8EFA"/>
<stop offset="1" stop-color="#C8A9FF"/>
</linearGradient>
<linearGradient id="paint1_linear_196_6999" x1="45.9682" y1="60.8655" x2="31.7282" y2="7.72105" gradientUnits="userSpaceOnUse">
<stop stop-color="#C7C7C7"/>
<stop offset="1" stop-color="#DBC6FF"/>
</linearGradient>
<clipPath id="clip0_196_6999">
<rect width="63.7018" height="63.7018" fill="white" transform="translate(0.368164 0.20105)"/>
</clipPath>
</defs>
</svg>
