<svg width="65" height="64" viewBox="0 0 65 64" fill="none" xmlns="http://www.w3.org/2000/svg">
<g clip-path="url(#clip0_196_6761)">
<path d="M35.1306 0.609375L33.116 29.3838L33.031 30.6016L33.8318 29.6797L52.7537 7.90918L56.6589 11.8145L34.8894 30.7373L33.9675 31.5381L35.1853 31.4531L63.9597 29.4385V34.9629L35.1853 32.9492L33.9675 32.8643L34.8894 33.665L56.6589 52.5869L52.7537 56.4922L33.8318 34.7227L33.031 33.8008L33.116 35.0186L35.1306 63.793H29.6052L31.6199 35.0186L31.7048 33.8008L30.9041 34.7227L11.9812 56.4922L8.07593 52.5869L29.8464 33.665L30.7683 32.8643L29.5505 32.9492L0.776123 34.9629V29.4385L29.5505 31.4531L30.7683 31.5381L29.8464 30.7373L8.07593 11.8145L11.9812 7.90918L30.9041 29.6797L31.7048 30.6016L31.6199 29.3838L29.6052 0.609375H35.1306Z" fill="url(#paint0_linear_196_6761)"/>
<path d="M35.1306 0.609375L33.116 29.3838L33.031 30.6016L33.8318 29.6797L52.7537 7.90918L56.6589 11.8145L34.8894 30.7373L33.9675 31.5381L35.1853 31.4531L63.9597 29.4385V34.9629L35.1853 32.9492L33.9675 32.8643L34.8894 33.665L56.6589 52.5869L52.7537 56.4922L33.8318 34.7227L33.031 33.8008L33.116 35.0186L35.1306 63.793H29.6052L31.6199 35.0186L31.7048 33.8008L30.9041 34.7227L11.9812 56.4922L8.07593 52.5869L29.8464 33.665L30.7683 32.8643L29.5505 32.9492L0.776123 34.9629V29.4385L29.5505 31.4531L30.7683 31.5381L29.8464 30.7373L8.07593 11.8145L11.9812 7.90918L30.9041 29.6797L31.7048 30.6016L31.6199 29.3838L29.6052 0.609375H35.1306Z" fill="url(#paint1_linear_196_6761)"/>
<path d="M35.1306 0.609375L33.116 29.3838L33.031 30.6016L33.8318 29.6797L52.7537 7.90918L56.6589 11.8145L34.8894 30.7373L33.9675 31.5381L35.1853 31.4531L63.9597 29.4385V34.9629L35.1853 32.9492L33.9675 32.8643L34.8894 33.665L56.6589 52.5869L52.7537 56.4922L33.8318 34.7227L33.031 33.8008L33.116 35.0186L35.1306 63.793H29.6052L31.6199 35.0186L31.7048 33.8008L30.9041 34.7227L11.9812 56.4922L8.07593 52.5869L29.8464 33.665L30.7683 32.8643L29.5505 32.9492L0.776123 34.9629V29.4385L29.5505 31.4531L30.7683 31.5381L29.8464 30.7373L8.07593 11.8145L11.9812 7.90918L30.9041 29.6797L31.7048 30.6016L31.6199 29.3838L29.6052 0.609375H35.1306Z" stroke="url(#paint2_linear_196_6761)" stroke-width="0.816689"/>
</g>
<defs>
<linearGradient id="paint0_linear_196_6761" x1="45.9679" y1="60.8656" x2="31.7279" y2="7.72117" gradientUnits="userSpaceOnUse">
<stop stop-color="#B4E5FF"/>
<stop offset="1" stop-color="#A96DA9"/>
</linearGradient>
<linearGradient id="paint1_linear_196_6761" x1="45.9679" y1="60.8656" x2="31.7279" y2="7.72117" gradientUnits="userSpaceOnUse">
<stop stop-color="#C7C7C7"/>
<stop offset="1" stop-color="#DBC6FF"/>
</linearGradient>
<linearGradient id="paint2_linear_196_6761" x1="64.3679" y1="34.6739" x2="-15.6321" y2="17.9466" gradientUnits="userSpaceOnUse">
<stop stop-color="white"/>
<stop offset="1" stop-color="#BC88D2"/>
</linearGradient>
<clipPath id="clip0_196_6761">
<rect width="63.7018" height="63.7018" fill="white" transform="translate(0.36792 0.201172)"/>
</clipPath>
</defs>
</svg>
